<svg xmlns="http://www.w3.org/2000/svg" width="24" height="24" viewBox="0 0 24 24" fill="none">
  <g clip-path="url(#standard)">
    <path d="M23.0626 11.0625H12.9376V0.9375C12.9376 0.419719 12.5179 0 12.0001 0C11.4823 0 11.0626 0.419719 11.0626 0.9375V11.0625H0.937622C0.419841 11.0625 0.00012207 11.4822 0.00012207 12C0.00012207 12.5178 0.419841 12.9375 0.937622 12.9375H11.0626V23.0625C11.0626 23.5803 11.4823 24 12.0001 24C12.5179 24 12.9376 23.5803 12.9376 23.0625V12.9375H23.0626C23.5804 12.9375 24.0001 12.5178 24.0001 12C24.0001 11.4822 23.5804 11.0625 23.0626 11.0625Z" fill="currentColor"/>
  </g>
  <defs>
    <clipPath id="standard">
      <rect width="24" height="24" fill="white"/>
    </clipPath>
  </defs>
</svg>