<svg xmlns="http://www.w3.org/2000/svg" width="24" height="24" viewBox="0 0 24 24" fill="none">
  <g clip-path="url(#clip0_894_110)">
    <path d="M12.6375 8.95781C12.7969 8.80313 12.9 8.5875 12.9094 8.34844L12.9984 6.24375C13.0078 5.97187 12.9094 5.70469 12.7219 5.50781C12.5344 5.31094 12.2719 5.19844 12 5.19844C11.7281 5.19844 11.4656 5.31094 11.2781 5.50781C11.0906 5.70469 10.9875 5.97187 11.0016 6.24375L11.0906 8.34844C11.1 8.5875 11.2031 8.80313 11.3625 8.95781C11.1141 9.15 10.95 9.45469 10.95 9.79219C10.95 10.3734 11.4234 10.8422 12 10.8422C12.5813 10.8422 13.05 10.3687 13.05 9.79219C13.05 9.45469 12.8859 9.15 12.6375 8.95781ZM12 5.66719C12.3047 5.66719 12.5438 5.92031 12.5344 6.225L12.4453 8.32969C12.4359 8.56406 12.2391 8.75156 12.0047 8.75156C11.7703 8.75156 11.5734 8.56406 11.5641 8.32969L11.475 6.225C11.4563 5.91563 11.6953 5.66719 12 5.66719ZM12 10.3734C11.6766 10.3734 11.4188 10.1109 11.4188 9.79219C11.4188 9.47344 11.6813 9.21094 12 9.21094C12.3234 9.21094 12.5813 9.47344 12.5813 9.79219C12.5813 10.1109 12.3234 10.3734 12 10.3734ZM12 3.58125C9.55313 3.58125 7.56094 5.57344 7.56094 8.02031C7.56094 10.4672 9.55313 12.4594 12 12.4594C14.4469 12.4594 16.4391 10.4672 16.4391 8.02031C16.4391 5.57344 14.4469 3.58125 12 3.58125ZM12 11.9906C9.80625 11.9906 8.02969 10.2141 8.02969 8.02031C8.02969 5.82656 9.80625 4.05 12 4.05C14.1938 4.05 15.9703 5.82656 15.9703 8.02031C15.9703 10.2141 14.1938 11.9906 12 11.9906ZM23.4422 10.2328L21.7359 8.53125V5.49844C21.7359 3.92813 20.4563 2.64844 18.8859 2.64844H15.8344L14.0063 0.829688C13.4766 0.295313 12.7594 0 12 0C11.2406 0 10.5281 0.295313 9.98906 0.829688L8.16563 2.64844H5.13281C3.5625 2.64844 2.28281 3.92813 2.28281 5.49844V8.5125L0.557812 10.2281C0.46875 10.3172 0.421875 10.4344 0.421875 10.5609V21.1453C0.421875 22.7156 1.70156 23.9953 3.27188 23.9953H20.7375C22.3078 23.9953 23.5875 22.7156 23.5875 21.1453V10.5656C23.5828 10.4391 23.5313 10.3219 23.4422 10.2328ZM22.7813 10.2328L21.7406 11.2734V9.19219L22.7813 10.2328ZM10.3172 1.1625C11.2453 0.234375 12.75 0.234375 13.6781 1.1625L15.1734 2.64844H8.82656L10.3172 1.1625ZM5.12813 3.12187H18.8906C20.2078 3.12187 21.2719 4.19063 21.2719 5.50313V11.7469L16.6406 16.3781L14.0156 13.7531C13.4766 13.2141 12.7594 12.9188 12 12.9188C11.2406 12.9188 10.5234 13.2141 9.98438 13.7531L7.34531 16.3922L2.74688 11.7938V5.50313C2.74688 4.18594 3.81563 3.12187 5.12813 3.12187ZM2.27813 11.325L1.21875 10.2609C1.21406 10.2562 1.20938 10.2516 1.20469 10.2469L2.28281 9.17344V11.325H2.27813ZM0.885938 10.5938L7.01719 16.725L1.27969 22.4578C1.03125 22.0828 0.885938 21.6328 0.885938 21.1453V10.5938ZM20.7328 23.5312H3.26719C2.60625 23.5312 2.00625 23.2594 1.575 22.8281L10.3125 14.0906C11.2406 13.1625 12.75 13.1625 13.6828 14.0906L22.425 22.8281C21.9938 23.2594 21.3938 23.5312 20.7328 23.5312ZM23.1141 21.15C23.1141 21.6328 22.9688 22.0828 22.7203 22.4625L16.9688 16.7109L23.1141 10.5656V21.15Z" fill="currentColor"/>
  </g>
  <defs>
    <clipPath id="clip0_894_110">
      <rect width="24" height="24" fill="white"/>
    </clipPath>
  </defs>
</svg>