<svg width="24" height="24" viewBox="0 0 24 24" fill="none" xmlns="http://www.w3.org/2000/svg">
<g clip-path="url(#standard)">
<path d="M0.424033 11.5712L5.95411 13.6352L8.09459 20.519C8.23155 20.9598 8.77067 21.1228 9.12851 20.8302L12.2111 18.3173C12.5342 18.054 12.9944 18.0409 13.3321 18.286L18.892 22.3226C19.2748 22.6008 19.8171 22.391 19.9131 21.9285L23.986 2.33719C24.0908 1.83191 23.5943 1.41039 23.1132 1.59647L0.417553 10.3518C-0.142527 10.5678 -0.137647 11.3607 0.424033 11.5712ZM7.74963 12.5365L18.5575 5.87991C18.7517 5.76063 18.9516 6.02327 18.7848 6.17799L9.86515 14.4692C9.55163 14.761 9.34939 15.1516 9.29211 15.5755L8.98827 17.8272C8.94803 18.1278 8.52571 18.1577 8.44275 17.8667L7.27419 13.7607C7.14035 13.2924 7.33539 12.7922 7.74963 12.5365Z" fill="currentColor"/>
</g>
<defs>
<clipPath id="standard">
<rect width="24" height="24" fill="white"/>
</clipPath>
</defs>
</svg>
