<svg width="240" height="240" viewBox="0 0 240 240" fill="none" xmlns="http://www.w3.org/2000/svg">
<g opacity="0.3" filter="url(#filter0_f_14_2409)">
<path d="M94.2818 35.4757C95.7975 33.96 98.0068 33.368 100.077 33.9228L184.182 56.4587C186.253 57.0135 187.87 58.6307 188.425 60.7013L210.961 144.806C211.516 146.877 210.924 149.086 209.408 150.602L147.839 212.171C146.323 213.687 144.114 214.279 142.043 213.724L57.9383 191.188C55.8678 190.633 54.2505 189.016 53.6957 186.945L31.1598 102.84C30.605 100.77 31.197 98.5605 32.7127 97.0448L94.2818 35.4757Z" fill="#6B3D0F"/>
</g>
<g opacity="0.4" filter="url(#filter1_f_14_2409)">
<path d="M95.5759 40.3053C97.0916 38.7896 99.3009 38.1976 101.371 38.7524L186.442 61.5471C188.513 62.1019 190.13 63.7192 190.685 65.7897L213.48 150.861C214.034 152.931 213.442 155.14 211.927 156.656L149.651 218.932C148.135 220.448 145.925 221.04 143.855 220.485L58.7841 197.691C56.7136 197.136 55.0963 195.518 54.5415 193.448L31.7468 108.377C31.192 106.307 31.784 104.097 33.2997 102.582L95.5759 40.3053Z" fill="#6B3D0F"/>
</g>
<path d="M92.2112 27.7482C93.727 26.2325 95.9363 25.6405 98.0068 26.1953L185.975 49.7664C188.046 50.3212 189.663 51.9385 190.218 54.0091L213.789 141.978C214.344 144.048 213.752 146.257 212.236 147.773L147.839 212.171C146.323 213.686 144.114 214.278 142.043 213.724L54.0746 190.153C52.0041 189.598 50.3868 187.98 49.832 185.91L26.2609 97.9413C25.706 95.8707 26.298 93.6615 27.8138 92.1457L92.2112 27.7482Z" fill="url(#paint0_linear_14_2409)"/>
<g clip-path="url(#clip0_14_2409)">
<path d="M148.871 102.791C147.769 93.1046 139.337 89.9983 128.747 89.2567L128.512 75.7987L120.32 75.9429L120.55 89.0463C118.396 89.0837 116.196 89.1648 114.009 89.2466L113.78 76.0562L105.593 76.199L105.825 89.6533C104.052 89.7206 102.311 89.7844 100.613 89.8148L100.611 89.7727L89.3126 89.9658L89.4675 98.7151C89.4675 98.7151 95.5148 98.4945 95.4163 98.607C98.7339 98.5499 99.8479 100.458 100.192 102.114L100.46 117.446C100.689 117.443 100.987 117.447 101.327 117.488C101.054 117.493 100.762 117.497 100.461 117.505L100.834 138.983C100.707 140.03 100.122 141.706 97.8041 141.75C97.9109 141.841 91.8495 141.853 91.8495 141.853L90.3922 151.665L101.053 151.478C103.037 151.446 104.99 151.446 106.907 151.424L107.148 165.035L115.331 164.894L115.095 151.426C117.343 151.433 119.517 151.413 121.641 151.374L121.871 164.78L130.063 164.635L129.828 151.048C143.587 150.018 153.165 146.38 154.136 133.426C154.92 122.995 149.941 118.434 142.091 116.693C146.798 114.191 149.69 109.878 148.871 102.791ZM137.919 132.095C138.1 142.267 120.664 141.414 115.112 141.516L114.799 123.482C120.352 123.386 137.734 121.485 137.919 132.095ZM133.664 106.717C133.823 115.971 119.279 115.145 114.655 115.226L114.37 98.8704C118.994 98.7895 133.494 97.0658 133.664 106.717Z" fill="white"/>
</g>
<defs>
<filter id="filter0_f_14_2409" x="24.9553" y="27.7183" width="192.21" height="192.21" filterUnits="userSpaceOnUse" color-interpolation-filters="sRGB">
<feFlood flood-opacity="0" result="BackgroundImageFix"/>
<feBlend mode="normal" in="SourceGraphic" in2="BackgroundImageFix" result="shape"/>
<feGaussianBlur stdDeviation="3" result="effect1_foregroundBlur_14_2409"/>
</filter>
<filter id="filter1_f_14_2409" x="16.5422" y="23.5479" width="212.142" height="212.142" filterUnits="userSpaceOnUse" color-interpolation-filters="sRGB">
<feFlood flood-opacity="0" result="BackgroundImageFix"/>
<feBlend mode="normal" in="SourceGraphic" in2="BackgroundImageFix" result="shape"/>
<feGaussianBlur stdDeviation="7.5" result="effect1_foregroundBlur_14_2409"/>
</filter>
<linearGradient id="paint0_linear_14_2409" x1="83.9179" y1="-14.794" x2="156.132" y2="254.713" gradientUnits="userSpaceOnUse">
<stop stop-color="#F4BA45"/>
<stop offset="1" stop-color="#F19C3B"/>
</linearGradient>
<clipPath id="clip0_14_2409">
<rect width="97.8735" height="97.8735" fill="white" transform="translate(59.9351 85.2666) rotate(-15)"/>
</clipPath>
</defs>
</svg>
