<svg width="1867" height="641" viewBox="0 0 1867 641" fill="none" xmlns="http://www.w3.org/2000/svg">
<path d="M518.981 30.8692L519.484 31.1553L519.982 30.8619L570.745 1H1802.77L1866 38.0729V599.958L1805.33 639.5H571.601L519.97 610.131L519.471 609.847L518.975 610.134L468.21 639.5H71.985L6.18057 605.389L1.00507 39.5503L62.5208 1H466.485L518.981 30.8692Z" fill="white" stroke="url(#paint0_linear_751_58)" stroke-width="2"/>
<circle cx="510.053" cy="258" r="6" fill="black" fill-opacity="0.33" stroke="#F0E2E2" stroke-width="2"/>
<circle cx="510.053" cy="287" r="6" fill="black" fill-opacity="0.33" stroke="#F0E2E2" stroke-width="2"/>
<circle cx="510.053" cy="318" r="6" fill="black" fill-opacity="0.33" stroke="#F0E2E2" stroke-width="2"/>
<circle cx="510.053" cy="346" r="6" fill="black" fill-opacity="0.33" stroke="#F0E2E2" stroke-width="2"/>
<circle cx="510.053" cy="376" r="6" fill="black" fill-opacity="0.33" stroke="#F0E2E2" stroke-width="2"/>
<circle cx="510.053" cy="406" r="6" fill="black" fill-opacity="0.33" stroke="#F0E2E2" stroke-width="2"/>
<circle cx="510.053" cy="435" r="6" fill="black" fill-opacity="0.33" stroke="#F0E2E2" stroke-width="2"/>
<circle cx="510.053" cy="464" r="6" fill="black" fill-opacity="0.33" stroke="#F0E2E2" stroke-width="2"/>
<circle cx="510.053" cy="582" r="6" fill="black" fill-opacity="0.33" stroke="#F0E2E2" stroke-width="2"/>
<circle cx="510.053" cy="552" r="6" fill="black" fill-opacity="0.33" stroke="#F0E2E2" stroke-width="2"/>
<circle cx="510.053" cy="523" r="6" fill="black" fill-opacity="0.33" stroke="#F0E2E2" stroke-width="2"/>
<circle cx="510.053" cy="494" r="6" fill="black" fill-opacity="0.33" stroke="#F0E2E2" stroke-width="2"/>
<circle cx="510.053" cy="52" r="6" fill="black" fill-opacity="0.33" stroke="#F0E2E2" stroke-width="2"/>
<circle cx="510.053" cy="112" r="6" fill="black" fill-opacity="0.33" stroke="#F0E2E2" stroke-width="2"/>
<circle cx="510.053" cy="142" r="6" fill="black" fill-opacity="0.33" stroke="#F0E2E2" stroke-width="2"/>
<circle cx="510.053" cy="170" r="6" fill="black" fill-opacity="0.33" stroke="#F0E2E2" stroke-width="2"/>
<circle cx="510.053" cy="200" r="6" fill="black" fill-opacity="0.33" stroke="#F0E2E2" stroke-width="2"/>
<circle cx="510.053" cy="229" r="6" fill="black" fill-opacity="0.33" stroke="#F0E2E2" stroke-width="2"/>
<circle cx="510.053" cy="82" r="6" fill="black" fill-opacity="0.33" stroke="#F0E2E2" stroke-width="2"/>
<defs>
<linearGradient id="paint0_linear_751_58" x1="933.5" y1="0" x2="933.5" y2="640.5" gradientUnits="userSpaceOnUse">
<stop stop-color="#C4C4C4"/>
<stop offset="1" stop-color="#EFE4E4" stop-opacity="0"/>
</linearGradient>
</defs>
</svg>
