<svg xmlns="http://www.w3.org/2000/svg" width="32" height="32" viewBox="0 0 32 32" fill="none">
  <g clip-path="url(#clip0_489_4181)">
    <path fill-rule="evenodd" clip-rule="evenodd" d="M18.3117 0.779297C25.8701 0.779297 32 7.58449 32 16.0001C32 24.4157 25.8701 31.2209 18.3117 31.2209H13.7143C6.12987 31.2209 0 24.4157 0 16.0001C0 7.58449 6.12987 0.779297 13.7143 0.779297H18.3117ZM25.7922 27.4286H22.7532C21.5844 28.5715 20.2338 29.5066 18.7532 30.1559C21.3766 30.052 23.7922 29.065 25.7922 27.4286ZM23.7143 26.3897H26.9091C27.6623 25.6105 28.3377 24.7273 28.8831 23.7663H25.5065C24.987 24.7014 24.3896 25.5845 23.7143 26.3897ZM26 22.7273H29.4545C29.8182 21.9222 30.1558 21.091 30.3896 20.2079H26.8831C26.6494 21.065 26.3636 21.9222 26 22.7273ZM27.1169 19.1689H30.6234C30.8052 18.3118 30.9091 17.4286 30.9351 16.5196H27.4026C27.3766 17.4286 27.2727 18.3118 27.1169 19.1689ZM27.4026 15.4806H30.9351C30.9091 14.5715 30.8052 13.6884 30.6494 12.8312H27.1169C27.2727 13.6884 27.3766 14.5715 27.4026 15.4806ZM29.4545 9.2728H26C26.3636 10.078 26.6494 10.9351 26.8831 11.8183H30.3896C30.1558 10.9351 29.8182 10.078 29.4545 9.2728ZM25.5065 8.25982H28.8831C28.3377 7.2728 27.6623 6.38969 26.9091 5.61047H23.7143C24.3896 6.41566 24.987 7.29878 25.5065 8.25982ZM22.7532 4.5715H25.7922C23.7922 2.93514 21.3766 1.94813 18.7532 1.84423C20.2338 2.49358 21.5844 3.42865 22.7532 4.5715ZM13.7143 30.1819C20.6753 30.1819 26.3377 23.8183 26.3377 16.0001C26.3377 8.18189 20.6753 1.84423 13.7143 1.84423C6.15584 1.84423 1.06494 8.83125 1.06494 16.0001C1.06494 23.1949 6.15584 30.1819 13.7143 30.1819Z" fill="#6F4FF2"/>
    <path fill-rule="evenodd" clip-rule="evenodd" d="M13.7143 3.76636C19.6104 3.76636 24.4156 9.24688 24.4156 16.0001C24.4156 22.7534 19.6104 28.2339 13.7143 28.2339C7.79226 28.2339 2.98706 22.7534 2.98706 16.0001C2.98706 9.24688 7.79226 3.76636 13.7143 3.76636ZM13.7143 4.80532C19.039 4.80532 23.3767 9.81831 23.3767 16.0001C23.3767 22.1819 19.039 27.1949 13.7143 27.1949C8.36368 27.1949 4.02602 22.1819 4.02602 16.0001C4.02602 9.81831 8.36368 4.80532 13.7143 4.80532Z" fill="#6F4FF2"/>
    <mask id="path-3-inside-1_489_4181" fill="white">
      <path d="M10.4052 17.1123C10.8599 17.1123 11.2862 16.9564 11.6557 16.6705L8.75691 13.7595C8.04643 14.6692 8.21695 15.9687 9.12636 16.6705C9.49581 16.9564 9.9221 17.1123 10.4052 17.1123Z"/>
    </mask>
    <path d="M10.4052 17.1123C10.8599 17.1123 11.2862 16.9564 11.6557 16.6705L8.75691 13.7595C8.04643 14.6692 8.21695 15.9687 9.12636 16.6705C9.49581 16.9564 9.9221 17.1123 10.4052 17.1123Z" fill="#6F4FF2"/>
    <path d="M11.6557 16.6705L13.3949 18.918L15.9418 16.9471L13.6694 14.6652L11.6557 16.6705ZM8.75691 13.7595L10.7707 11.7542L8.4989 9.47286L6.51716 12.0102L8.75691 13.7595ZM9.12636 16.6705L10.8656 14.423L10.8625 14.4206L9.12636 16.6705ZM10.4052 19.9543C11.5413 19.9543 12.5701 19.5563 13.3949 18.918L9.9164 14.423C9.95324 14.3945 10.0168 14.3543 10.1081 14.3218C10.2009 14.2886 10.3033 14.2704 10.4052 14.2704V19.9543ZM13.6694 14.6652L10.7707 11.7542L6.74315 15.7648L9.6419 18.6758L13.6694 14.6652ZM6.51716 12.0102C4.82903 14.1717 5.24277 17.2634 7.39019 18.9204L10.8625 14.4206C11.1911 14.6741 11.2638 15.1667 10.9967 15.5088L6.51716 12.0102ZM7.38709 18.918C8.22916 19.5697 9.26126 19.9543 10.4052 19.9543V14.2704C10.4752 14.2704 10.5663 14.2827 10.6634 14.3168C10.759 14.3503 10.8272 14.3932 10.8656 14.423L7.38709 18.918Z" fill="#6F4FF2" mask="url(#path-3-inside-1_489_4181)"/>
    <mask id="path-5-inside-2_489_4181" fill="white">
      <path d="M19.0729 15.0331C19.0729 14.5652 18.9024 14.1234 18.6182 13.7595L15.7195 16.6705C16.6289 17.3723 17.9362 17.2163 18.6182 16.3066C18.9024 15.9428 19.0729 15.4749 19.0729 15.0331Z"/>
    </mask>
    <path d="M19.0729 15.0331C19.0729 14.5652 18.9024 14.1234 18.6182 13.7595L15.7195 16.6705C16.6289 17.3723 17.9362 17.2163 18.6182 16.3066C18.9024 15.9428 19.0729 15.4749 19.0729 15.0331Z" fill="#6F4FF2"/>
    <path d="M18.6182 13.7595L20.858 12.0102L18.8763 9.47286L16.6045 11.7542L18.6182 13.7595ZM15.7195 16.6705L13.7057 14.6652L11.4302 16.9503L13.9833 18.9204L15.7195 16.6705ZM18.6182 16.3066L16.3785 14.5573L16.3613 14.5794L16.3445 14.6018L18.6182 16.3066ZM21.9149 15.0331C21.9149 13.8611 21.4869 12.8154 20.858 12.0102L16.3785 15.5088C16.318 15.4313 16.231 15.2694 16.231 15.0331H21.9149ZM16.6045 11.7542L13.7057 14.6652L17.7332 18.6758L20.632 15.7648L16.6045 11.7542ZM13.9833 18.9204C16.0953 20.5502 19.2201 20.2414 20.892 18.0115L16.3445 14.6018C16.6523 14.1913 17.1625 14.1943 17.4557 14.4206L13.9833 18.9204ZM20.858 18.0559C21.4993 17.2348 21.9149 16.1606 21.9149 15.0331H16.231C16.231 14.8946 16.2563 14.7975 16.2774 14.7388C16.2989 14.6789 16.3301 14.6193 16.3785 14.5573L20.858 18.0559Z" fill="#6F4FF2" mask="url(#path-5-inside-2_489_4181)"/>
    <path d="M13.7017 22.5791C12.671 22.5791 11.6965 22.3436 10.8287 21.9239C11.0042 21.7205 11.123 21.5092 11.2 21.3593C11.3149 21.1356 11.413 20.8929 11.4946 20.68C11.5512 20.5327 11.6019 20.3952 11.6503 20.2642C11.6772 20.1915 11.7033 20.1207 11.7293 20.0514L12.6827 21.0048L13.6875 22.0096L14.6923 21.0048L15.712 19.9851C15.7247 20.0114 15.7376 20.0379 15.7506 20.0647C15.8328 20.2343 15.9215 20.4173 16.0408 20.6481C16.1993 20.9548 16.4486 21.4228 16.8057 21.7961C15.8807 22.2957 14.8234 22.5791 13.7017 22.5791Z" fill="#6F4FF2" stroke="#6F4FF2" stroke-width="2.84192"/>
    <mask id="path-8-inside-3_489_4181" fill="white">
      <path d="M19.4707 10.4847C16.4298 7.28785 11.3712 7.15789 8.15985 10.1988C8.07459 10.3028 7.98933 10.3808 7.90408 10.4847C7.70514 10.6927 7.50621 10.9006 7.33569 11.1345L13.7016 17.4763L20.0391 11.1345C19.8686 10.9006 19.6696 10.6927 19.4707 10.4847ZM13.7016 9.05523C15.5488 9.05523 17.3108 9.75698 18.6181 11.0825L13.7016 15.9948L8.75665 11.0825C10.0639 9.75698 11.8259 9.05523 13.7016 9.05523Z"/>
    </mask>
    <path d="M19.4707 10.4847C16.4298 7.28785 11.3712 7.15789 8.15985 10.1988C8.07459 10.3028 7.98933 10.3808 7.90408 10.4847C7.70514 10.6927 7.50621 10.9006 7.33569 11.1345L13.7016 17.4763L20.0391 11.1345C19.8686 10.9006 19.6696 10.6927 19.4707 10.4847ZM13.7016 9.05523C15.5488 9.05523 17.3108 9.75698 18.6181 11.0825L13.7016 15.9948L8.75665 11.0825C10.0639 9.75698 11.8259 9.05523 13.7016 9.05523Z" fill="#6F4FF2"/>
    <path d="M19.4707 10.4847L17.4115 12.4434L17.4172 12.4494L19.4707 10.4847ZM8.15985 10.1988L6.20581 8.13528L6.07586 8.25834L5.96236 8.39674L8.15985 10.1988ZM7.90408 10.4847L9.95753 12.4494L10.0327 12.3709L10.1016 12.2868L7.90408 10.4847ZM7.33569 11.1345L5.03917 9.46045L3.60435 11.4288L5.32997 13.1479L7.33569 11.1345ZM13.7016 17.4763L11.6959 19.4896L13.7061 21.4922L15.7118 19.4851L13.7016 17.4763ZM20.0391 11.1345L22.0493 13.1434L23.7672 11.4243L22.3356 9.46045L20.0391 11.1345ZM18.6181 11.0825L20.6268 13.0929L22.6242 11.0973L20.6415 9.08696L18.6181 11.0825ZM13.7016 15.9948L11.6987 18.011L13.7074 20.0064L15.7103 18.0052L13.7016 15.9948ZM8.75665 11.0825L6.73323 9.08696L4.74488 11.1031L6.75378 13.0987L8.75665 11.0825ZM21.5298 8.52607C17.4063 4.19091 10.5522 4.01956 6.20581 8.13528L10.1139 12.2624C12.1902 10.2962 15.4534 10.3848 17.4115 12.4434L21.5298 8.52607ZM5.96236 8.39674C5.98811 8.36533 6.0081 8.34535 5.95839 8.39838C5.92284 8.43631 5.8176 8.54727 5.70659 8.68263L10.1016 12.2868C10.0758 12.3182 10.0558 12.3382 10.1055 12.2852C10.1411 12.2472 10.2463 12.1363 10.3573 12.0009L5.96236 8.39674ZM5.85062 8.52009C5.67325 8.70548 5.34 9.04775 5.03917 9.46045L9.63222 12.8086C9.67242 12.7534 9.73703 12.6798 9.95753 12.4494L5.85062 8.52009ZM5.32997 13.1479L11.6959 19.4896L15.7073 15.4629L9.34142 9.12115L5.32997 13.1479ZM15.7118 19.4851L22.0493 13.1434L18.0288 9.12565L11.6914 15.4674L15.7118 19.4851ZM22.3356 9.46045C22.0348 9.04775 21.7015 8.70548 21.5241 8.52009L17.4172 12.4494C17.6377 12.6798 17.7023 12.7534 17.7425 12.8086L22.3356 9.46045ZM13.7016 11.8971C14.8225 11.8971 15.845 12.3179 16.5947 13.0781L20.6415 9.08696C18.7767 7.19606 16.2752 6.21331 13.7016 6.21331V11.8971ZM10.7801 13.0781C11.5256 12.3222 12.5461 11.8971 13.7016 11.8971V6.21331C11.1058 6.21331 8.60229 7.19181 6.73323 9.08696L10.7801 13.0781ZM15.7045 13.9786L10.7595 9.06634L6.75378 13.0987L11.6987 18.011L15.7045 13.9786ZM16.6094 9.07212L11.6929 13.9844L15.7103 18.0052L20.6268 13.0929L16.6094 9.07212Z" fill="#6F4FF2" mask="url(#path-8-inside-3_489_4181)"/>
    <path d="M13.7086 11.0314L13.7086 11.0315L13.7148 11.0314L15.3274 11.0115L13.7355 12.6427L12.0681 11.0116L13.7086 11.0314Z" fill="#967DFD" stroke="#6F4FF2" stroke-width="0.507937"/>
    <path d="M13.7426 11.4979L15.1514 11.1849L13.7123 12.6429L12.2425 11.1891L13.6324 11.4979L13.6875 11.5102L13.7426 11.4979Z" fill="#6F4FF2" stroke="#6F4FF2" stroke-width="0.507937"/>
  </g>
  <defs>
    <clipPath id="clip0_489_4181">
      <rect width="32" height="32" fill="white"/>
    </clipPath>
  </defs>
</svg>