<svg xmlns="http://www.w3.org/2000/svg" width="64" height="64" viewBox="0 0 64 64" fill="none">
  <path d="M18.8704 36.4496C20.6892 36.4496 22.3944 35.8259 23.8722 34.6823L12.2772 23.0383C9.43524 26.6771 10.1173 31.8752 13.755 34.6823C15.2327 35.8259 16.9379 36.4496 18.8704 36.4496Z" fill="#6F4FF2"/>
  <path d="M53.5418 28.1325C53.5418 26.2612 52.8597 24.4938 51.723 23.0383L40.1279 34.6823C43.7656 37.4893 48.9947 36.8655 51.723 33.2268C52.8597 31.7713 53.5418 29.8999 53.5418 28.1325Z" fill="#6F4FF2"/>
  <path d="M59.3392 15.449L54.2238 20.5432C58.4298 25.5334 56.8418 47.3492 51.84 51.5077C47.5203 55.1465 45.4334 42.6387 41 39L32 48L23 39C17.9982 43.1585 17.646 56.498 13.44 51.5077C9.80234 47.1413 6.13854 24.9097 9.7762 20.5432L7.16163 17.9441L4.66074 15.449C1.59147 20.4392 0 26.1572 0 31.9792C0 49.653 14.3233 64 32.0568 64C49.6767 64 64 49.653 64 31.9792C64 26.1572 62.4085 20.4392 59.3392 15.449Z" fill="#6F4FF2"/>
  <path d="M55.1332 9.93892C42.9698 -2.84861 22.7354 -3.36842 9.88989 8.79532C9.54886 9.21118 9.20783 9.52307 8.8668 9.93892C8.07106 10.7706 7.27532 11.6023 6.59326 12.538L32.0569 37.9051L57.4068 12.538C56.7247 11.6023 55.929 10.7706 55.1332 9.93892ZM32.0569 4.22092C39.4458 4.22092 46.4938 7.02794 51.7229 12.3301L32.0569 31.9792L12.2771 12.3301C17.5062 7.02794 24.5542 4.22092 32.0569 4.22092Z" fill="#6F4FF2"/>
  <path d="M32.2087 20.0084L41 11L32.0967 11.1099L23 11L32.2087 20.0084Z" fill="#967DFD"/>
  <path d="M23 11L32.0001 13L41 11L32.1077 20.0088L23 11Z" fill="#7879F1"/>
</svg>