<svg width="63" height="63" viewBox="0 0 63 63" fill="none" xmlns="http://www.w3.org/2000/svg">
<g clip-path="url(#clip0_84_167)">
<path d="M44.283 32.5079L31.5134 11.3477L18.7439 32.5079L31.5134 53.6748L44.283 32.5079Z" fill="url(#paint0_linear_84_167)"/>
<path d="M31.5134 53.6748V11.3477L44.283 32.5079L31.5134 53.6748Z" fill="url(#paint1_linear_84_167)"/>
<path d="M42.0801 32.5079L31.5134 27.5149L20.9399 32.5079L31.5134 37.5076L42.0801 32.5079Z" fill="#6F4FF2"/>
<path d="M37.3474 32.5079L31.5134 29.7511L25.6726 32.5079L31.5134 35.2714L37.3474 32.5079Z" fill="url(#paint2_linear_84_167)"/>
<path d="M63.0001 31.5C63.0001 48.8954 48.8955 63 31.5001 63C24.4511 63 17.9429 60.6837 12.6895 56.7721C8.24387 53.4612 4.71272 48.9955 2.5166 43.829L4.59257 41.5394L5.68729 40.3312C9.35862 51.0648 19.5182 58.788 31.5001 58.788C44.5099 58.788 55.3837 49.6831 58.1205 37.5009L53.1476 32.4746L59.7626 26.4069L62.1457 24.2174C62.6997 26.5537 63.0001 28.9901 63.0001 31.5Z" fill="url(#paint3_linear_84_167)"/>
<path d="M61.338 21.4072L59.0818 23.5099L57.9003 24.6113C54.8497 12.8764 44.1895 4.20534 31.5001 4.20534C17.7626 4.20534 6.40155 14.3582 4.49913 27.5617L9.8526 32.4746L4.87961 37.501C4.87961 37.501 4.87961 37.5143 4.87961 37.521L3.69144 38.7292L1.45526 41.0054C0.507394 38.0016 -0.0065918 34.8109 -0.0065918 31.5C8.33464e-05 14.0979 14.1047 0 31.5001 0C34.0433 0 36.5131 0.300381 38.8761 0.874444C49.4228 3.39765 57.9003 11.2409 61.338 21.4072Z" fill="url(#paint4_linear_84_167)"/>
<path d="M4.88612 37.521L3.69794 38.7292C3.10385 36.4196 2.78345 33.9965 2.78345 31.5C2.78345 15.6398 15.6398 2.78351 31.4999 2.78351C44.5832 2.78351 55.6239 11.5346 59.0816 23.5098L57.9001 24.6112C54.8496 12.8763 44.1894 4.20531 31.4999 4.20531C17.7625 4.20531 6.40137 14.3582 4.49896 27.5616L9.85242 32.4745L4.87944 37.5009C4.87944 37.5009 4.87944 37.5143 4.87944 37.521H4.88612Z" fill="url(#paint5_linear_84_167)"/>
<path d="M60.2098 31.5C60.2098 47.3535 47.3535 60.2098 31.5 60.2098C19.171 60.2098 8.65769 52.4399 4.59253 41.5394L5.68725 40.3312C9.35858 51.0648 19.5181 58.788 31.5 58.788C44.5099 58.788 55.3837 49.6831 58.1205 37.5009L53.1475 32.4746L59.7626 26.4069C60.0563 28.0623 60.2098 29.7645 60.2098 31.5Z" fill="url(#paint6_linear_84_167)"/>
<path d="M16.8945 32.5163L14.4023 30.0241L11.9102 32.5163L14.4023 35.0085L16.8945 32.5163Z" fill="url(#paint7_linear_84_167)"/>
<path d="M51.2224 32.514L48.7302 30.0218L46.238 32.514L48.7302 35.0061L51.2224 32.514Z" fill="url(#paint8_linear_84_167)"/>
<g clip-path="url(#clip1_84_167)">
<path d="M44.283 32.5079L31.5134 11.3477L18.7439 32.5079L31.5134 53.6748L44.283 32.5079Z" fill="url(#paint9_linear_84_167)"/>
<path d="M31.5134 53.6748V11.3477L44.283 32.5079L31.5134 53.6748Z" fill="url(#paint10_linear_84_167)"/>
<path d="M42.0801 32.5079L31.5134 27.5149L20.9399 32.5079L31.5134 37.5076L42.0801 32.5079Z" fill="#6F4FF2"/>
<path d="M37.3474 32.5079L31.5134 29.7511L25.6726 32.5079L31.5134 35.2714L37.3474 32.5079Z" fill="url(#paint11_linear_84_167)"/>
<path d="M63.0001 31.5C63.0001 48.8954 48.8955 63 31.5001 63C24.4511 63 17.9429 60.6837 12.6895 56.7721C8.24387 53.4612 4.71272 48.9955 2.5166 43.829L4.59257 41.5394L5.68729 40.3312C9.35862 51.0648 19.5182 58.788 31.5001 58.788C44.5099 58.788 55.3837 49.6831 58.1205 37.5009L53.1476 32.4746L59.7626 26.4069L62.1457 24.2174C62.6997 26.5537 63.0001 28.9901 63.0001 31.5Z" fill="url(#paint12_linear_84_167)"/>
<path d="M61.338 21.4072L59.0818 23.5099L57.9003 24.6113C54.8497 12.8764 44.1895 4.20534 31.5001 4.20534C17.7626 4.20534 6.40155 14.3582 4.49913 27.5617L9.8526 32.4746L4.87961 37.501C4.87961 37.501 4.87961 37.5143 4.87961 37.521L3.69144 38.7292L1.45526 41.0054C0.507394 38.0016 -0.0065918 34.8109 -0.0065918 31.5C8.33464e-05 14.0979 14.1047 0 31.5001 0C34.0433 0 36.5131 0.300381 38.8761 0.874444C49.4228 3.39765 57.9003 11.2409 61.338 21.4072Z" fill="url(#paint13_linear_84_167)"/>
<path d="M4.88612 37.521L3.69794 38.7292C3.10385 36.4196 2.78345 33.9965 2.78345 31.5C2.78345 15.6398 15.6398 2.78351 31.4999 2.78351C44.5832 2.78351 55.6239 11.5346 59.0816 23.5098L57.9001 24.6112C54.8496 12.8763 44.1894 4.20531 31.4999 4.20531C17.7625 4.20531 6.40137 14.3582 4.49896 27.5616L9.85242 32.4745L4.87944 37.5009C4.87944 37.5009 4.87944 37.5143 4.87944 37.521H4.88612Z" fill="url(#paint14_linear_84_167)"/>
<path d="M60.2098 31.5C60.2098 47.3535 47.3535 60.2098 31.5 60.2098C19.171 60.2098 8.65769 52.4399 4.59253 41.5394L5.68725 40.3312C9.35858 51.0648 19.5181 58.788 31.5 58.788C44.5099 58.788 55.3837 49.6831 58.1205 37.5009L53.1475 32.4746L59.7626 26.4069C60.0563 28.0623 60.2098 29.7645 60.2098 31.5Z" fill="url(#paint15_linear_84_167)"/>
<path d="M16.8945 32.5163L14.4023 30.0241L11.9102 32.5163L14.4023 35.0085L16.8945 32.5163Z" fill="url(#paint16_linear_84_167)"/>
<path d="M51.2224 32.514L48.7302 30.0218L46.238 32.514L48.7302 35.0061L51.2224 32.514Z" fill="url(#paint17_linear_84_167)"/>
</g>
</g>
<defs>
<linearGradient id="paint0_linear_84_167" x1="29.0303" y1="38.7158" x2="37.2073" y2="18.2698" gradientUnits="userSpaceOnUse">
<stop stop-color="#B63AE4"/>
<stop offset="1" stop-color="#23E0FF"/>
</linearGradient>
<linearGradient id="paint1_linear_84_167" x1="41.2525" y1="32.5079" x2="27.7219" y2="32.5079" gradientUnits="userSpaceOnUse">
<stop stop-color="#FFE496" stop-opacity="0"/>
<stop offset="0.94" stop-color="#EFEC53"/>
</linearGradient>
<linearGradient id="paint2_linear_84_167" x1="25.6726" y1="32.5079" x2="37.3474" y2="32.5079" gradientUnits="userSpaceOnUse">
<stop stop-color="#B63AE4"/>
<stop offset="1" stop-color="#23E0FF"/>
</linearGradient>
<linearGradient id="paint3_linear_84_167" x1="32.755" y1="-31.5467" x2="32.755" y2="131.707" gradientUnits="userSpaceOnUse">
<stop stop-color="#EB3C9C"/>
<stop offset="1" stop-color="#FFCD35"/>
</linearGradient>
<linearGradient id="paint4_linear_84_167" x1="30.6657" y1="-58.9615" x2="30.6657" y2="113.651" gradientUnits="userSpaceOnUse">
<stop stop-color="#EB3C9C"/>
<stop offset="1" stop-color="#FFCD35"/>
</linearGradient>
<linearGradient id="paint5_linear_84_167" x1="47.4869" y1="10.9272" x2="6.41472" y2="30.0047" gradientUnits="userSpaceOnUse">
<stop stop-color="#FFE496" stop-opacity="0"/>
<stop offset="0.94" stop-color="#EFEC53"/>
</linearGradient>
<linearGradient id="paint6_linear_84_167" x1="15.6933" y1="53.6615" x2="55.3103" y2="32.835" gradientUnits="userSpaceOnUse">
<stop stop-color="#FFE496" stop-opacity="0"/>
<stop offset="0.94" stop-color="#EFEC53"/>
</linearGradient>
<linearGradient id="paint7_linear_84_167" x1="14.4065" y1="34.9443" x2="14.4065" y2="30.4319" gradientUnits="userSpaceOnUse">
<stop stop-color="#B63AE4"/>
<stop offset="1" stop-color="#23E0FF"/>
</linearGradient>
<linearGradient id="paint8_linear_84_167" x1="48.7358" y1="34.9467" x2="48.7358" y2="30.4343" gradientUnits="userSpaceOnUse">
<stop stop-color="#B63AE4"/>
<stop offset="1" stop-color="#23E0FF"/>
</linearGradient>
<linearGradient id="paint9_linear_84_167" x1="29.0303" y1="38.7158" x2="37.2073" y2="18.2698" gradientUnits="userSpaceOnUse">
<stop stop-color="#B63AE4"/>
<stop offset="1" stop-color="#23E0FF"/>
</linearGradient>
<linearGradient id="paint10_linear_84_167" x1="41.2525" y1="32.5079" x2="27.7219" y2="32.5079" gradientUnits="userSpaceOnUse">
<stop stop-color="#FFE496" stop-opacity="0"/>
<stop offset="0.94" stop-color="#EFEC53"/>
</linearGradient>
<linearGradient id="paint11_linear_84_167" x1="25.6726" y1="32.5079" x2="37.3474" y2="32.5079" gradientUnits="userSpaceOnUse">
<stop stop-color="#B63AE4"/>
<stop offset="1" stop-color="#23E0FF"/>
</linearGradient>
<linearGradient id="paint12_linear_84_167" x1="32.755" y1="-31.5467" x2="32.755" y2="131.707" gradientUnits="userSpaceOnUse">
<stop stop-color="#EB3C9C"/>
<stop offset="1" stop-color="#FFCD35"/>
</linearGradient>
<linearGradient id="paint13_linear_84_167" x1="30.6657" y1="-58.9615" x2="30.6657" y2="113.651" gradientUnits="userSpaceOnUse">
<stop stop-color="#EB3C9C"/>
<stop offset="1" stop-color="#FFCD35"/>
</linearGradient>
<linearGradient id="paint14_linear_84_167" x1="47.4869" y1="10.9272" x2="6.41472" y2="30.0047" gradientUnits="userSpaceOnUse">
<stop stop-color="#FFE496" stop-opacity="0"/>
<stop offset="0.94" stop-color="#EFEC53"/>
</linearGradient>
<linearGradient id="paint15_linear_84_167" x1="15.6933" y1="53.6615" x2="55.3103" y2="32.835" gradientUnits="userSpaceOnUse">
<stop stop-color="#FFE496" stop-opacity="0"/>
<stop offset="0.94" stop-color="#EFEC53"/>
</linearGradient>
<linearGradient id="paint16_linear_84_167" x1="14.4065" y1="34.9443" x2="14.4065" y2="30.4319" gradientUnits="userSpaceOnUse">
<stop stop-color="#B63AE4"/>
<stop offset="1" stop-color="#23E0FF"/>
</linearGradient>
<linearGradient id="paint17_linear_84_167" x1="48.7358" y1="34.9467" x2="48.7358" y2="30.4343" gradientUnits="userSpaceOnUse">
<stop stop-color="#B63AE4"/>
<stop offset="1" stop-color="#23E0FF"/>
</linearGradient>
<clipPath id="clip0_84_167">
<rect width="63" height="63" fill="white"/>
</clipPath>
<clipPath id="clip1_84_167">
<rect width="63" height="63" fill="white"/>
</clipPath>
</defs>
</svg>
