<svg width="24" height="24" viewBox="0 0 24 24" fill="none" xmlns="http://www.w3.org/2000/svg">
<g clip-path="url(#standard)">
<path d="M13.5001 4.18001C13.2241 4.18001 13.0001 3.95601 13.0001 3.68001V2C13.0001 1.449 12.5511 1 12.0001 1C11.4491 1 11.0001 1.449 11.0001 2V3.68001C11.0001 3.95601 10.7761 4.18001 10.5001 4.18001C10.2241 4.18001 10.0001 3.95701 10.0001 3.68001V2C10.0001 0.897002 10.8971 0 12.0001 0C13.1031 0 14.0001 0.897002 14.0001 2V3.68001C14.0001 3.95701 13.7761 4.18001 13.5001 4.18001Z" fill="currentColor"/>
<path d="M12 24C10.07 24 8.5 22.43 8.5 20.5C8.5 20.224 8.724 20 9 20C9.276 20 9.5 20.224 9.5 20.5C9.5 21.878 10.622 23 12 23C13.378 23 14.5 21.878 14.5 20.5C14.5 20.224 14.724 20 15 20C15.276 20 15.5 20.224 15.5 20.5C15.5 22.43 13.93 24 12 24Z" fill="currentColor"/>
<path d="M20.5 20.9998H3.5C2.673 20.9998 2 20.3268 2 19.4998C2 19.0608 2.191 18.6458 2.525 18.3598C4.10101 17.0278 5.00001 15.0898 5.00001 13.0378V9.99977C5.00001 6.13976 8.14001 2.99976 12 2.99976C15.86 2.99976 19 6.13976 19 9.99977V13.0378C19 15.0908 19.899 17.0278 21.467 18.3528C21.809 18.6458 22 19.0608 22 19.4998C22 20.3268 21.328 20.9998 20.5 20.9998ZM12 3.99976C8.69102 3.99976 6.00001 6.69076 6.00001 9.99977V13.0378C6.00001 15.3858 4.97201 17.6008 3.179 19.1168C3.064 19.2148 3 19.3538 3 19.4998C3 19.7758 3.224 19.9998 3.5 19.9998H20.5C20.776 19.9998 21 19.7758 21 19.4998C21 19.3538 20.936 19.2148 20.825 19.1198C19.029 17.6008 18 15.3848 18 13.0378V9.99977C18 6.69076 15.309 3.99976 12 3.99976Z" fill="currentColor"/>
</g>
<defs>
<clipPath id="standard">
<rect width="24.0001" height="24.0001" fill="white"/>
</clipPath>
</defs>
</svg>
