<svg width="24" height="25" viewBox="0 0 24 25" fill="none" xmlns="http://www.w3.org/2000/svg">
<g clip-path="url(#clip0_235_55)">
<path fill-rule="evenodd" clip-rule="evenodd" d="M7.76252 1.34956C7.99453 1.54817 8.09046 1.87181 8.00627 2.1721C7.74684 3.09763 7.60746 4.07746 7.60746 5.09262C7.60746 10.8317 12.0694 15.4829 17.5719 15.4829C19.2257 15.4829 20.7834 15.0634 22.1545 14.3215C22.421 14.1773 22.7444 14.2126 22.9764 14.4112C23.2084 14.6098 23.3044 14.9335 23.2202 15.2338C21.8284 20.1991 17.4293 23.8281 12.2147 23.8281C5.88238 23.8281 0.750244 18.476 0.750244 11.8754C0.750244 7.25566 3.26418 3.24909 6.94063 1.25984C7.20711 1.11563 7.53051 1.15093 7.76252 1.34956ZM6.19689 3.59298C3.79813 5.49098 2.25024 8.495 2.25024 11.8754C2.25024 17.6145 6.71214 22.2656 12.2147 22.2656C16.144 22.2656 19.5439 19.8935 21.166 16.4461C20.035 16.835 18.8265 17.0454 17.5719 17.0454C11.2396 17.0454 6.10746 11.6932 6.10746 5.09262C6.10746 4.58496 6.13787 4.08441 6.19689 3.59298Z" fill="black"/>
</g>
<defs>
<clipPath id="clip0_235_55">
<rect width="24" height="25" fill="white"/>
</clipPath>
</defs>
</svg>
