<svg width="24" height="24" viewBox="0 0 24 24" fill="none" xmlns="http://www.w3.org/2000/svg">
<g clip-path="url(#standard)">
<path d="M16.2539 7.74653C15.1746 6.66716 13.6508 5.96875 12 5.96875C10.3492 5.96875 8.82535 6.63542 7.74598 7.74653C6.66662 8.8259 5.9682 10.3497 5.9682 12.0005C5.9682 13.6513 6.66662 15.1751 7.74598 16.2545C8.82535 17.3339 10.3492 18.0323 12 18.0323C13.6508 18.0323 15.1746 17.3656 16.2539 16.2545C17.3333 15.1751 18.0317 13.6513 18.0317 12.0005C18.0317 10.3497 17.3651 8.8259 16.2539 7.74653ZM15.1111 15.1116C14.3174 15.9053 13.2063 16.3815 12 16.3815C10.7936 16.3815 9.6825 15.9053 8.88884 15.1116C8.09519 14.318 7.619 13.2069 7.619 12.0005C7.619 10.7942 8.09519 9.68304 8.88884 8.88939C9.6825 8.09574 10.7936 7.61955 12 7.61955C13.2063 7.61955 14.3174 8.09574 15.1111 8.88939C15.9047 9.68304 16.3809 10.7942 16.3809 12.0005C16.3809 13.2069 15.9047 14.318 15.1111 15.1116Z" fill="currentColor"/>
<path d="M23.1746 11.1748H20.7302C20.2857 11.1748 19.9048 11.5558 19.9048 12.0002C19.9048 12.4446 20.2857 12.8256 20.7302 12.8256H23.1746C23.6191 12.8256 24 12.4446 24 12.0002C24 11.5558 23.6191 11.1748 23.1746 11.1748Z" fill="currentColor"/>
<path d="M12 19.905C11.5556 19.905 11.1746 20.286 11.1746 20.7304V23.1749C11.1746 23.6193 11.5556 24.0003 12 24.0003C12.4445 24.0003 12.8254 23.6193 12.8254 23.1749V20.7304C12.8254 20.286 12.4445 19.905 12 19.905Z" fill="currentColor"/>
<path d="M20.4762 19.3335L18.7302 17.5875C18.4445 17.27 17.9048 17.27 17.5873 17.5875C17.2699 17.9049 17.2699 18.4129 17.5873 18.7303L19.3334 20.4764C19.6508 20.7938 20.1588 20.7938 20.4762 20.4764C20.7937 20.1589 20.7937 19.651 20.4762 19.3335Z" fill="currentColor"/>
<path d="M12 0.000244141C11.5556 0.000244141 11.1746 0.381197 11.1746 0.825643V3.27009C11.1746 3.71454 11.5556 4.09549 12 4.09549C12.4445 4.09549 12.8254 3.71454 12.8254 3.27009V0.825643C12.8254 0.381197 12.4445 0.000244141 12 0.000244141Z" fill="currentColor"/>
<path d="M20.5079 3.52447C20.1905 3.20701 19.6825 3.20701 19.3651 3.52447L17.619 5.27051C17.3016 5.58797 17.3016 6.09591 17.619 6.41337C17.9047 6.73083 18.4444 6.73083 18.7619 6.41337L20.5079 4.66733C20.8254 4.34987 20.8254 3.84193 20.5079 3.52447Z" fill="currentColor"/>
<path d="M3.26979 11.1748H0.825338C0.380892 11.1748 -6.10352e-05 11.5558 -6.10352e-05 12.0002C-6.10352e-05 12.4446 0.349146 12.8256 0.825338 12.8256H3.26979C3.71423 12.8256 4.09519 12.4446 4.09519 12.0002C4.09519 11.5558 3.71423 11.1748 3.26979 11.1748Z" fill="currentColor"/>
<path d="M6.3809 17.5875C6.09518 17.27 5.5555 17.27 5.23804 17.5875L3.492 19.3335C3.17454 19.651 3.17454 20.1589 3.492 20.4764C3.80946 20.7938 4.3174 20.7938 4.63486 20.4764L6.3809 18.7303C6.69836 18.4129 6.69836 17.9049 6.3809 17.5875Z" fill="currentColor"/>
<path d="M6.3809 5.27051L4.63486 3.52447C4.3174 3.20701 3.80946 3.20701 3.492 3.52447C3.17454 3.84193 3.17454 4.34987 3.492 4.66733L5.23804 6.41337C5.5555 6.73083 6.06344 6.73083 6.3809 6.41337C6.69836 6.09591 6.69836 5.58797 6.3809 5.27051Z" fill="currentColor"/>
</g>
<defs>
<clipPath id="standard">
<rect width="24.0001" height="24.0001" fill="white"/>
</clipPath>
</defs>
</svg>
