<svg width="1920" height="408" viewBox="0 0 1920 408" fill="none" xmlns="http://www.w3.org/2000/svg">
<rect width="2085.48" height="184" transform="translate(-67 225.045) rotate(-6.19486)" fill="url(#paint0_linear_22_2906)"/>
<path d="M-44.3426 364.414L-48.3192 364.845L-47.8876 368.822L-43.9109 368.39L-44.3426 364.414ZM-55.0159 266.082L-55.4475 262.105L-59.4242 262.537L-58.9925 266.514L-55.0159 266.082ZM-31.2492 263.502L-27.2726 263.071L-27.7042 259.094L-31.6809 259.526L-31.2492 263.502ZM-22.671 342.532L-26.6476 342.964L-26.216 346.941L-22.2393 346.509L-22.671 342.532ZM18.2365 338.092L22.2131 337.66L21.7815 333.684L17.8048 334.115L18.2365 338.092ZM20.3315 357.394L20.7632 361.37L24.7398 360.939L24.3082 356.962L20.3315 357.394ZM-40.3659 363.982L-51.0392 265.65L-58.9925 266.514L-48.3192 364.845L-40.3659 363.982ZM-54.5842 270.059L-30.8176 267.479L-31.6809 259.526L-55.4475 262.105L-54.5842 270.059ZM-35.2259 263.934L-26.6476 342.964L-18.6943 342.101L-27.2726 263.071L-35.2259 263.934ZM-22.2393 346.509L18.6681 342.069L17.8048 334.115L-23.1026 338.556L-22.2393 346.509ZM14.2598 338.524L16.3549 357.825L24.3082 356.962L22.2131 337.66L14.2598 338.524ZM19.8999 353.417L-44.7742 360.437L-43.9109 368.39L20.7632 361.37L19.8999 353.417ZM41.6721 255.587L45.6488 255.155L45.2171 251.179L41.2405 251.61L41.6721 255.587ZM52.3454 353.919L52.7771 357.895L56.7537 357.464L56.3221 353.487L52.3454 353.919ZM28.5788 356.498L24.6022 356.93L25.0338 360.907L29.0104 360.475L28.5788 356.498ZM17.9055 258.167L17.4739 254.19L13.4972 254.622L13.9288 258.598L17.9055 258.167ZM37.6955 256.019L48.3688 354.35L56.3221 353.487L45.6488 255.155L37.6955 256.019ZM51.9138 349.942L28.1472 352.522L29.0104 360.475L52.7771 357.895L51.9138 349.942ZM32.5554 356.067L21.8821 257.735L13.9288 258.598L24.6022 356.93L32.5554 356.067ZM18.3371 262.143L42.1038 259.564L41.2405 251.61L17.4739 254.19L18.3371 262.143ZM74.8624 251.984L78.5397 250.41L77.3744 247.688L74.4307 248.008L74.8624 251.984ZM104.67 321.618L100.993 323.192L102.158 325.914L105.102 325.594L104.67 321.618ZM105.486 321.529L105.918 325.506L108.861 325.186L109.415 322.278L105.486 321.529ZM119.659 247.122L119.227 243.145L116.284 243.465L115.73 246.374L119.659 247.122ZM146.258 244.235L150.164 245.097L151.365 239.657L145.827 240.258L146.258 244.235ZM123.754 346.168L124.186 350.144L127.041 349.834L127.66 347.03L123.754 346.168ZM92.1135 349.602L88.4836 351.282L89.69 353.889L92.5452 353.579L92.1135 349.602ZM48.2629 254.872L47.8313 250.895L42.2927 251.496L44.633 256.552L48.2629 254.872ZM71.1851 253.559L100.993 323.192L108.347 320.044L78.5397 250.41L71.1851 253.559ZM105.102 325.594L105.918 325.506L105.055 317.552L104.238 317.641L105.102 325.594ZM109.415 322.278L123.588 247.871L115.73 246.374L101.557 320.781L109.415 322.278ZM120.091 251.099L146.69 248.212L145.827 240.258L119.227 243.145L120.091 251.099ZM142.352 243.373L119.848 345.305L127.66 347.03L150.164 245.097L142.352 243.373ZM123.323 342.191L91.6819 345.625L92.5452 353.579L124.186 350.144L123.323 342.191ZM95.7435 347.922L51.8929 253.191L44.633 256.552L88.4836 351.282L95.7435 347.922ZM48.6946 258.848L75.294 255.961L74.4307 248.008L47.8313 250.895L48.6946 258.848ZM163.462 341.858L159.486 342.289L159.917 346.266L163.894 345.834L163.462 341.858ZM152.789 243.526L152.358 239.549L148.381 239.981L148.813 243.958L152.789 243.526ZM221.352 236.084L225.329 235.652L224.897 231.676L220.921 232.107L221.352 236.084ZM223.447 255.385L223.879 259.362L227.856 258.93L227.424 254.954L223.447 255.385ZM178.651 260.248L178.219 256.271L174.243 256.703L174.674 260.679L178.651 260.248ZM180.84 280.413L176.863 280.845L177.295 284.822L181.271 284.39L180.84 280.413ZM222.131 275.931L226.108 275.5L225.676 271.523L221.7 271.955L222.131 275.931ZM224.232 295.281L224.663 299.257L228.64 298.826L228.208 294.849L224.232 295.281ZM182.94 299.763L182.508 295.786L178.532 296.218L178.963 300.194L182.94 299.763ZM185.134 319.976L181.157 320.408L181.589 324.385L185.566 323.953L185.134 319.976ZM229.931 315.114L233.907 314.682L233.476 310.706L229.499 311.137L229.931 315.114ZM232.026 334.415L232.457 338.392L236.434 337.96L236.002 333.984L232.026 334.415ZM167.439 341.426L156.766 243.094L148.813 243.958L159.486 342.289L167.439 341.426ZM153.221 247.503L221.784 240.061L220.921 232.107L152.358 239.549L153.221 247.503ZM217.376 236.515L219.471 255.817L227.424 254.954L225.329 235.652L217.376 236.515ZM223.016 251.409L178.219 256.271L179.083 264.224L223.879 259.362L223.016 251.409ZM174.674 260.679L176.863 280.845L184.816 279.982L182.628 259.816L174.674 260.679ZM181.271 284.39L222.563 279.908L221.7 271.955L180.408 276.437L181.271 284.39ZM218.155 276.363L220.255 295.712L228.208 294.849L226.108 275.5L218.155 276.363ZM223.8 291.304L182.508 295.786L183.372 303.739L224.663 299.257L223.8 291.304ZM178.963 300.194L181.157 320.408L189.111 319.545L186.917 299.331L178.963 300.194ZM185.566 323.953L230.362 319.091L229.499 311.137L184.702 316L185.566 323.953ZM225.954 315.546L228.049 334.847L236.002 333.984L233.907 314.682L225.954 315.546ZM231.594 330.439L163.031 337.881L163.894 345.834L232.457 338.392L231.594 330.439ZM289.116 328.219L289.547 332.195L292.469 331.878L293.039 328.996L289.116 328.219ZM263.572 330.991L259.666 330.129L258.465 335.569L264.004 334.968L263.572 330.991ZM286.076 229.058L285.645 225.082L282.79 225.392L282.17 228.196L286.076 229.058ZM317.717 225.624L321.347 223.944L320.141 221.337L317.286 221.647L317.717 225.624ZM361.568 320.354L361.999 324.331L367.538 323.73L365.198 318.674L361.568 320.354ZM336.025 323.127L332.36 324.73L333.537 327.42L336.456 327.104L336.025 323.127ZM304.946 252.077L308.611 250.474L307.434 247.784L304.514 248.1L304.946 252.077ZM304.178 252.16L303.746 248.184L300.825 248.501L300.254 251.383L304.178 252.16ZM281.506 289.89L281.074 285.913L277.098 286.345L277.529 290.321L281.506 289.89ZM334.897 284.095L338.874 283.663L338.442 279.686L334.465 280.118L334.897 284.095ZM336.857 302.148L337.288 306.124L341.265 305.693L340.833 301.716L336.857 302.148ZM283.466 307.943L279.489 308.375L279.921 312.351L283.897 311.92L283.466 307.943ZM288.684 324.242L263.141 327.015L264.004 334.968L289.547 332.195L288.684 324.242ZM267.478 331.854L289.982 229.921L282.17 228.196L259.666 330.129L267.478 331.854ZM286.508 233.035L318.149 229.601L317.286 221.647L285.645 225.082L286.508 233.035ZM314.087 227.304L357.938 322.035L365.198 318.674L321.347 223.944L314.087 227.304ZM361.136 316.378L335.593 319.15L336.456 327.104L361.999 324.331L361.136 316.378ZM339.689 321.524L308.611 250.474L301.281 253.68L332.36 324.73L339.689 321.524ZM304.514 248.1L303.746 248.184L304.61 256.137L305.378 256.054L304.514 248.1ZM300.254 251.383L285.192 327.442L293.039 328.996L308.102 252.938L300.254 251.383ZM281.938 293.866L335.329 288.071L334.465 280.118L281.074 285.913L281.938 293.866ZM330.92 284.526L332.88 302.579L340.833 301.716L338.874 283.663L330.92 284.526ZM336.425 298.171L283.034 303.966L283.897 311.92L337.288 306.124L336.425 298.171ZM287.442 307.511L285.483 289.458L277.529 290.321L279.489 308.375L287.442 307.511ZM416.914 214.857L416.482 210.88L412.506 211.312L412.937 215.288L416.914 214.857ZM440.633 212.282L444.609 211.851L444.178 207.874L440.201 208.306L440.633 212.282ZM444.363 295.433L447.939 297.226L447.944 297.217L444.363 295.433ZM431.132 309.597L433.22 313.01L433.227 313.005L433.234 313.001L431.132 309.597ZM387.488 314.335L386.166 318.11L386.174 318.113L386.182 318.115L387.488 314.335ZM371.575 303.334L368.45 305.831L368.456 305.839L371.575 303.334ZM357.425 221.314L356.994 217.337L353.017 217.769L353.449 221.746L357.425 221.314ZM381.192 218.734L385.169 218.303L384.737 214.326L380.76 214.758L381.192 218.734ZM391.046 288.93L387.777 291.235L387.788 291.25L387.798 291.265L391.046 288.93ZM398.013 294.489L399.578 290.808L398.013 294.489ZM416.69 292.462L414.372 289.202L414.364 289.208L414.355 289.214L416.69 292.462ZM417.346 218.833L441.064 216.259L440.201 208.306L416.482 210.88L417.346 218.833ZM436.656 212.714L443.54 276.14L451.494 275.276L444.609 211.851L436.656 212.714ZM443.54 276.14C444.265 282.814 443.295 288.604 440.782 293.65L447.944 297.217C451.227 290.623 452.361 283.263 451.494 275.276L443.54 276.14ZM440.787 293.641C438.243 298.716 434.367 302.899 429.031 306.194L433.234 313.001C439.735 308.987 444.68 303.727 447.939 297.226L440.787 293.641ZM429.045 306.185C423.716 309.445 417.216 311.554 409.43 312.399L410.293 320.352C419.025 319.404 426.705 316.994 433.22 313.01L429.045 306.185ZM409.43 312.399C401.541 313.255 394.693 312.592 388.795 310.554L386.182 318.115C393.406 320.612 401.474 321.309 410.293 320.352L409.43 312.399ZM388.81 310.559C382.895 308.487 378.233 305.235 374.693 300.829L368.456 305.839C373.005 311.502 378.952 315.583 386.166 318.11L388.81 310.559ZM374.7 300.837C371.189 296.443 369.012 290.989 368.286 284.308L360.333 285.171C361.199 293.15 363.865 300.093 368.45 305.831L374.7 300.837ZM368.286 284.308L361.402 220.882L353.449 221.746L360.333 285.171L368.286 284.308ZM357.857 225.291L381.624 222.711L380.76 214.758L356.994 217.337L357.857 225.291ZM377.215 219.166L383.876 280.527L391.829 279.664L385.169 218.303L377.215 219.166ZM383.876 280.527C384.309 284.514 385.581 288.122 387.777 291.235L394.315 286.625C392.989 284.745 392.133 282.463 391.829 279.664L383.876 280.527ZM387.798 291.265C390.022 294.359 392.929 296.674 396.448 298.17L399.578 290.808C397.393 289.879 395.655 288.489 394.294 286.595L387.798 291.265ZM396.448 298.17C400.02 299.689 403.925 300.154 408.052 299.706L407.189 291.753C404.211 292.076 401.71 291.715 399.578 290.808L396.448 298.17ZM408.052 299.706C412.179 299.258 415.885 297.967 419.026 295.71L414.355 289.214C412.509 290.542 410.169 291.43 407.189 291.753L408.052 299.706ZM419.009 295.722C422.125 293.505 424.467 290.62 425.976 287.121L418.63 283.954C417.706 286.095 416.307 287.826 414.372 289.202L419.009 295.722ZM425.976 287.121C427.495 283.598 427.985 279.788 427.551 275.786L419.598 276.65C419.9 279.434 419.543 281.836 418.63 283.954L425.976 287.121ZM427.551 275.786L420.891 214.425L412.937 215.288L419.598 276.65L427.551 275.786ZM544.597 237.043L545.028 241.02L549.413 240.544L548.512 236.227L544.597 237.043ZM520.59 239.649L516.702 240.589L517.528 244.005L521.022 243.626L520.59 239.649ZM517.897 233.189L514.533 235.353L514.533 235.353L517.897 233.189ZM513.407 228.527L515.678 225.234L515.678 225.234L513.407 228.527ZM507.249 225.941L506.35 229.838L506.384 229.846L506.417 229.853L507.249 225.941ZM487.818 230.43L485.234 227.377L485.227 227.383L485.221 227.388L487.818 230.43ZM480.996 241.421L477.163 240.278L477.159 240.29L477.156 240.302L480.996 241.421ZM484.567 273.873L481.068 275.811L481.077 275.827L481.085 275.842L484.567 273.873ZM493.568 282.951L491.737 286.508L491.756 286.518L491.776 286.527L493.568 282.951ZM513.119 283.161L511.534 279.489L511.526 279.492L511.518 279.496L513.119 283.161ZM518.515 279.612L521.309 282.475L521.316 282.468L518.515 279.612ZM522.08 274.416L518.419 272.804L518.415 272.814L518.411 272.824L522.08 274.416ZM523.644 267.785L523.236 263.806L519.875 264.15L519.652 267.522L523.644 267.785ZM547.666 265.323L551.666 265.272L551.61 260.898L547.258 261.344L547.666 265.323ZM545.27 278.603L541.52 277.21L541.516 277.222L541.512 277.233L545.27 278.603ZM537.931 291.107L540.98 293.697L540.986 293.69L540.992 293.683L537.931 291.107ZM525.48 300.814L523.632 297.266L523.625 297.27L525.48 300.814ZM483.31 302.574L481.739 306.252L481.749 306.256L481.759 306.261L483.31 302.574ZM464.832 287.188L468.125 284.918L464.832 287.188ZM458.96 232.202L455.267 230.667L458.96 232.202ZM513.679 205.519L512.846 209.432L512.857 209.434L512.868 209.436L513.679 205.519ZM527.809 211.273L525.611 214.615L525.619 214.62L525.628 214.626L527.809 211.273ZM544.165 233.067L520.158 235.672L521.022 243.626L545.028 241.02L544.165 233.067ZM524.478 238.709C523.798 235.896 522.738 233.32 521.261 231.024L514.533 235.353C515.472 236.812 516.207 238.542 516.702 240.589L524.478 238.709ZM521.261 231.024C519.775 228.716 517.912 226.774 515.678 225.234L511.137 231.82C512.474 232.742 513.603 233.908 514.533 235.353L521.261 231.024ZM515.678 225.234C513.419 223.676 510.868 222.62 508.08 222.028L506.417 229.853C508.271 230.247 509.825 230.915 511.137 231.82L515.678 225.234ZM508.147 222.043C505.36 221.4 502.414 221.276 499.346 221.609L500.209 229.562C502.519 229.312 504.554 229.424 506.35 229.838L508.147 222.043ZM499.346 221.609C493.9 222.2 489.131 224.078 485.234 227.377L490.403 233.483C492.913 231.358 496.116 230.006 500.209 229.562L499.346 221.609ZM485.221 227.388C481.376 230.672 478.725 235.038 477.163 240.278L484.829 242.564C486.021 238.566 487.918 235.605 490.416 233.472L485.221 227.388ZM477.156 240.302C475.626 245.55 475.302 251.546 476.023 258.186L483.976 257.323C483.335 251.415 483.676 246.522 484.836 242.54L477.156 240.302ZM476.023 258.186C476.77 265.065 478.399 270.994 481.068 275.811L488.066 271.934C486.063 268.32 484.647 263.503 483.976 257.323L476.023 258.186ZM481.085 275.842C483.765 280.58 487.294 284.22 491.737 286.508L495.399 279.395C492.57 277.938 490.097 275.526 488.049 271.903L481.085 275.842ZM491.776 286.527C496.224 288.757 501.184 289.5 506.507 288.922L505.643 280.969C501.619 281.406 498.241 280.819 495.36 279.375L491.776 286.527ZM506.507 288.922C509.469 288.601 512.221 287.919 514.721 286.827L511.518 279.496C509.875 280.213 507.931 280.721 505.643 280.969L506.507 288.922ZM514.705 286.833C517.214 285.75 519.433 284.306 521.309 282.475L515.721 276.749C514.61 277.834 513.233 278.755 511.534 279.489L514.705 286.833ZM521.316 282.468C523.21 280.61 524.692 278.448 525.75 276.007L518.411 272.824C517.759 274.326 516.865 275.628 515.714 276.757L521.316 282.468ZM525.741 276.027C526.831 273.552 527.449 270.879 527.635 268.048L519.652 267.522C519.521 269.518 519.096 271.266 518.419 272.804L525.741 276.027ZM524.052 271.764L548.074 269.302L547.258 261.344L523.236 263.806L524.052 271.764ZM543.667 265.375C543.716 269.242 543.016 273.18 541.52 277.21L549.02 279.995C550.831 275.116 551.729 270.201 551.666 265.272L543.667 265.375ZM541.512 277.233C540.061 281.213 537.862 284.978 534.871 288.531L540.992 293.683C544.542 289.465 547.235 284.894 549.028 279.972L541.512 277.233ZM534.883 288.517C531.982 291.931 528.257 294.858 523.632 297.266L527.328 304.361C532.758 301.533 537.333 297.988 540.98 293.697L534.883 288.517ZM523.625 297.27C519.154 299.611 513.781 301.169 507.425 301.859L508.288 309.812C515.44 309.036 521.816 307.247 527.335 304.358L523.625 297.27ZM507.425 301.859C499.129 302.76 491.637 301.737 484.861 298.886L481.759 306.261C489.914 309.691 498.787 310.844 508.288 309.812L507.425 301.859ZM484.881 298.895C478.184 296.035 472.606 291.417 468.125 284.918L461.539 289.458C466.821 297.121 473.561 302.76 481.739 306.252L484.881 298.895ZM468.125 284.918C463.706 278.508 460.847 270.251 459.73 259.954L451.776 260.818C453.001 272.096 456.194 281.706 461.539 289.458L468.125 284.918ZM459.73 259.954C458.609 249.633 459.659 240.945 462.654 233.737L455.267 230.667C451.637 239.4 450.548 249.501 451.776 260.818L459.73 259.954ZM462.654 233.737C465.697 226.416 470.202 220.716 476.163 216.511L471.551 209.974C464.275 215.108 458.849 222.047 455.267 230.667L462.654 233.737ZM476.163 216.511C482.18 212.266 489.2 209.674 497.323 208.792L496.46 200.839C487.106 201.854 478.77 204.88 471.551 209.974L476.163 216.511ZM497.323 208.792C502.904 208.186 508.069 208.414 512.846 209.432L514.512 201.607C508.813 200.393 502.786 200.152 496.46 200.839L497.323 208.792ZM512.868 209.436C517.642 210.425 521.875 212.158 525.611 214.615L530.006 207.93C525.372 204.883 520.185 202.781 514.49 201.602L512.868 209.436ZM525.628 214.626C529.338 217.039 532.496 220.168 535.106 224.057L541.748 219.598C538.563 214.853 534.642 210.946 529.99 207.92L525.628 214.626ZM535.106 224.057C537.678 227.888 539.556 232.465 540.681 237.86L548.512 236.227C547.207 229.967 544.972 224.401 541.748 219.598L535.106 224.057ZM574.04 197.802L578.017 197.37L577.585 193.393L573.608 193.825L574.04 197.802ZM584.713 296.133L585.145 300.11L589.121 299.678L588.69 295.702L584.713 296.133ZM560.947 298.713L556.97 299.145L557.402 303.121L561.378 302.69L560.947 298.713ZM550.273 200.381L549.842 196.405L545.865 196.836L546.297 200.813L550.273 200.381ZM570.063 198.233L580.737 296.565L588.69 295.702L578.017 197.37L570.063 198.233ZM584.282 292.157L560.515 294.736L561.378 302.69L585.145 300.11L584.282 292.157ZM564.923 298.281L554.25 199.95L546.297 200.813L556.97 299.145L564.923 298.281ZM550.705 204.358L574.472 201.778L573.608 193.825L549.842 196.405L550.705 204.358ZM583.782 216.273L579.805 216.705L580.237 220.681L584.214 220.25L583.782 216.273ZM581.687 196.972L581.255 192.995L577.279 193.427L577.71 197.403L581.687 196.972ZM664.798 187.95L668.775 187.519L668.343 183.542L664.367 183.974L664.798 187.95ZM666.893 207.252L667.325 211.228L671.302 210.797L670.87 206.82L666.893 207.252ZM637.077 210.488L636.645 206.512L632.669 206.943L633.1 210.92L637.077 210.488ZM645.655 289.518L646.087 293.495L650.064 293.063L649.632 289.087L645.655 289.518ZM622.225 292.062L618.248 292.493L618.68 296.47L622.656 296.038L622.225 292.062ZM613.646 213.031L617.623 212.6L617.191 208.623L613.215 209.055L613.646 213.031ZM587.759 215.841L585.664 196.54L577.71 197.403L579.805 216.705L587.759 215.841ZM582.119 200.948L665.23 191.927L664.367 183.974L581.255 192.995L582.119 200.948ZM660.822 188.382L662.917 207.683L670.87 206.82L668.775 187.519L660.822 188.382ZM666.462 203.275L636.645 206.512L637.509 214.465L667.325 211.228L666.462 203.275ZM633.1 210.92L641.679 289.95L649.632 289.087L641.054 210.057L633.1 210.92ZM645.224 285.542L621.793 288.085L622.656 296.038L646.087 293.495L645.224 285.542ZM626.201 291.63L617.623 212.6L609.67 213.463L618.248 292.493L626.201 291.63ZM613.215 209.055L583.35 212.296L584.214 220.25L614.078 217.008L613.215 209.055ZM696.116 184.551L700.093 184.119L699.661 180.143L695.684 180.574L696.116 184.551ZM706.789 282.883L707.221 286.859L711.198 286.428L710.766 282.451L706.789 282.883ZM683.023 285.462L679.046 285.894L679.478 289.871L683.454 289.439L683.023 285.462ZM672.349 187.131L671.918 183.154L667.941 183.586L668.373 187.562L672.349 187.131ZM692.139 184.983L702.813 283.314L710.766 282.451L700.093 184.119L692.139 184.983ZM706.358 278.906L682.591 281.486L683.454 289.439L707.221 286.859L706.358 278.906ZM686.999 285.031L676.326 186.699L668.373 187.562L679.046 285.894L686.999 285.031ZM672.781 191.107L696.548 188.528L695.684 180.574L671.918 183.154L672.781 191.107ZM801.871 250.653L798.182 249.106L798.182 249.106L801.871 250.653ZM786.831 269.628L784.537 266.351L784.531 266.355L786.831 269.628ZM739.148 274.755L740.705 271.071L739.148 274.755ZM720.435 259.444L717.157 261.736L717.163 261.744L717.169 261.752L720.435 259.444ZM714.468 204.468L710.779 202.921L710.774 202.933L714.468 204.468ZM729.46 185.498L731.76 188.771L729.46 185.498ZM777.137 180.323L775.593 184.013L775.6 184.016L777.137 180.323ZM795.899 195.629L792.628 197.932L795.899 195.629ZM776.334 209.169L772.811 211.064L772.817 211.075L772.823 211.086L776.334 209.169ZM767.466 199.979L765.596 203.515L765.604 203.519L765.612 203.523L767.466 199.979ZM743.171 202.616L745.743 205.679L743.171 202.616ZM736.434 213.5L732.594 212.381L732.591 212.393L732.587 212.405L736.434 213.5ZM739.957 245.957L736.435 247.852L736.441 247.863L736.447 247.874L739.957 245.957ZM748.873 255.142L750.727 251.598L748.873 255.142ZM773.168 252.505L770.596 249.442L770.589 249.447L770.583 249.453L773.168 252.505ZM779.857 241.626L776.016 240.507L776.013 240.519L776.009 240.531L779.857 241.626ZM801.15 222.895C802.27 233.212 801.206 241.898 798.182 249.106L805.56 252.2C809.226 243.46 810.332 233.353 809.103 222.032L801.15 222.895ZM798.182 249.106C795.112 256.426 790.563 262.134 784.537 266.351L789.124 272.905C796.464 267.769 801.941 260.827 805.56 252.2L798.182 249.106ZM784.531 266.355C778.483 270.605 771.412 273.205 763.22 274.094L764.084 282.047C773.497 281.026 781.879 277.997 789.131 272.901L784.531 266.355ZM763.22 274.094C754.999 274.986 747.523 273.951 740.705 271.071L737.592 278.44C745.776 281.898 754.636 283.073 764.084 282.047L763.22 274.094ZM740.705 271.071C733.932 268.209 728.272 263.602 723.702 257.135L717.169 261.752C722.547 269.363 729.362 274.963 737.592 278.44L740.705 271.071ZM723.713 257.152C719.24 250.754 716.354 242.508 715.237 232.221L707.284 233.084C708.509 244.371 711.739 253.986 717.157 261.736L723.713 257.152ZM715.237 232.221C714.117 221.899 715.166 213.211 718.162 206.003L710.774 202.933C707.144 211.666 706.055 221.767 707.284 233.084L715.237 232.221ZM718.157 206.016C721.229 198.69 725.766 192.983 731.76 188.771L727.16 182.225C719.854 187.359 714.396 194.299 710.779 202.921L718.157 206.016ZM731.76 188.771C737.806 184.522 744.892 181.92 753.119 181.027L752.255 173.074C742.813 174.099 734.414 177.128 727.16 182.225L731.76 188.771ZM753.119 181.027C761.31 180.138 768.774 181.16 775.593 184.013L778.681 176.633C770.505 173.212 761.668 172.052 752.255 173.074L753.119 181.027ZM775.6 184.016C782.39 186.842 788.058 191.441 792.628 197.932L799.169 193.327C793.784 185.677 786.945 180.072 778.674 176.63L775.6 184.016ZM792.628 197.932C797.127 204.323 800.03 212.579 801.15 222.895L809.103 222.032C807.874 210.711 804.625 201.077 799.169 193.327L792.628 197.932ZM784.808 224.669C784.075 217.913 782.469 212.059 779.844 207.252L772.823 211.086C774.806 214.718 776.199 219.485 776.855 225.532L784.808 224.669ZM779.856 207.274C777.27 202.468 773.781 198.768 769.321 196.435L765.612 203.523C768.431 204.998 770.853 207.425 772.811 211.064L779.856 207.274ZM769.336 196.443C764.91 194.102 759.912 193.326 754.517 193.912L755.38 201.865C759.46 201.422 762.807 202.04 765.596 203.515L769.336 196.443ZM754.517 193.912C749.147 194.495 744.442 196.327 740.6 199.552L745.743 205.679C748.194 203.622 751.34 202.303 755.38 201.865L754.517 193.912ZM740.6 199.552C736.75 202.783 734.122 207.139 732.594 212.381L740.275 214.619C741.437 210.631 743.3 207.73 745.743 205.679L740.6 199.552ZM732.587 212.405C731.094 217.651 730.798 223.703 731.53 230.452L739.484 229.589C738.827 223.534 739.149 218.573 740.281 214.595L732.587 212.405ZM731.53 230.452C732.263 237.201 733.851 243.049 736.435 247.852L743.48 244.062C741.52 240.42 740.141 235.644 739.484 229.589L731.53 230.452ZM736.447 247.874C739.064 252.667 742.565 256.357 747.018 258.687L750.727 251.598C747.901 250.12 745.459 247.686 743.468 244.04L736.447 247.874ZM747.018 258.687C751.463 261.012 756.452 261.792 761.822 261.21L760.959 253.256C756.918 253.695 753.562 253.082 750.727 251.598L747.018 258.687ZM761.822 261.21C767.217 260.624 771.932 258.793 775.753 255.558L770.583 249.453C768.175 251.492 765.038 252.813 760.959 253.256L761.822 261.21ZM775.739 255.569C779.595 252.333 782.209 247.97 783.704 242.722L776.009 240.531C774.878 244.506 773.033 247.396 770.596 249.442L775.739 255.569ZM783.697 242.745C785.229 237.488 785.542 231.425 784.808 224.669L776.855 225.532C777.512 231.58 777.174 236.534 776.016 240.507L783.697 242.745ZM893.297 163.148L897.274 162.717L896.842 158.74L892.865 159.172L893.297 163.148ZM903.97 261.48L904.402 265.456L908.379 265.025L907.947 261.048L903.97 261.48ZM883.805 263.669L880.776 266.281L882.148 267.872L884.236 267.645L883.805 263.669ZM838.514 211.164L841.543 208.551L840.17 206.961L838.082 207.188L838.514 211.164ZM837.89 211.232L837.458 207.255L833.481 207.687L833.913 211.664L837.89 211.232ZM844.05 267.984L844.481 271.96L848.458 271.529L848.026 267.552L844.05 267.984ZM820.283 270.564L816.306 270.995L816.738 274.972L820.715 274.54L820.283 270.564ZM809.61 172.232L809.178 168.255L805.201 168.687L805.633 172.664L809.61 172.232ZM830.063 170.012L833.104 167.413L831.731 165.807L829.632 166.035L830.063 170.012ZM874.912 222.467L871.872 225.067L873.244 226.672L875.343 226.444L874.912 222.467ZM875.728 222.379L876.16 226.355L880.136 225.924L879.705 221.947L875.728 222.379ZM869.578 165.723L869.147 161.746L865.17 162.178L865.602 166.154L869.578 165.723ZM889.32 163.58L899.994 261.911L907.947 261.048L897.274 162.717L889.32 163.58ZM903.539 257.503L883.373 259.692L884.236 267.645L904.402 265.456L903.539 257.503ZM886.834 261.056L841.543 208.551L835.485 213.777L880.776 266.281L886.834 261.056ZM838.082 207.188L837.458 207.255L838.321 215.209L838.945 215.141L838.082 207.188ZM833.913 211.664L840.073 268.415L848.026 267.552L841.866 210.8L833.913 211.664ZM843.618 264.007L819.851 266.587L820.715 274.54L844.481 271.96L843.618 264.007ZM824.26 270.132L813.586 171.8L805.633 172.664L816.306 270.995L824.26 270.132ZM810.041 176.209L830.495 173.989L829.632 166.035L809.178 168.255L810.041 176.209ZM827.023 172.611L871.872 225.067L877.952 219.868L833.104 167.413L827.023 172.611ZM875.343 226.444L876.16 226.355L875.296 218.402L874.48 218.491L875.343 226.444ZM879.705 221.947L873.555 165.291L865.602 166.154L871.751 222.81L879.705 221.947ZM870.01 169.699L893.729 167.125L892.865 159.172L869.147 161.746L870.01 169.699Z" fill="white"/>
<path d="M983.25 194.979L983.429 195.257L983.755 195.202L1016.64 189.614L988.584 207.657L988.307 207.836L988.362 208.161L993.949 241.045L975.907 212.991L975.728 212.713L975.402 212.768L942.519 218.356L970.573 200.313L970.851 200.135L970.795 199.809L965.208 166.925L983.25 194.979Z" fill="white" stroke="white"/>
<path d="M1065.62 243.934L1061.64 244.366L1062.07 248.342L1066.05 247.911L1065.62 243.934ZM1054.94 145.602L1054.51 141.626L1050.54 142.057L1050.97 146.034L1054.94 145.602ZM1078.71 143.023L1082.69 142.591L1082.26 138.614L1078.28 139.046L1078.71 143.023ZM1087.29 222.053L1083.31 222.484L1083.74 226.461L1087.72 226.029L1087.29 222.053ZM1128.2 217.613L1132.17 217.181L1131.74 213.204L1127.76 213.636L1128.2 217.613ZM1130.29 236.914L1130.72 240.891L1134.7 240.459L1134.27 236.482L1130.29 236.914ZM1069.59 243.502L1058.92 145.171L1050.97 146.034L1061.64 244.366L1069.59 243.502ZM1055.38 149.579L1079.14 146.999L1078.28 139.046L1054.51 141.626L1055.38 149.579ZM1074.73 143.454L1083.31 222.484L1091.27 221.621L1082.69 142.591L1074.73 143.454ZM1087.72 226.029L1128.63 221.589L1127.76 213.636L1086.86 218.076L1087.72 226.029ZM1124.22 218.044L1126.31 237.346L1134.27 236.482L1132.17 217.181L1124.22 218.044ZM1129.86 232.937L1065.19 239.957L1066.05 247.911L1130.72 240.891L1129.86 232.937ZM1151.63 135.107L1155.61 134.676L1155.18 130.699L1151.2 131.131L1151.63 135.107ZM1162.31 233.439L1162.74 237.416L1166.71 236.984L1166.28 233.007L1162.31 233.439ZM1138.54 236.019L1134.56 236.45L1134.99 240.427L1138.97 239.995L1138.54 236.019ZM1127.87 137.687L1127.43 133.711L1123.46 134.142L1123.89 138.119L1127.87 137.687ZM1147.66 135.539L1158.33 233.871L1166.28 233.007L1155.61 134.676L1147.66 135.539ZM1161.87 229.462L1138.11 232.042L1138.97 239.995L1162.74 237.416L1161.87 229.462ZM1142.52 235.587L1131.84 137.256L1123.89 138.119L1134.56 236.45L1142.52 235.587ZM1128.3 141.664L1152.06 139.084L1151.2 131.131L1127.43 133.711L1128.3 141.664ZM1184.82 131.505L1188.5 129.931L1187.33 127.209L1184.39 127.528L1184.82 131.505ZM1214.63 201.138L1210.95 202.712L1212.12 205.434L1215.06 205.115L1214.63 201.138ZM1215.45 201.05L1215.88 205.026L1218.82 204.707L1219.38 201.798L1215.45 201.05ZM1229.62 126.642L1229.19 122.666L1226.24 122.985L1225.69 125.894L1229.62 126.642ZM1256.22 123.755L1260.12 124.618L1261.33 119.177L1255.79 119.779L1256.22 123.755ZM1233.71 225.688L1234.15 229.665L1237 229.355L1237.62 226.55L1233.71 225.688ZM1202.07 229.122L1198.44 230.803L1199.65 233.409L1202.51 233.099L1202.07 229.122ZM1158.22 134.392L1157.79 130.415L1152.25 131.017L1154.59 136.072L1158.22 134.392ZM1181.15 133.079L1210.95 202.712L1218.31 199.564L1188.5 129.931L1181.15 133.079ZM1215.06 205.115L1215.88 205.026L1215.01 197.073L1214.2 197.161L1215.06 205.115ZM1219.38 201.798L1233.55 127.391L1225.69 125.894L1211.52 200.301L1219.38 201.798ZM1230.05 130.619L1256.65 127.732L1255.79 119.779L1229.19 122.666L1230.05 130.619ZM1252.31 122.893L1229.81 224.826L1237.62 226.55L1260.12 124.618L1252.31 122.893ZM1233.28 221.711L1201.64 225.146L1202.51 233.099L1234.15 229.665L1233.28 221.711ZM1205.7 227.442L1161.85 132.712L1154.59 136.072L1198.44 230.803L1205.7 227.442ZM1158.65 138.369L1185.25 135.482L1184.39 127.528L1157.79 130.415L1158.65 138.369ZM1273.42 221.378L1269.45 221.81L1269.88 225.786L1273.85 225.355L1273.42 221.378ZM1262.75 123.046L1262.32 119.07L1258.34 119.501L1258.77 123.478L1262.75 123.046ZM1331.31 115.604L1335.29 115.173L1334.86 111.196L1330.88 111.628L1331.31 115.604ZM1333.41 134.906L1333.84 138.882L1337.82 138.451L1337.38 134.474L1333.41 134.906ZM1288.61 139.768L1288.18 135.791L1284.2 136.223L1284.63 140.2L1288.61 139.768ZM1290.8 159.934L1286.82 160.365L1287.25 164.342L1291.23 163.91L1290.8 159.934ZM1332.09 155.452L1336.07 155.02L1335.64 151.043L1331.66 151.475L1332.09 155.452ZM1334.19 174.801L1334.62 178.778L1338.6 178.346L1338.17 174.37L1334.19 174.801ZM1292.9 179.283L1292.47 175.306L1288.49 175.738L1288.92 179.715L1292.9 179.283ZM1295.09 199.497L1291.12 199.928L1291.55 203.905L1295.53 203.473L1295.09 199.497ZM1339.89 194.634L1343.87 194.203L1343.44 190.226L1339.46 190.658L1339.89 194.634ZM1341.99 213.936L1342.42 217.912L1346.39 217.481L1345.96 213.504L1341.99 213.936ZM1277.4 220.946L1266.73 122.615L1258.77 123.478L1269.45 221.81L1277.4 220.946ZM1263.18 127.023L1331.74 119.581L1330.88 111.628L1262.32 119.07L1263.18 127.023ZM1327.34 116.036L1329.43 135.337L1337.38 134.474L1335.29 115.173L1327.34 116.036ZM1332.98 130.929L1288.18 135.791L1289.04 143.745L1333.84 138.882L1332.98 130.929ZM1284.63 140.2L1286.82 160.365L1294.78 159.502L1292.59 139.336L1284.63 140.2ZM1291.23 163.91L1332.52 159.428L1331.66 151.475L1290.37 155.957L1291.23 163.91ZM1328.11 155.883L1330.21 175.233L1338.17 174.37L1336.07 155.02L1328.11 155.883ZM1333.76 170.825L1292.47 175.306L1293.33 183.26L1334.62 178.778L1333.76 170.825ZM1288.92 179.715L1291.12 199.928L1299.07 199.065L1296.88 178.851L1288.92 179.715ZM1295.53 203.473L1340.32 198.611L1339.46 190.658L1294.66 195.52L1295.53 203.473ZM1335.91 195.066L1338.01 214.367L1345.96 213.504L1343.87 194.203L1335.91 195.066ZM1341.55 209.959L1272.99 217.401L1273.85 225.355L1342.42 217.912L1341.55 209.959ZM1399.08 207.739L1399.51 211.716L1402.43 211.399L1403 208.516L1399.08 207.739ZM1373.53 210.512L1369.63 209.649L1368.43 215.089L1373.96 214.488L1373.53 210.512ZM1396.04 108.579L1395.6 104.602L1392.75 104.912L1392.13 107.717L1396.04 108.579ZM1427.68 105.144L1431.31 103.464L1430.1 100.858L1427.25 101.168L1427.68 105.144ZM1471.53 199.875L1471.96 203.851L1477.5 203.25L1475.16 198.194L1471.53 199.875ZM1445.98 202.647L1442.32 204.25L1443.5 206.941L1446.42 206.624L1445.98 202.647ZM1414.91 131.597L1418.57 129.994L1417.39 127.304L1414.47 127.621L1414.91 131.597ZM1414.14 131.681L1413.71 127.704L1410.78 128.021L1410.21 130.904L1414.14 131.681ZM1391.47 169.41L1391.03 165.434L1387.06 165.865L1387.49 169.842L1391.47 169.41ZM1444.86 163.615L1448.83 163.183L1448.4 159.207L1444.43 159.638L1444.86 163.615ZM1446.82 181.668L1447.25 185.645L1451.22 185.213L1450.79 181.236L1446.82 181.668ZM1393.43 187.463L1389.45 187.895L1389.88 191.872L1393.86 191.44L1393.43 187.463ZM1398.64 203.762L1373.1 206.535L1373.96 214.488L1399.51 211.716L1398.64 203.762ZM1377.44 211.374L1399.94 109.441L1392.13 107.717L1369.63 209.649L1377.44 211.374ZM1396.47 112.555L1428.11 109.121L1427.25 101.168L1395.6 104.602L1396.47 112.555ZM1424.05 106.825L1467.9 201.555L1475.16 198.194L1431.31 103.464L1424.05 106.825ZM1471.1 195.898L1445.55 198.671L1446.42 206.624L1471.96 203.851L1471.1 195.898ZM1449.65 201.044L1418.57 129.994L1411.24 133.2L1442.32 204.25L1449.65 201.044ZM1414.47 127.621L1413.71 127.704L1414.57 135.657L1415.34 135.574L1414.47 127.621ZM1410.21 130.904L1395.15 206.962L1403 208.516L1418.06 132.458L1410.21 130.904ZM1391.9 173.387L1445.29 167.592L1444.43 159.638L1391.03 165.434L1391.9 173.387ZM1440.88 164.047L1442.84 182.1L1450.79 181.236L1448.83 163.183L1440.88 164.047ZM1446.38 177.691L1392.99 183.487L1393.86 191.44L1447.25 185.645L1446.38 177.691ZM1397.4 187.032L1395.44 168.979L1387.49 169.842L1389.45 187.895L1397.4 187.032ZM1526.87 94.3772L1526.44 90.4005L1522.47 90.8322L1522.9 94.8088L1526.87 94.3772ZM1550.59 91.8027L1554.57 91.371L1554.14 87.3944L1550.16 87.826L1550.59 91.8027ZM1554.32 174.954L1557.9 176.747L1557.9 176.737L1554.32 174.954ZM1541.09 189.118L1543.18 192.53L1543.19 192.526L1543.19 192.521L1541.09 189.118ZM1497.45 193.855L1496.13 197.63L1496.13 197.633L1496.14 197.636L1497.45 193.855ZM1481.53 182.855L1478.41 185.351L1478.42 185.36L1481.53 182.855ZM1467.39 100.834L1466.95 96.8577L1462.98 97.2893L1463.41 101.266L1467.39 100.834ZM1491.15 98.2546L1495.13 97.823L1494.7 93.8463L1490.72 94.278L1491.15 98.2546ZM1501.01 168.451L1497.74 170.756L1497.75 170.771L1497.76 170.786L1501.01 168.451ZM1507.97 174.01L1509.54 170.329L1507.97 174.01ZM1526.65 171.982L1524.33 168.723L1524.32 168.729L1524.32 168.735L1526.65 171.982ZM1527.31 98.3538L1551.02 95.7793L1550.16 87.826L1526.44 90.4005L1527.31 98.3538ZM1546.62 92.2343L1553.5 155.66L1561.45 154.797L1554.57 91.371L1546.62 92.2343ZM1553.5 155.66C1554.22 162.334 1553.26 168.124 1550.74 173.171L1557.9 176.737C1561.19 170.143 1562.32 162.783 1561.45 154.797L1553.5 155.66ZM1550.75 173.161C1548.2 178.237 1544.33 182.42 1538.99 185.714L1543.19 192.521C1549.69 188.507 1554.64 183.247 1557.9 176.747L1550.75 173.161ZM1539.01 185.705C1533.68 188.965 1527.18 191.074 1519.39 191.919L1520.25 199.872C1528.98 198.925 1536.66 196.515 1543.18 192.53L1539.01 185.705ZM1519.39 191.919C1511.5 192.775 1504.65 192.113 1498.75 190.074L1496.14 197.636C1503.37 200.132 1511.43 200.83 1520.25 199.872L1519.39 191.919ZM1498.77 190.08C1492.85 188.008 1488.19 184.756 1484.65 180.35L1478.42 185.36C1482.96 191.022 1488.91 195.104 1496.13 197.63L1498.77 190.08ZM1484.66 180.358C1481.15 175.963 1478.97 170.509 1478.25 163.828L1470.29 164.692C1471.16 172.671 1473.83 179.613 1478.41 185.351L1484.66 180.358ZM1478.25 163.828L1471.36 100.403L1463.41 101.266L1470.29 164.692L1478.25 163.828ZM1467.82 104.811L1491.58 102.231L1490.72 94.278L1466.95 96.8577L1467.82 104.811ZM1487.18 98.6862L1493.84 160.047L1501.79 159.184L1495.13 97.823L1487.18 98.6862ZM1493.84 160.047C1494.27 164.034 1495.54 167.642 1497.74 170.756L1504.27 166.145C1502.95 164.265 1502.09 161.983 1501.79 159.184L1493.84 160.047ZM1497.76 170.786C1499.98 173.879 1502.89 176.195 1506.41 177.691L1509.54 170.329C1507.35 169.399 1505.62 168.009 1504.25 166.115L1497.76 170.786ZM1506.41 177.691C1509.98 179.209 1513.88 179.675 1518.01 179.227L1517.15 171.273C1514.17 171.597 1511.67 171.235 1509.54 170.329L1506.41 177.691ZM1518.01 179.227C1522.14 178.779 1525.85 177.488 1528.99 175.23L1524.32 168.735C1522.47 170.062 1520.13 170.95 1517.15 171.273L1518.01 179.227ZM1528.97 175.242C1532.08 173.026 1534.43 170.14 1535.94 166.642L1528.59 163.474C1527.67 165.616 1526.27 167.347 1524.33 168.723L1528.97 175.242ZM1535.94 166.642C1537.45 163.119 1537.95 159.308 1537.51 155.307L1529.56 156.17C1529.86 158.954 1529.5 161.357 1528.59 163.474L1535.94 166.642ZM1537.51 155.307L1530.85 93.9455L1522.9 94.8088L1529.56 156.17L1537.51 155.307ZM1654.56 116.564L1654.99 120.54L1659.37 120.064L1658.47 115.747L1654.56 116.564ZM1630.55 119.169L1626.66 120.11L1627.49 123.525L1630.98 123.146L1630.55 119.169ZM1627.86 112.709L1624.49 114.874L1624.49 114.874L1627.86 112.709ZM1623.37 108.047L1625.64 104.754L1625.64 104.754L1623.37 108.047ZM1617.21 105.461L1616.31 109.359L1616.34 109.366L1616.38 109.374L1617.21 105.461ZM1597.78 109.95L1595.19 106.897L1595.19 106.903L1595.18 106.909L1597.78 109.95ZM1590.96 120.941L1587.12 119.798L1587.12 119.81L1587.12 119.822L1590.96 120.941ZM1594.53 153.393L1591.03 155.332L1591.04 155.347L1591.05 155.362L1594.53 153.393ZM1603.53 162.472L1601.7 166.028L1601.72 166.038L1601.74 166.048L1603.53 162.472ZM1623.08 162.681L1621.49 159.009L1621.49 159.013L1621.48 159.016L1623.08 162.681ZM1628.48 159.132L1631.27 161.995L1631.28 161.988L1628.48 159.132ZM1632.04 153.936L1628.38 152.325L1628.37 152.335L1628.37 152.345L1632.04 153.936ZM1633.6 147.305L1633.2 143.326L1629.83 143.671L1629.61 147.042L1633.6 147.305ZM1657.63 144.844L1661.63 144.792L1661.57 140.419L1657.22 140.864L1657.63 144.844ZM1655.23 158.123L1651.48 156.731L1651.48 156.742L1651.47 156.753L1655.23 158.123ZM1647.89 170.627L1650.94 173.217L1650.95 173.21L1650.95 173.203L1647.89 170.627ZM1635.44 180.334L1633.59 176.787L1633.58 176.79L1635.44 180.334ZM1593.27 182.094L1591.7 185.772L1591.71 185.777L1591.72 185.781L1593.27 182.094ZM1574.79 166.708L1578.08 164.438L1574.79 166.708ZM1568.92 111.722L1565.23 110.187L1568.92 111.722ZM1623.64 85.0398L1622.81 88.9521L1622.82 88.9545L1622.83 88.9568L1623.64 85.0398ZM1637.77 90.793L1635.57 94.1352L1635.58 94.1406L1635.59 94.1461L1637.77 90.793ZM1654.12 112.587L1630.12 115.193L1630.98 123.146L1654.99 120.54L1654.12 112.587ZM1634.44 118.229C1633.76 115.417 1632.7 112.84 1631.22 110.545L1624.49 114.874C1625.43 116.332 1626.17 118.063 1626.66 120.11L1634.44 118.229ZM1631.22 110.545C1629.74 108.237 1627.87 106.295 1625.64 104.754L1621.1 111.34C1622.43 112.262 1623.56 113.428 1624.49 114.874L1631.22 110.545ZM1625.64 104.754C1623.38 103.197 1620.83 102.141 1618.04 101.548L1616.38 109.374C1618.23 109.767 1619.78 110.435 1621.1 111.34L1625.64 104.754ZM1618.11 101.563C1615.32 100.92 1612.37 100.796 1609.31 101.129L1610.17 109.083C1612.48 108.832 1614.51 108.944 1616.31 109.359L1618.11 101.563ZM1609.31 101.129C1603.86 101.72 1599.09 103.598 1595.19 106.897L1600.36 113.003C1602.87 110.878 1606.08 109.527 1610.17 109.083L1609.31 101.129ZM1595.18 106.909C1591.34 110.192 1588.68 114.558 1587.12 119.798L1594.79 122.084C1595.98 118.086 1597.88 115.126 1600.38 112.992L1595.18 106.909ZM1587.12 119.822C1585.59 125.071 1585.26 131.066 1585.98 137.706L1593.94 136.843C1593.3 130.935 1593.64 126.042 1594.8 122.06L1587.12 119.822ZM1585.98 137.706C1586.73 144.585 1588.36 150.514 1591.03 155.332L1598.03 151.454C1596.02 147.84 1594.61 143.024 1593.94 136.843L1585.98 137.706ZM1591.05 155.362C1593.73 160.1 1597.25 163.74 1601.7 166.028L1605.36 158.916C1602.53 157.459 1600.06 155.046 1598.01 151.424L1591.05 155.362ZM1601.74 166.048C1606.18 168.278 1611.14 169.021 1616.47 168.443L1615.6 160.49C1611.58 160.926 1608.2 160.34 1605.32 158.896L1601.74 166.048ZM1616.47 168.443C1619.43 168.121 1622.18 167.439 1624.68 166.347L1621.48 159.016C1619.83 159.734 1617.89 160.241 1615.6 160.49L1616.47 168.443ZM1624.67 166.354C1627.17 165.27 1629.39 163.826 1631.27 161.995L1625.68 156.27C1624.57 157.354 1623.19 158.276 1621.49 159.009L1624.67 166.354ZM1631.28 161.988C1633.17 160.131 1634.65 157.968 1635.71 155.527L1628.37 152.345C1627.72 153.846 1626.82 155.148 1625.67 156.277L1631.28 161.988ZM1635.7 155.548C1636.79 153.072 1637.41 150.4 1637.6 147.568L1629.61 147.042C1629.48 149.039 1629.06 150.787 1628.38 152.325L1635.7 155.548ZM1634.01 151.285L1658.03 148.823L1657.22 140.864L1633.2 143.326L1634.01 151.285ZM1653.63 144.895C1653.68 148.763 1652.98 152.701 1651.48 156.731L1658.98 159.515C1660.79 154.636 1661.69 149.721 1661.63 144.792L1653.63 144.895ZM1651.47 156.753C1650.02 160.734 1647.82 164.498 1644.83 168.051L1650.95 173.203C1654.5 168.986 1657.19 164.414 1658.99 159.492L1651.47 156.753ZM1644.84 168.037C1641.94 171.451 1638.22 174.378 1633.59 176.787L1637.29 183.882C1642.72 181.054 1647.29 177.509 1650.94 173.217L1644.84 168.037ZM1633.58 176.79C1629.11 179.131 1623.74 180.69 1617.38 181.38L1618.25 189.333C1625.4 188.557 1631.78 186.767 1637.3 183.878L1633.58 176.79ZM1617.38 181.38C1609.09 182.28 1601.6 181.258 1594.82 178.407L1591.72 185.781C1599.87 189.212 1608.75 190.364 1618.25 189.333L1617.38 181.38ZM1594.84 178.415C1588.14 175.555 1582.57 170.937 1578.08 164.438L1571.5 168.979C1576.78 176.641 1583.52 182.28 1591.7 185.772L1594.84 178.415ZM1578.08 164.438C1573.67 158.029 1570.81 149.771 1569.69 139.475L1561.74 140.338C1562.96 151.616 1566.15 161.226 1571.5 168.979L1578.08 164.438ZM1569.69 139.475C1568.57 129.154 1569.62 120.465 1572.61 113.258L1565.23 110.187C1561.6 118.921 1560.51 129.021 1561.74 140.338L1569.69 139.475ZM1572.61 113.258C1575.66 105.937 1580.16 100.237 1586.12 96.0312L1581.51 89.4945C1574.23 94.6281 1568.81 101.568 1565.23 110.187L1572.61 113.258ZM1586.12 96.0312C1592.14 91.7859 1599.16 89.1942 1607.28 88.3125L1606.42 80.3592C1597.07 81.3746 1588.73 84.4008 1581.51 89.4945L1586.12 96.0312ZM1607.28 88.3125C1612.86 87.7068 1618.03 87.9348 1622.81 88.9521L1624.47 81.1275C1618.77 79.9138 1612.75 79.6725 1606.42 80.3592L1607.28 88.3125ZM1622.83 88.9568C1627.6 89.9449 1631.84 91.6789 1635.57 94.1352L1639.97 87.4508C1635.33 84.4032 1630.15 82.3017 1624.45 81.1228L1622.83 88.9568ZM1635.59 94.1461C1639.3 96.5597 1642.46 99.6889 1645.07 103.577L1651.71 99.1187C1648.52 94.3737 1644.6 90.4662 1639.95 87.4399L1635.59 94.1461ZM1645.07 103.577C1647.64 107.408 1649.52 111.986 1650.64 117.38L1658.47 115.747C1657.17 109.488 1654.93 103.921 1651.71 99.1187L1645.07 103.577ZM1684 77.3221L1687.98 76.8905L1687.54 72.9138L1683.57 73.3455L1684 77.3221ZM1694.67 175.654L1695.1 179.63L1699.08 179.199L1698.65 175.222L1694.67 175.654ZM1670.91 178.233L1666.93 178.665L1667.36 182.642L1671.34 182.21L1670.91 178.233ZM1660.23 79.9018L1659.8 75.9252L1655.82 76.3568L1656.26 80.3335L1660.23 79.9018ZM1680.02 77.7537L1690.7 176.085L1698.65 175.222L1687.98 76.8905L1680.02 77.7537ZM1694.24 171.677L1670.47 174.257L1671.34 182.21L1695.1 179.63L1694.24 171.677ZM1674.88 177.802L1664.21 79.4702L1656.26 80.3335L1666.93 178.665L1674.88 177.802ZM1660.66 83.8785L1684.43 81.2987L1683.57 73.3455L1659.8 75.9252L1660.66 83.8785ZM1693.74 95.7935L1689.77 96.2251L1690.2 100.202L1694.17 99.7701L1693.74 95.7935ZM1691.65 76.4921L1691.22 72.5154L1687.24 72.9471L1687.67 76.9237L1691.65 76.4921ZM1774.76 67.4708L1778.73 67.0392L1778.3 63.0625L1774.33 63.4942L1774.76 67.4708ZM1776.85 86.7722L1777.28 90.7489L1781.26 90.3172L1780.83 86.3406L1776.85 86.7722ZM1747.04 90.0086L1746.61 86.032L1742.63 86.4636L1743.06 90.4402L1747.04 90.0086ZM1755.62 169.039L1756.05 173.015L1760.02 172.584L1759.59 168.607L1755.62 169.039ZM1732.18 171.582L1728.21 172.014L1728.64 175.99L1732.62 175.559L1732.18 171.582ZM1723.61 92.5519L1727.58 92.1202L1727.15 88.1436L1723.17 88.5752L1723.61 92.5519ZM1697.72 95.3618L1695.62 76.0604L1687.67 76.9237L1689.77 96.2251L1697.72 95.3618ZM1692.08 80.4687L1775.19 71.4475L1774.33 63.4942L1691.22 72.5154L1692.08 80.4687ZM1770.78 67.9025L1772.88 87.2039L1780.83 86.3406L1778.73 67.0392L1770.78 67.9025ZM1776.42 82.7956L1746.61 86.032L1747.47 93.9852L1777.28 90.7489L1776.42 82.7956ZM1743.06 90.4402L1751.64 169.47L1759.59 168.607L1751.01 89.577L1743.06 90.4402ZM1755.18 165.062L1731.75 167.605L1732.62 175.559L1756.05 173.015L1755.18 165.062ZM1736.16 171.15L1727.58 92.1202L1719.63 92.9835L1728.21 172.014L1736.16 171.15ZM1723.17 88.5752L1693.31 91.8168L1694.17 99.7701L1724.04 96.5285L1723.17 88.5752ZM1806.08 64.0715L1810.05 63.6398L1809.62 59.6632L1805.64 60.0948L1806.08 64.0715ZM1816.75 162.403L1817.18 166.38L1821.16 165.948L1820.73 161.971L1816.75 162.403ZM1792.98 164.983L1789.01 165.414L1789.44 169.391L1793.41 168.959L1792.98 164.983ZM1782.31 66.6512L1781.88 62.6746L1777.9 63.1062L1778.33 67.0828L1782.31 66.6512ZM1802.1 64.5031L1812.77 162.835L1820.73 161.971L1810.05 63.6398L1802.1 64.5031ZM1816.32 158.426L1792.55 161.006L1793.41 168.959L1817.18 166.38L1816.32 158.426ZM1796.96 164.551L1786.29 66.2196L1778.33 67.0828L1789.01 165.414L1796.96 164.551ZM1782.74 70.6278L1806.51 68.0481L1805.64 60.0948L1781.88 62.6746L1782.74 70.6278ZM1911.83 130.173L1908.14 128.626L1908.14 128.626L1911.83 130.173ZM1896.79 149.149L1894.5 145.871L1894.49 145.876L1896.79 149.149ZM1849.11 154.276L1850.67 150.591L1849.11 154.276ZM1830.4 138.964L1827.12 141.256L1827.12 141.264L1827.13 141.273L1830.4 138.964ZM1824.43 83.9887L1820.74 82.4414L1820.73 82.4535L1824.43 83.9887ZM1839.42 65.0186L1841.72 68.2914L1839.42 65.0186ZM1887.1 59.8435L1885.55 63.5335L1885.56 63.5365L1887.1 59.8435ZM1905.86 75.1498L1902.59 77.4525L1905.86 75.1498ZM1886.29 88.6896L1882.77 90.5849L1882.78 90.5958L1882.78 90.6067L1886.29 88.6896ZM1877.43 79.4991L1875.56 83.0351L1875.56 83.0392L1875.57 83.0432L1877.43 79.4991ZM1853.13 82.1361L1855.7 85.1999L1853.13 82.1361ZM1846.39 93.0204L1842.55 91.9013L1842.55 91.9132L1842.55 91.9251L1846.39 93.0204ZM1849.92 125.478L1846.39 127.373L1846.4 127.384L1846.41 127.395L1849.92 125.478ZM1858.83 134.663L1860.69 131.119L1858.83 134.663ZM1883.13 132.026L1880.56 128.962L1880.55 128.968L1880.54 128.973L1883.13 132.026ZM1889.82 121.147L1885.98 120.028L1885.97 120.039L1885.97 120.051L1889.82 121.147ZM1911.11 102.416C1912.23 112.732 1911.17 121.418 1908.14 128.626L1915.52 131.72C1919.19 122.981 1920.29 112.874 1919.06 101.552L1911.11 102.416ZM1908.14 128.626C1905.07 135.947 1900.52 141.655 1894.5 145.871L1899.08 152.426C1906.42 147.289 1911.9 140.347 1915.52 131.72L1908.14 128.626ZM1894.49 145.876C1888.44 150.126 1881.37 152.725 1873.18 153.614L1874.04 161.568C1883.46 160.546 1891.84 157.517 1899.09 152.421L1894.49 145.876ZM1873.18 153.614C1864.96 154.507 1857.48 153.472 1850.67 150.591L1847.55 157.96C1855.74 161.418 1864.6 162.593 1874.04 161.568L1873.18 153.614ZM1850.67 150.591C1843.89 147.729 1838.23 143.122 1833.66 136.656L1827.13 141.273C1832.51 148.883 1839.32 154.483 1847.55 157.96L1850.67 150.591ZM1833.67 136.672C1829.2 130.274 1826.31 122.028 1825.2 111.741L1817.24 112.604C1818.47 123.891 1821.7 133.506 1827.12 141.256L1833.67 136.672ZM1825.2 111.741C1824.08 101.42 1825.13 92.7311 1828.12 85.5239L1820.73 82.4535C1817.1 91.1868 1816.02 101.287 1817.24 112.604L1825.2 111.741ZM1828.12 85.5359C1831.19 78.2102 1835.73 72.5033 1841.72 68.2914L1837.12 61.7458C1829.81 66.8797 1824.36 73.8195 1820.74 82.4414L1828.12 85.5359ZM1841.72 68.2914C1847.77 64.0428 1854.85 61.4404 1863.08 60.5475L1862.22 52.5942C1852.77 53.6191 1844.37 56.6486 1837.12 61.7458L1841.72 68.2914ZM1863.08 60.5475C1871.27 59.6583 1878.73 60.6802 1885.55 63.5335L1888.64 56.1535C1880.46 52.7323 1871.63 51.5724 1862.22 52.5942L1863.08 60.5475ZM1885.56 63.5365C1892.35 66.3621 1898.02 70.961 1902.59 77.4525L1909.13 72.8472C1903.74 65.1978 1896.9 59.5925 1888.63 56.1506L1885.56 63.5365ZM1902.59 77.4525C1907.09 83.8436 1909.99 92.099 1911.11 102.416L1919.06 101.552C1917.83 90.231 1914.59 80.5969 1909.13 72.8472L1902.59 77.4525ZM1894.77 104.189C1894.04 97.4336 1892.43 91.579 1889.8 86.7725L1882.78 90.6067C1884.77 94.2387 1886.16 99.005 1886.82 105.053L1894.77 104.189ZM1889.82 86.7944C1887.23 81.9885 1883.74 78.2887 1879.28 75.9549L1875.57 83.0432C1878.39 84.5181 1880.81 86.9454 1882.77 90.5849L1889.82 86.7944ZM1879.3 75.9631C1874.87 73.6225 1869.87 72.8464 1864.48 73.432L1865.34 81.3853C1869.42 80.9425 1872.77 81.56 1875.56 83.0351L1879.3 75.9631ZM1864.48 73.432C1859.11 74.0149 1854.4 75.8475 1850.56 79.0724L1855.7 85.1999C1858.15 83.1429 1861.3 81.8239 1865.34 81.3853L1864.48 73.432ZM1850.56 79.0724C1846.71 82.3037 1844.08 86.6589 1842.55 91.9013L1850.23 94.1396C1851.4 90.1514 1853.26 87.2504 1855.7 85.1999L1850.56 79.0724ZM1842.55 91.9251C1841.05 97.1711 1840.76 103.224 1841.49 109.972L1849.44 109.109C1848.79 103.054 1849.11 98.0934 1850.24 94.1157L1842.55 91.9251ZM1841.49 109.972C1842.22 116.721 1843.81 122.569 1846.39 127.373L1853.44 123.582C1851.48 119.94 1850.1 115.164 1849.44 109.109L1841.49 109.972ZM1846.41 127.395C1849.02 132.187 1852.53 135.877 1856.98 138.207L1860.69 131.119C1857.86 129.64 1855.42 127.206 1853.43 123.56L1846.41 127.395ZM1856.98 138.207C1861.42 140.532 1866.41 141.313 1871.78 140.73L1870.92 132.777C1866.88 133.215 1863.52 132.602 1860.69 131.119L1856.98 138.207ZM1871.78 140.73C1877.18 140.144 1881.89 138.314 1885.71 135.078L1880.54 128.973C1878.13 131.013 1875 132.334 1870.92 132.777L1871.78 140.73ZM1885.7 135.09C1889.56 131.853 1892.17 127.491 1893.66 122.242L1885.97 120.051C1884.84 124.026 1882.99 126.917 1880.56 128.962L1885.7 135.09ZM1893.66 122.266C1895.19 117.008 1895.5 110.945 1894.77 104.189L1886.82 105.053C1887.47 111.1 1887.13 116.055 1885.98 120.028L1893.66 122.266ZM2003.26 42.6686L2007.23 42.237L2006.8 38.2603L2002.83 38.692L2003.26 42.6686ZM2013.93 141L2014.36 144.977L2018.34 144.545L2017.91 140.569L2013.93 141ZM1993.76 143.189L1990.74 145.802L1992.11 147.392L1994.2 147.166L1993.76 143.189ZM1948.47 90.6846L1951.5 88.0719L1950.13 86.4812L1948.04 86.7079L1948.47 90.6846ZM1947.85 90.7523L1947.42 86.7757L1943.44 87.2073L1943.87 91.184L1947.85 90.7523ZM1954.01 147.504L1954.44 151.481L1958.42 151.049L1957.99 147.073L1954.01 147.504ZM1930.24 150.084L1926.27 150.516L1926.7 154.492L1930.67 154.061L1930.24 150.084ZM1919.57 51.7524L1919.14 47.7758L1915.16 48.2074L1915.59 52.184L1919.57 51.7524ZM1940.02 49.5323L1943.06 46.9329L1941.69 45.3277L1939.59 45.5556L1940.02 49.5323ZM1984.87 101.988L1981.83 104.587L1983.2 106.192L1985.3 105.964L1984.87 101.988ZM1985.69 101.899L1986.12 105.876L1990.1 105.444L1989.66 101.467L1985.69 101.899ZM1979.54 45.2431L1979.11 41.2665L1975.13 41.6981L1975.56 45.6748L1979.54 45.2431ZM1999.28 43.1003L2009.95 141.432L2017.91 140.569L2007.23 42.237L1999.28 43.1003ZM2013.5 137.024L1993.33 139.212L1994.2 147.166L2014.36 144.977L2013.5 137.024ZM1996.79 140.576L1951.5 88.0719L1945.44 93.2973L1990.74 145.802L1996.79 140.576ZM1948.04 86.7079L1947.42 86.7757L1948.28 94.729L1948.91 94.6612L1948.04 86.7079ZM1943.87 91.184L1950.03 147.936L1957.99 147.073L1951.83 90.3207L1943.87 91.184ZM1953.58 143.528L1929.81 146.107L1930.67 154.061L1954.44 151.481L1953.58 143.528ZM1934.22 149.652L1923.55 51.3208L1915.59 52.184L1926.27 150.516L1934.22 149.652ZM1920 55.729L1940.45 53.5089L1939.59 45.5556L1919.14 47.7758L1920 55.729ZM1936.98 52.1317L1981.83 104.587L1987.91 99.3882L1943.06 46.9329L1936.98 52.1317ZM1985.3 105.964L1986.12 105.876L1985.26 97.9224L1984.44 98.011L1985.3 105.964ZM1989.66 101.467L1983.52 44.8115L1975.56 45.6748L1981.71 102.331L1989.66 101.467ZM1979.97 49.2198L2003.69 46.6453L2002.83 38.692L1979.11 41.2665L1979.97 49.2198Z" fill="white"/>
<defs>
<linearGradient id="paint0_linear_22_2906" x1="952.254" y1="-17.7185" x2="1048.32" y2="435.871" gradientUnits="userSpaceOnUse">
<stop stop-color="#8D1CFE"/>
<stop offset="1" stop-color="#0038ED"/>
</linearGradient>
</defs>
</svg>
