<svg xmlns="http://www.w3.org/2000/svg" width="24" height="24" viewBox="0 0 24 24" fill="none">
  <g clip-path="url(#clip0_819_33)">
    <path d="M22.5203 22.5469H1.47979C1.27785 22.5469 1.11426 22.7106 1.11426 22.9124V23.4C1.11426 23.6019 1.27795 23.7655 1.47979 23.7655H22.5203C22.7222 23.7655 22.8858 23.6018 22.8858 23.4V22.9124C22.8858 22.7106 22.7222 22.5469 22.5203 22.5469Z" fill="#5290DB"/>
    <path d="M15.9009 0.577716C15.6045 0.527279 15.3726 0.29881 15.3113 0.00987257C15.3112 -0.00325243 15.2848 -0.00306493 15.2849 0.0100601C15.2279 0.299935 14.9993 0.531873 14.7038 0.586716C14.6906 0.58681 14.6907 0.606591 14.7039 0.61306C15.0004 0.663498 15.2323 0.891966 15.2936 1.1809C15.2937 1.19403 15.3201 1.19384 15.32 1.18072C15.377 0.890841 15.6055 0.658904 15.9011 0.60406C15.9143 0.59731 15.9141 0.577623 15.9009 0.577716Z" fill="#70D6F9"/>
    <path d="M21.2625 16.0718H21.0469V15.8562C21.0469 15.6968 20.9156 15.5562 20.7469 15.5562C20.5781 15.5562 20.4469 15.6874 20.4469 15.8562V16.0718H20.2313C20.0719 16.0718 19.9313 16.203 19.9313 16.3718C19.9313 16.5405 20.0625 16.6718 20.2313 16.6718H20.4469V16.8874C20.4469 17.0468 20.5781 17.1874 20.7469 17.1874C20.9156 17.1874 21.0469 17.0562 21.0469 16.8874V16.6718H21.2625C21.4219 16.6718 21.5625 16.5405 21.5625 16.3718C21.5625 16.203 21.4313 16.0718 21.2625 16.0718Z" fill="#FC657E"/>
    <path d="M5.70005 6.86082C5.27817 6.78582 4.95005 6.45769 4.86567 6.04519C4.86567 6.02644 4.82817 6.02644 4.82817 6.04519C4.7438 6.45769 4.41567 6.78582 3.9938 6.86082C3.97505 6.86082 3.97505 6.88894 3.9938 6.89832C4.41567 6.97332 4.7438 7.30144 4.82817 7.71394C4.82817 7.73269 4.86567 7.73269 4.86567 7.71394C4.95005 7.30144 5.27817 6.97332 5.70005 6.89832C5.7188 6.88894 5.7188 6.86082 5.70005 6.86082Z" fill="#F5C84C"/>
    <path d="M20.1376 18.9686C19.9615 18.9686 19.8188 19.1113 19.8188 19.2874C19.8188 19.4634 19.9615 19.6061 20.1376 19.6061C20.3137 19.6061 20.4563 19.4634 20.4563 19.2874C20.4563 19.1113 20.3137 18.9686 20.1376 18.9686Z" fill="#F5C84C"/>
    <path d="M6.2626 4.06238C6.08654 4.06238 5.94385 4.20507 5.94385 4.38113C5.94385 4.55719 6.08654 4.69988 6.2626 4.69988C6.43866 4.69988 6.58135 4.55719 6.58135 4.38113C6.58135 4.20507 6.43866 4.06238 6.2626 4.06238Z" fill="#87D147"/>
    <path d="M6.55302 21.6815C6.55443 21.5306 6.68146 21.4104 6.83249 21.4104H7.42489C7.20618 21.4104 7.02889 21.2331 7.02889 21.0144V16.4835L6.22686 16.6854C5.65958 16.8281 5.25111 17.3231 5.21858 17.9072L5.03174 21.1284C5.29883 21.2589 5.48436 21.5327 5.48436 21.8486V22.5468H7.40999C6.93393 22.5469 6.54852 22.1587 6.55302 21.6815Z" fill="#70D6F9"/>
    <path d="M16.59 22.5469H19.0504L18.7814 17.9073C18.7489 17.3234 18.3404 16.8283 17.7731 16.6855L16.9711 16.4836V21.0145C16.9711 21.2332 16.7938 21.4105 16.5751 21.4105H17.1675C17.3184 21.4105 17.4454 21.5307 17.4469 21.6816C17.4514 22.1587 17.066 22.5469 16.59 22.5469Z" fill="#70D6F9"/>
    <path d="M15.3865 7.8914C15.3847 7.7953 15.3077 7.71618 15.2117 7.71337C13.8046 7.67212 13.0632 7.11449 12.7783 6.83521C12.7005 6.75899 12.575 6.76706 12.5072 6.85227C11.2701 8.40796 9.44513 8.18849 8.83154 8.06005C8.72007 8.03671 8.61301 8.1208 8.61292 8.23471V8.23705V10.9616C8.61292 12.2595 9.35317 13.3923 10.4319 13.9604H13.5679C14.6467 13.3923 15.3869 12.2595 15.3869 10.9616V7.94437C15.387 7.92665 15.3868 7.90902 15.3865 7.8914Z" fill="#F9D0B4"/>
    <path d="M15.1346 4.61356C15.1346 4.53003 15.1389 4.44762 15.1463 4.36597C14.9877 4.3235 14.822 4.29875 14.6504 4.29875C14.2895 4.29875 13.9521 4.40075 13.6621 4.57465C13.3234 4.00934 12.7063 3.62769 12.0029 3.62769H11.0094C9.08662 3.62769 7.51331 5.2009 7.51331 7.12381V8.69028C7.75527 8.49669 8.06165 8.38025 8.39559 8.38025C8.46956 8.38025 8.54202 8.38653 8.6129 8.3975V8.23475C8.61299 8.12084 8.71996 8.03675 8.83152 8.06009C9.44512 8.18853 11.2701 8.408 12.5072 6.85231C12.575 6.76709 12.7005 6.75903 12.7782 6.83525C13.0631 7.11453 13.8045 7.67215 15.2116 7.7134C15.3076 7.71622 15.3846 7.79544 15.3864 7.89144C15.3868 7.90906 15.387 7.92669 15.387 7.9444V8.3974C15.4579 8.38644 15.5303 8.38015 15.6043 8.38015C15.9855 8.38015 16.3308 8.53175 16.5851 8.777V7.00887C15.7231 6.55709 15.1346 5.65428 15.1346 4.61356Z" fill="#754E34"/>
    <path d="M15.6045 8.38025C15.5305 8.38025 15.4581 8.38653 15.3872 8.3975V10.9617C15.3872 11.0381 15.3837 11.1136 15.3787 11.1888C15.4523 11.2007 15.5274 11.2085 15.6045 11.2085C16.3855 11.2085 17.0186 10.5754 17.0186 9.79437C17.0186 9.01334 16.3854 8.38025 15.6045 8.38025Z" fill="#F9D0B4"/>
    <path d="M8.613 10.9615V8.39738C8.54213 8.38641 8.46966 8.38013 8.39569 8.38013C7.61466 8.38013 6.98157 9.01322 6.98157 9.79425C6.98157 10.5753 7.61466 11.2084 8.39569 11.2084C8.47275 11.2084 8.54785 11.2005 8.62154 11.1887C8.61647 11.1136 8.613 11.0379 8.613 10.9615Z" fill="#F9D0B4"/>
    <path d="M16.59 22.5469H19.0504L18.9464 20.7524H16.9711V21.0144C16.9711 21.2331 16.7938 21.4104 16.5751 21.4104H17.1675C17.3184 21.4104 17.4454 21.5306 17.4469 21.6815C17.4514 22.1587 17.066 22.5469 16.59 22.5469Z" fill="#F9D0B4"/>
    <path d="M6.55302 21.6815C6.55443 21.5306 6.68146 21.4104 6.83249 21.4104H7.42489C7.20618 21.4104 7.02889 21.2331 7.02889 21.0144V20.7524H5.05358L5.03174 21.1285C5.29883 21.259 5.48436 21.5328 5.48436 21.8487V22.5469H7.40999C6.93393 22.5469 6.54852 22.1587 6.55302 21.6815Z" fill="#F9D0B4"/>
    <path d="M13.1635 11.5855C13.0642 11.5024 12.9165 11.5154 12.8333 11.6146C12.6709 11.8084 12.3949 11.924 12.0952 11.924C11.7955 11.924 11.5196 11.8084 11.3571 11.6146C11.274 11.5154 11.1262 11.5024 11.0269 11.5855C10.9277 11.6687 10.9147 11.8165 10.9979 11.9157C11.2483 12.2145 11.6585 12.3928 12.0952 12.3928C12.5319 12.3928 12.9421 12.2145 13.1926 11.9157C13.2757 11.8165 13.2627 11.6687 13.1635 11.5855Z" fill="black"/>
    <path d="M13.5005 10.4058C13.7392 10.4058 13.9327 10.2123 13.9327 9.97357C13.9327 9.73488 13.7392 9.54138 13.5005 9.54138C13.2619 9.54138 13.0684 9.73488 13.0684 9.97357C13.0684 10.2123 13.2619 10.4058 13.5005 10.4058Z" fill="black"/>
    <path d="M10.598 10.4058C10.8366 10.4058 11.0301 10.2123 11.0301 9.97357C11.0301 9.73488 10.8366 9.54138 10.598 9.54138C10.3593 9.54138 10.1658 9.73488 10.1658 9.97357C10.1658 10.2123 10.3593 10.4058 10.598 10.4058Z" fill="black"/>
    <path d="M19.0156 17.8943C18.9771 17.2041 18.5009 16.627 17.8305 16.4582L17.118 16.2789C16.9924 16.2473 16.8651 16.3235 16.8334 16.4489C16.8018 16.5745 16.878 16.7019 17.0035 16.7335L17.716 16.9128C18.1863 17.0312 18.5205 17.4362 18.5476 17.9209L18.8117 22.475C18.8189 22.5997 18.9222 22.6958 19.0454 22.6958C19.05 22.6958 19.0546 22.6957 19.0592 22.6954C19.1883 22.6879 19.2871 22.5771 19.2796 22.4479L19.0156 17.8943Z" fill="black"/>
    <path d="M7.16934 16.4482C7.13774 16.3227 7.01052 16.2465 6.88481 16.2782L6.16959 16.4582C5.49918 16.6269 5.02293 17.2041 4.98459 17.8938L4.80252 21.0334C4.79502 21.1625 4.89374 21.2735 5.02293 21.2809C5.02752 21.2811 5.03212 21.2812 5.03671 21.2812C5.1599 21.2812 5.26331 21.185 5.27043 21.0605L5.45259 17.9203C5.47959 17.4361 5.81371 17.0312 6.28406 16.9127L6.99927 16.7327C7.12481 16.7012 7.20093 16.5738 7.16934 16.4482Z" fill="black"/>
    <path d="M15.6208 7.88674C15.6164 7.66465 15.4397 7.48559 15.2184 7.47902C13.8707 7.43956 13.1777 6.89853 12.9423 6.66771C12.8579 6.58512 12.7429 6.5419 12.6247 6.54912C12.507 6.55643 12.3973 6.61371 12.3237 6.70624C11.1884 8.13396 9.53701 7.96812 8.87954 7.83049C8.75626 7.8049 8.62923 7.83565 8.53126 7.91515C8.43432 7.99381 8.37863 8.11024 8.37854 8.23699V10.9617C8.37854 12.2865 9.10585 13.5059 10.2768 14.1441C10.3903 14.206 10.5327 14.1641 10.5948 14.0504C10.6568 13.9368 10.6148 13.7945 10.5011 13.7324C9.48104 13.1765 8.84738 12.1148 8.84738 10.9616V8.30224C9.49163 8.42534 11.3674 8.61537 12.6554 7.04196C13.0125 7.37562 13.7823 7.89349 15.1527 7.9459V10.9616C15.1527 12.1147 14.5191 13.1764 13.499 13.7324C13.3854 13.7944 13.3434 13.9367 13.4053 14.0504C13.4479 14.1285 13.5283 14.1727 13.6114 14.1727C13.6493 14.1727 13.6877 14.1635 13.7233 14.1441C14.8942 13.5059 15.6216 12.2865 15.6216 10.9617V7.9444C15.6214 7.92509 15.6212 7.90577 15.6208 7.88674Z" fill="black"/>
    <path d="M15.1396 4.12037C14.6762 4.01256 14.1751 4.06412 13.7387 4.26878C13.3307 3.7239 12.6842 3.39343 12.003 3.39343H11.0094C8.95246 3.39343 7.27893 5.06696 7.27893 7.12393V8.61793C7.27893 8.7474 7.38384 8.85231 7.51331 8.85231C7.64277 8.85231 7.74768 8.7474 7.74768 8.61793V7.12375C7.74768 5.32525 9.21084 3.862 11.0094 3.862H12.003C12.5946 3.862 13.1533 4.18121 13.4611 4.69506C13.4931 4.7484 13.5449 4.78684 13.6052 4.80193C13.6654 4.81693 13.7294 4.80756 13.7827 4.77559C14.16 4.54928 14.6162 4.47981 15.0333 4.57684C15.1597 4.60628 15.2854 4.52771 15.3147 4.40171C15.3441 4.27571 15.2657 4.14971 15.1396 4.12037Z" fill="black"/>
    <path d="M16.5853 6.85156C16.4559 6.85156 16.351 6.95647 16.351 7.08594V8.71053C16.351 8.84 16.4559 8.94491 16.5853 8.94491C16.7148 8.94491 16.8197 8.84 16.8197 8.71053V7.08594C16.8197 6.95647 16.7148 6.85156 16.5853 6.85156Z" fill="black"/>
    <path d="M15.6045 8.14587C15.5586 8.14587 15.5133 8.14784 15.4685 8.15169C15.3395 8.16265 15.2439 8.27609 15.2548 8.40509C15.2657 8.53409 15.3795 8.62944 15.5082 8.61884C15.5399 8.61612 15.572 8.61472 15.6045 8.61472C16.255 8.61472 16.7842 9.14394 16.7842 9.79447C16.7842 10.4449 16.255 10.9741 15.6045 10.9741C15.57 10.9741 15.535 10.9722 15.4974 10.9683C15.3688 10.9551 15.2535 11.0485 15.24 11.1773C15.2266 11.306 15.3202 11.4212 15.449 11.4346C15.502 11.4402 15.5544 11.4429 15.6045 11.4429C16.5135 11.4429 17.253 10.7034 17.253 9.79447C17.253 8.88556 16.5135 8.14587 15.6045 8.14587Z" fill="black"/>
    <path d="M8.48588 10.9699C8.45616 10.9726 8.42616 10.9741 8.39579 10.9741C7.74525 10.9741 7.21604 10.4448 7.21604 9.7944C7.21604 9.14387 7.74525 8.61465 8.39579 8.61465C8.42682 8.61465 8.45757 8.61596 8.48785 8.6185C8.61704 8.62965 8.73001 8.5329 8.74041 8.4039C8.75091 8.2749 8.65482 8.16175 8.52582 8.15134C8.48288 8.14787 8.43957 8.146 8.39569 8.146C7.48669 8.146 6.74719 8.8855 6.74719 9.7945C6.74719 10.7035 7.48669 11.4429 8.39569 11.4429C8.44032 11.4429 8.48429 11.4407 8.52788 11.4368C8.65679 11.4252 8.75194 11.3113 8.74032 11.1824C8.72869 11.0534 8.6146 10.958 8.48588 10.9699Z" fill="black"/>
    <path d="M18.8371 20.5181H17.0035C16.8741 20.5181 16.7692 20.623 16.7692 20.7524C16.7692 20.8819 16.8741 20.9868 17.0035 20.9868H18.8371C18.9666 20.9868 19.0715 20.8819 19.0715 20.7524C19.0715 20.623 18.9666 20.5181 18.8371 20.5181Z" fill="black"/>
    <path d="M6.93861 20.5181H5.1283C4.99883 20.5181 4.89392 20.623 4.89392 20.7524C4.89392 20.8819 4.99883 20.9868 5.1283 20.9868H6.9387C7.06817 20.9868 7.17308 20.8819 7.17308 20.7524C7.17308 20.623 7.06808 20.5181 6.93861 20.5181Z" fill="black"/>
    <path d="M16.5751 13.9603H7.42493C7.20621 13.9603 7.02893 14.1376 7.02893 14.3563V21.0144C7.02893 21.2331 7.20621 21.4104 7.42493 21.4104H16.5752C16.7939 21.4104 16.9712 21.2331 16.9712 21.0144V14.3563C16.9712 14.1377 16.7938 13.9603 16.5751 13.9603Z" fill="#EDF4FC"/>
    <path d="M17.1676 21.4104H6.83257C6.67826 21.4104 6.5531 21.5356 6.5531 21.6899C6.5531 22.1632 6.93682 22.5468 7.41007 22.5468H16.5901C17.0634 22.5468 17.447 22.1631 17.447 21.6899C17.447 21.5356 17.322 21.4104 17.1676 21.4104Z" fill="#DAE6F1"/>
    <path d="M12.6662 17.451H11.3339C11.2044 17.451 11.0995 17.556 11.0995 17.6854C11.0995 17.8149 11.2044 17.9198 11.3339 17.9198H12.6662C12.7957 17.9198 12.9006 17.8149 12.9006 17.6854C12.9006 17.556 12.7957 17.451 12.6662 17.451Z" fill="black"/>
    <path d="M16.5751 13.726H7.42493C7.07731 13.726 6.79456 14.0088 6.79456 14.3563V21.0144C6.79456 21.362 7.0774 21.6447 7.42493 21.6447H16.5752C16.9228 21.6447 17.2056 21.3619 17.2056 21.0144V14.3563C17.2055 14.0088 16.9227 13.726 16.5751 13.726ZM16.7367 21.0144C16.7367 21.1035 16.6643 21.176 16.5751 21.176H7.42493C7.33577 21.176 7.26331 21.1035 7.26331 21.0144V14.3563C7.26331 14.2672 7.33577 14.1947 7.42493 14.1947H16.5752C16.6644 14.1947 16.7368 14.2672 16.7368 14.3563V21.0144H16.7367Z" fill="black"/>
    <path d="M17.1676 21.176H6.83257C6.54926 21.176 6.31873 21.4066 6.31873 21.6899C6.31873 22.2917 6.80829 22.7813 7.41007 22.7813H16.5901C17.1919 22.7813 17.6814 22.2917 17.6814 21.6899C17.6814 21.4066 17.4509 21.176 17.1676 21.176ZM16.5901 22.3126H7.41007C7.06676 22.3126 6.78748 22.0333 6.78748 21.6899C6.78748 21.665 6.80773 21.6448 6.83257 21.6448H17.1676C17.1924 21.6448 17.2127 21.665 17.2127 21.6899C17.2127 22.0333 16.9334 22.3126 16.5901 22.3126Z" fill="black"/>
    <path d="M17.8378 7.31678C19.3308 7.31678 20.541 6.10652 20.541 4.61359C20.541 3.12066 19.3308 1.9104 17.8378 1.9104C16.3449 1.9104 15.1346 3.12066 15.1346 4.61359C15.1346 6.10652 16.3449 7.31678 17.8378 7.31678Z" fill="#B2E26D"/>
    <path d="M19.1143 3.84796C18.92 3.65371 18.6051 3.65371 18.4107 3.84796L17.6124 4.64624L17.2123 4.24611C17.018 4.05186 16.7031 4.05186 16.5087 4.24611C16.3145 4.44036 16.3145 4.75546 16.5087 4.94971L17.2607 5.70168C17.3578 5.7988 17.4851 5.84736 17.6125 5.84736C17.7398 5.84736 17.8672 5.7988 17.9644 5.70168L19.1144 4.55165C19.3086 4.35721 19.3086 4.04221 19.1143 3.84796Z" fill="#EDF4FC"/>
    <path d="M19.28 3.68207C18.9947 3.39688 18.5304 3.39678 18.2449 3.68207L17.6124 4.3146L17.378 4.08022C17.0927 3.79503 16.6283 3.79494 16.3429 4.08022C16.0576 4.3655 16.0576 4.82994 16.3429 5.11522L17.0949 5.86719C17.2332 6.00538 17.417 6.0815 17.6124 6.0815C17.8079 6.0815 17.9916 6.00538 18.13 5.8671L19.2801 4.71707C19.5654 4.43178 19.5654 3.96753 19.28 3.68207ZM18.9486 4.38575L17.7986 5.53578C17.6992 5.63525 17.5259 5.63525 17.4264 5.53578L16.6744 4.78382C16.5719 4.68116 16.5719 4.51428 16.6744 4.41172C16.7257 4.36044 16.7931 4.33475 16.8605 4.33475C16.9279 4.33475 16.9953 4.36035 17.0466 4.41163L17.4468 4.81175C17.5383 4.90335 17.6867 4.90335 17.7782 4.81175L18.5763 4.01357C18.6791 3.91091 18.846 3.911 18.9485 4.01347C19.0512 4.11622 19.0512 4.28319 18.9486 4.38575Z" fill="black"/>
    <path d="M17.8378 1.6759C16.218 1.6759 14.9003 2.99365 14.9003 4.61347C14.9003 6.23328 16.218 7.55103 17.8378 7.55103C19.4576 7.55103 20.7754 6.23328 20.7754 4.61347C20.7754 2.99365 19.4575 1.6759 17.8378 1.6759ZM17.8378 7.08228C16.4765 7.08228 15.369 5.97481 15.369 4.61347C15.369 3.25212 16.4765 2.14465 17.8378 2.14465C19.1992 2.14465 20.3066 3.25212 20.3066 4.61347C20.3066 5.97481 19.1992 7.08228 17.8378 7.08228Z" fill="black"/>
    <path d="M22.5203 22.3125H1.47979C1.14895 22.3125 0.879883 22.5817 0.879883 22.9124V23.4C0.879883 23.7308 1.14904 23.9999 1.47979 23.9999H22.5203C22.8511 23.9999 23.1202 23.7308 23.1202 23.4V22.9124C23.1202 22.5817 22.8511 22.3125 22.5203 22.3125ZM22.6514 23.4001C22.6514 23.4724 22.5926 23.5312 22.5203 23.5312H1.47979C1.40751 23.5312 1.34863 23.4724 1.34863 23.4001V22.9125C1.34863 22.8402 1.40751 22.7813 1.47979 22.7813H22.5203C22.5926 22.7813 22.6514 22.8402 22.6514 22.9125V23.4001Z" fill="black"/>
    <path d="M4.68263 20.8125H3.28612C2.71481 20.8125 2.25 21.2773 2.25 21.8486V22.5469C2.25 22.6763 2.35491 22.7812 2.48438 22.7812H5.48438C5.61384 22.7812 5.71875 22.6763 5.71875 22.5469V21.8486C5.71875 21.2773 5.25394 20.8125 4.68263 20.8125ZM5.25 22.3125H2.71875V21.8486C2.71875 21.5358 2.97328 21.2812 3.28612 21.2812H4.68263C4.99547 21.2812 5.25 21.5358 5.25 21.8486V22.3125Z" fill="black"/>
  </g>
  <defs>
    <clipPath id="clip0_819_33">
      <rect width="24" height="24" fill="white"/>
    </clipPath>
  </defs>
</svg>