<svg width="24" height="24" viewBox="0 0 24 24" fill="none" xmlns="http://www.w3.org/2000/svg">
<path fill-rule="evenodd" clip-rule="evenodd" d="M4.99872 0H19.0003C21.7622 0 24 2.40768 24 5.37792V18.6221C24 21.5923 21.7622 24 19.0013 24H4.99872C2.23776 24 0 21.5923 0 18.6221V5.37792C0 2.40768 2.23776 0 4.99872 0Z" fill="#0052FF"/>
<path fill-rule="evenodd" clip-rule="evenodd" d="M12 3.4762C16.7079 3.4762 20.5239 7.2922 20.5239 12C20.5239 16.7079 16.7079 20.5239 12 20.5239C7.2922 20.5239 3.4762 16.7079 3.4762 12C3.4762 7.2922 7.2922 3.4762 12 3.4762Z" fill="white"/>
<path fill-rule="evenodd" clip-rule="evenodd" d="M9.90047 9.27551H14.0986C14.4442 9.27551 14.7235 9.57695 14.7235 9.94751V14.0515C14.7235 14.423 14.4432 14.7235 14.0986 14.7235H9.90047C9.55487 14.7235 9.27551 14.4221 9.27551 14.0515V9.94751C9.27551 9.57695 9.55583 9.27551 9.90047 9.27551Z" fill="#0052FF"/>
</svg>
