<svg width="24" height="24" viewBox="0 0 24 24" fill="none" xmlns="http://www.w3.org/2000/svg">
<path fill-rule="evenodd" clip-rule="evenodd" d="M12 0C18.6281 0 24 5.37186 24 12C24 18.6281 18.6281 24 12 24C5.37188 24 0 18.6281 0 12C0 5.37186 5.37188 0 12 0Z" fill="url(#paint0_radial_450_3215)"/>
<path d="M7.62659 9.26714C10.0407 6.90933 13.9594 6.90933 16.3735 9.26714L16.6641 9.55307C16.786 9.67026 16.786 9.86245 16.6641 9.97963L15.6703 10.9499C15.6094 11.0109 15.511 11.0109 15.45 10.9499L15.0516 10.5609C13.3641 8.91557 10.636 8.91557 8.94846 10.5609L8.5219 10.9781C8.46096 11.039 8.36252 11.039 8.30159 10.9781L7.30784 10.0078C7.18596 9.89057 7.18596 9.69838 7.30784 9.5812L7.62659 9.26714ZM18.4313 11.2734L19.3172 12.1359C19.4391 12.2531 19.4391 12.4453 19.3172 12.5624L15.3281 16.4577C15.2063 16.5749 15.0094 16.5749 14.8922 16.4577L12.061 13.6921C12.0328 13.664 11.9813 13.664 11.9531 13.6921L9.1219 16.4577C9.00002 16.5749 8.80315 16.5749 8.68596 16.4577L4.68284 12.5624C4.56096 12.4453 4.56096 12.2531 4.68284 12.1359L5.56877 11.2734C5.69065 11.1562 5.88753 11.1562 6.00471 11.2734L8.83596 14.039C8.86409 14.0671 8.91565 14.0671 8.94377 14.039L11.775 11.2734C11.8969 11.1562 12.0938 11.1562 12.211 11.2734L15.0422 14.039C15.0703 14.0671 15.1219 14.0671 15.15 14.039L17.9813 11.2734C18.1125 11.1562 18.3094 11.1562 18.4313 11.2734Z" fill="white"/>
<defs>
<radialGradient id="paint0_radial_450_3215" cx="0" cy="0" r="1" gradientUnits="userSpaceOnUse" gradientTransform="translate(7.43866e-05 12.0003) scale(24 24)">
<stop stop-color="#5D9DF6"/>
<stop offset="1" stop-color="#006FFF"/>
</radialGradient>
</defs>
</svg>
