<svg width="32" height="24" viewBox="0 0 32 24" fill="none" xmlns="http://www.w3.org/2000/svg">
<g clip-path="url(#clip0_336_12)">
<path fill-rule="evenodd" clip-rule="evenodd" d="M0 0H60.8006V1.84617H0V0ZM0 3.69234H60.8006V5.53852H0V3.69234ZM0 7.38469H60.8006V9.23086H0V7.38469ZM0 11.077H60.8006V12.9232H0V11.077ZM0 14.7694H60.8006V16.6155H0V14.7694ZM0 18.4617H60.8006V20.3079H0V18.4617ZM0 22.1541H60.8006V24.0002H0V22.1541Z" fill="#BD3D44"/>
<path fill-rule="evenodd" clip-rule="evenodd" d="M0 1.84619H60.8006V3.69236H0V1.84619ZM0 5.53853H60.8006V7.38471H0V5.53853ZM0 9.23088H60.8006V11.0771H0V9.23088ZM0 12.9232H60.8006V14.7694H0V12.9232ZM0 16.6156H60.8006V18.4617H0V16.6156ZM0 20.3079H60.8006V22.1541H0V20.3079Z" fill="white"/>
<path fill-rule="evenodd" clip-rule="evenodd" d="M0 0H24.3202V12.9232H0V0Z" fill="#192F5D"/>
<path fill-rule="evenodd" clip-rule="evenodd" d="M2.01844 0.553833L2.2646 1.07076H2.95384L2.38768 1.38461L2.60922 1.88308L2.01844 1.56923L1.4769 1.88308L1.69844 1.38461L1.10767 1.07076H1.84613L2.01844 0.553833ZM6.08002 0.553833L6.30156 1.07076H7.01542L6.42464 1.38461L6.6708 1.88308L6.08002 1.56923L5.48925 1.88308L5.7354 1.38461L5.14463 1.07076H5.85848L6.08002 0.553833ZM10.1416 0.553833L10.3631 1.07076H11.077L10.4862 1.38461L10.7324 1.88308L10.1416 1.56923L9.55083 1.88308L9.79698 1.38461L9.20621 1.07076H9.92006L10.1416 0.553833ZM14.1786 0.553833L14.4247 1.07076H15.114L14.5478 1.38461L14.7693 1.88308L14.1786 1.56923L13.6124 1.88308L13.8339 1.38461L13.2432 1.07076H13.9816L14.1786 0.553833ZM18.2401 0.553833L18.4617 1.07076H19.1755L18.5848 1.38461L18.8309 1.88308L18.2155 1.56923L17.6494 1.88308L17.8709 1.38461L17.2801 1.07076H17.994L18.2401 0.553833ZM22.3017 0.553833L22.5233 1.07076H23.2371L22.6463 1.38461L22.8925 1.88308L22.3017 1.56923L21.7109 1.88308L21.9571 1.38461L21.3663 1.07076H22.0802L22.3017 0.553833ZM4.06154 1.84615L4.28308 2.36308H4.99693L4.40616 2.67693L4.65232 3.1754L4.06154 2.86155L3.47077 3.1754L3.71692 2.67693L3.12615 2.36308H3.84L4.06154 1.84615ZM8.0985 1.84615L8.34466 2.36308H9.0339L8.46774 2.67693L8.68928 3.1754L8.0985 2.86155L7.53234 3.1754L7.75389 2.67693L7.16311 2.36308H7.90158L8.0985 1.84615ZM12.1601 1.84615L12.3816 2.36308H13.0955L12.5047 2.67693L12.7509 3.1754L12.1601 2.86155L11.5693 3.1754L11.8155 2.67693L11.2247 2.36308H11.9385L12.1601 1.84615ZM16.2217 1.84615L16.4432 2.36308H17.1571L16.5663 2.67693L16.8124 3.1754L16.2217 2.86155L15.6309 3.1754L15.877 2.67693L15.2863 2.36308H16.0001L16.2217 1.84615ZM20.2586 1.84615L20.5048 2.36308H21.1694L20.6032 2.67693L20.8248 3.1754L20.234 2.86155L19.6678 3.1754L19.8894 2.67693L19.2986 2.36308H20.0371L20.2586 1.84615ZM2.04306 3.13847L2.23998 3.6554H2.97845L2.38768 3.96925L2.60922 4.46772L2.01844 4.15387L1.4769 4.46772L1.69844 3.96925L1.10767 3.6554H1.84613L2.04306 3.13847ZM6.08002 3.13847L6.30156 3.6554H7.01542L6.44926 3.96925L6.6708 4.46772L6.08002 4.15387L5.51386 4.46772L5.7354 3.96925L5.14463 3.6554H5.85848L6.08002 3.13847ZM10.1416 3.13847L10.3631 3.6554H11.077L10.4862 3.96925L10.7324 4.46772L10.1416 4.15387L9.55083 4.46772L9.79698 3.96925L9.20621 3.6554H9.92006L10.1416 3.13847ZM14.1786 3.13847L14.4247 3.6554H15.114L14.5478 3.96925L14.7693 4.46772L14.1786 4.15387L13.6124 4.46772L13.8339 3.96925L13.2432 3.6554H13.9816L14.1786 3.13847ZM18.2401 3.13847L18.4617 3.6554H19.1755L18.6094 3.96925L18.8309 4.46772L18.2401 4.15387L17.674 4.46772L17.8955 3.96925L17.3047 3.6554H18.0186L18.2401 3.13847ZM22.3017 3.13847L22.5233 3.6554H23.2371L22.6463 3.96925L22.8925 4.46772L22.3017 4.15387L21.7109 4.46772L21.9571 3.96925L21.3663 3.6554H22.0802L22.3017 3.13847ZM4.06154 4.43079L4.28308 4.94772H4.99693L4.40616 5.26157L4.65232 5.76004L4.06154 5.44619L3.47077 5.76004L3.71692 5.26157L3.12615 4.94772H3.84L4.06154 4.43079ZM8.0985 4.43079L8.34466 4.94772H9.0339L8.46774 5.26157L8.68928 5.76004L8.0985 5.44619L7.53234 5.76004L7.75389 5.26157L7.16311 4.94772H7.90158L8.0985 4.43079ZM12.1601 4.43079L12.3816 4.94772H13.0955L12.5293 5.26157L12.7509 5.76004L12.1601 5.44619L11.5939 5.76004L11.8155 5.26157L11.2247 4.94772H11.9385L12.1601 4.43079ZM16.2217 4.43079L16.4432 4.94772H17.1571L16.5663 5.26157L16.8124 5.76004L16.2217 5.44619L15.6309 5.76004L15.877 5.26157L15.2863 4.94772H16.0001L16.2217 4.43079ZM20.2586 4.43079L20.5048 4.94772H21.1694L20.6032 5.26157L20.8248 5.76004L20.234 5.44619L19.6678 5.76004L19.8894 5.26157L19.2986 4.94772H20.0371L20.2586 4.43079ZM2.04306 5.72311L2.23998 6.24004H2.97845L2.38768 6.55389L2.60922 7.05236L2.01844 6.73851L1.4769 7.05236L1.69844 6.55389L1.10767 6.24004H1.84613L2.04306 5.72311ZM6.08002 5.72311L6.30156 6.24004H7.01542L6.44926 6.55389L6.6708 7.05236L6.08002 6.73851L5.51386 7.05236L5.7354 6.55389L5.14463 6.24004H5.85848L6.08002 5.72311ZM10.1416 5.72311L10.3631 6.24004H11.077L10.4862 6.55389L10.7324 7.05236L10.1416 6.73851L9.55083 7.05236L9.79698 6.55389L9.20621 6.24004H9.92006L10.1416 5.72311ZM14.1786 5.72311L14.4247 6.24004H15.114L14.5478 6.55389L14.7693 7.05236L14.1786 6.73851L13.6124 7.05236L13.8339 6.55389L13.2432 6.24004H13.9816L14.1786 5.72311ZM18.2401 5.72311L18.4617 6.24004H19.1755L18.6094 6.55389L18.8309 7.05236L18.2401 6.73851L17.674 7.05236L17.8955 6.55389L17.3047 6.24004H18.0186L18.2401 5.72311ZM22.3017 5.72311L22.5233 6.24004H23.2371L22.6463 6.55389L22.8925 7.05236L22.3017 6.73851L21.7109 7.05236L21.9571 6.55389L21.3663 6.24004H22.0802L22.3017 5.72311ZM4.06154 7.01543L4.28308 7.53236H4.99693L4.40616 7.84621L4.65232 8.34468L4.06154 8.03083L3.47077 8.34468L3.71692 7.84621L3.12615 7.53236H3.84L4.06154 7.01543ZM8.0985 7.01543L8.34466 7.53236H9.0339L8.46774 7.84621L8.68928 8.34468L8.0985 8.03083L7.53234 8.34468L7.75389 7.84621L7.16311 7.53236H7.90158L8.0985 7.01543ZM12.1601 7.01543L12.3816 7.53236H13.0955L12.5293 7.84621L12.7509 8.34468L12.1601 8.03083L11.5939 8.34468L11.8155 7.84621L11.2247 7.53236H11.9385L12.1601 7.01543ZM16.2217 7.01543L16.4432 7.53236H17.1571L16.5663 7.84621L16.8124 8.34468L16.2217 8.03083L15.6309 8.34468L15.877 7.84621L15.2863 7.53236H16.0001L16.2217 7.01543ZM20.2586 7.01543L20.5048 7.53236H21.1694L20.6032 7.84621L20.8248 8.34468L20.234 8.03083L19.6678 8.34468L19.8894 7.84621L19.2986 7.53236H20.0371L20.2586 7.01543ZM2.04306 8.30776L2.23998 8.82468H2.97845L2.38768 9.13853L2.60922 9.637L2.01844 9.32315L1.4769 9.637L1.69844 9.13853L1.10767 8.82468H1.84613L2.04306 8.30776ZM6.08002 8.30776L6.30156 8.82468H7.01542L6.44926 9.13853L6.6708 9.637L6.08002 9.32315L5.51386 9.637L5.7354 9.13853L5.14463 8.82468H5.85848L6.08002 8.30776ZM10.1416 8.30776L10.3631 8.82468H11.077L10.4862 9.13853L10.7324 9.637L10.1416 9.32315L9.55083 9.637L9.79698 9.13853L9.20621 8.82468H9.92006L10.1416 8.30776ZM14.1786 8.30776L14.4247 8.82468H15.114L14.5478 9.13853L14.7693 9.637L14.1786 9.32315L13.6124 9.637L13.8339 9.13853L13.2432 8.82468H13.9816L14.1786 8.30776ZM18.2401 8.30776L18.4617 8.82468H19.1755L18.6094 9.13853L18.8309 9.637L18.2401 9.32315L17.674 9.637L17.8955 9.13853L17.3047 8.82468H18.0186L18.2401 8.30776ZM22.3017 8.30776L22.5233 8.82468H23.2371L22.6463 9.13853L22.8925 9.637L22.3017 9.32315L21.7109 9.637L21.9571 9.13853L21.3663 8.82468H22.0802L22.3017 8.30776ZM4.06154 9.60008L4.28308 10.117H4.99693L4.40616 10.4309L4.65232 10.9293L4.06154 10.6155L3.47077 10.9293L3.71692 10.4309L3.12615 10.117H3.84L4.06154 9.60008ZM8.0985 9.60008L8.34466 10.117H9.0339L8.46774 10.4309L8.68928 10.9293L8.0985 10.6155L7.53234 10.9293L7.75389 10.4309L7.16311 10.117H7.90158L8.0985 9.60008ZM12.1601 9.60008L12.3816 10.117H13.0955L12.5293 10.4309L12.7509 10.9293L12.1601 10.6155L11.5939 10.9293L11.8155 10.4309L11.2247 10.117H11.9385L12.1601 9.60008ZM16.2217 9.60008L16.4432 10.117H17.1571L16.5663 10.4309L16.8124 10.9293L16.2217 10.6155L15.6309 10.9293L15.877 10.4309L15.2863 10.117H16.0001L16.2217 9.60008ZM20.2586 9.60008L20.5048 10.117H21.1694L20.6032 10.4309L20.8248 10.9293L20.234 10.6155L19.6678 10.9293L19.8894 10.4309L19.2986 10.117H20.0371L20.2586 9.60008ZM2.04306 10.8924L2.23998 11.4093H2.97845L2.38768 11.7232L2.60922 12.2216L2.01844 11.9078L1.4769 12.2216L1.69844 11.7232L1.10767 11.4093H1.84613L2.04306 10.8924ZM6.08002 10.8924L6.30156 11.4093H7.01542L6.44926 11.7232L6.6708 12.2216L6.08002 11.9078L5.51386 12.2216L5.7354 11.7232L5.14463 11.4093H5.85848L6.08002 10.8924ZM10.1416 10.8924L10.3631 11.4093H11.077L10.4862 11.7232L10.7324 12.2216L10.1416 11.9078L9.55083 12.2216L9.79698 11.7232L9.20621 11.4093H9.92006L10.1416 10.8924ZM14.1786 10.8924L14.4247 11.4093H15.114L14.5478 11.7232L14.7693 12.2216L14.1786 11.9078L13.6124 12.2216L13.8339 11.7232L13.2432 11.4093H13.9816L14.1786 10.8924ZM18.2401 10.8924L18.4617 11.4093H19.1755L18.6094 11.7232L18.8309 12.2216L18.2401 11.9078L17.674 12.2216L17.8955 11.7232L17.3047 11.4093H18.0186L18.2401 10.8924ZM22.3017 10.8924L22.5233 11.4093H23.2371L22.6463 11.7232L22.8925 12.2216L22.3017 11.9078L21.7109 12.2216L21.9571 11.7232L21.3663 11.4093H22.0802L22.3017 10.8924Z" fill="white"/>
</g>
<defs>
<clipPath id="clip0_336_12">
<rect width="32" height="24" fill="white"/>
</clipPath>
</defs>
</svg>
