<svg xmlns="http://www.w3.org/2000/svg" width="24" height="24" viewBox="0 0 24 24" fill="none">
  <g clip-path="url(#standard)">
    <path d="M17.23 12.0426C16.7688 11.8234 16.2982 11.6345 15.8194 11.4763C17.3701 10.3123 18.3751 8.45883 18.3751 6.375C18.3751 2.85984 15.5153 0 12.0001 0C8.48493 0 5.62513 2.85984 5.62513 6.375C5.62513 8.46113 6.63238 10.3164 8.18606 11.4802C6.76256 11.9489 5.42685 12.6781 4.25779 13.6397C2.1141 15.403 0.623619 17.8625 0.0609783 20.5651C-0.115365 21.412 0.0959002 22.2818 0.640494 22.9515C1.18242 23.6178 1.98599 24 2.84512 24H14.3908C14.9085 24 15.3283 23.5803 15.3283 23.0625C15.3283 22.5447 14.9085 22.125 14.3908 22.125H2.84512C2.4449 22.125 2.20345 21.9016 2.09517 21.7685C1.90818 21.5385 1.83581 21.2393 1.8966 20.9473C2.86949 16.2741 6.99149 12.8603 11.7516 12.7452C11.8341 12.7484 11.9169 12.75 12.0001 12.75C12.0842 12.75 12.1679 12.7484 12.2511 12.7451C13.7099 12.7793 15.1128 13.1123 16.425 13.7361C16.8927 13.9583 17.4519 13.7595 17.6742 13.2918C17.8965 12.8242 17.6977 12.2649 17.23 12.0426ZM12.2288 10.8692C12.1527 10.8679 12.0765 10.8672 12.0001 10.8672C11.9245 10.8672 11.8488 10.8679 11.7733 10.8693C9.39693 10.7508 7.50013 8.78025 7.50013 6.375C7.50013 3.89367 9.51881 1.875 12.0001 1.875C14.4815 1.875 16.5001 3.89367 16.5001 6.375C16.5001 8.77964 14.6043 10.7498 12.2288 10.8692Z" fill="currentColor"/>
    <path d="M23.0626 18.6094H20.4845V16.0312C20.4845 15.5135 20.0648 15.0938 19.547 15.0938C19.0292 15.0938 18.6095 15.5135 18.6095 16.0312V18.6094H16.0314C15.5136 18.6094 15.0939 19.0291 15.0939 19.5469C15.0939 20.0647 15.5136 20.4844 16.0314 20.4844H18.6095V23.0625C18.6095 23.5803 19.0292 24 19.547 24C20.0648 24 20.4845 23.5803 20.4845 23.0625V20.4844H23.0626C23.5804 20.4844 24.0001 20.0647 24.0001 19.5469C24.0001 19.0291 23.5804 18.6094 23.0626 18.6094Z" fill="currentColor"/>
  </g>
  <defs>
    <clipPath id="standard">
      <rect width="24" height="24" fill="white"/>
    </clipPath>
  </defs>
</svg>