<svg xmlns="http://www.w3.org/2000/svg" width="24" height="24" viewBox="0 0 24 24" fill="none">
  <g clip-path="url(#clip0_890_61)">
    <path d="M21.8887 0.115601H1.86483C0.836578 0.115601 0 0.952132 0 1.98038V13.2543C0 14.2826 0.836578 15.1191 1.86483 15.1191H6.47719C6.73711 15.1191 6.94777 14.9084 6.94777 14.6485C6.94777 14.3887 6.73706 14.178 6.47714 14.178H1.86483C1.35553 14.178 0.941203 13.7636 0.941203 13.2543V1.98038C0.941203 1.47109 1.35553 1.05676 1.86483 1.05676H21.8887C22.398 1.05676 22.8123 1.47109 22.8123 1.98038V13.2543C22.8123 13.7636 22.398 14.178 21.8887 14.178H20.4755C20.2156 14.178 20.0049 14.3887 20.0049 14.6485C20.0049 14.9084 20.2156 15.1191 20.4755 15.1191H21.8887C22.917 15.1191 23.7535 14.2826 23.7535 13.2543V1.98038C23.7535 0.952132 22.917 0.115601 21.8887 0.115601Z" fill="currentColor"/>
    <path d="M23.9996 17.4051C23.9876 17.034 23.755 16.7108 23.4069 16.5817V16.5816L15.6234 13.694C15.0963 13.4985 14.5219 13.624 14.1244 14.0214C13.7269 14.4188 13.6013 14.9931 13.7967 15.5202L16.677 23.2909C16.8067 23.6408 17.1315 23.8736 17.5045 23.884C17.5132 23.8843 17.5218 23.8843 17.5305 23.8843C17.893 23.8843 18.2182 23.6721 18.3637 23.338L19.1605 21.5089L20.8878 23.2368C21.3794 23.7285 22.1795 23.7287 22.6713 23.237L23.3377 22.5709C23.5759 22.3327 23.7071 22.016 23.7072 21.6791C23.7072 21.3423 23.5761 21.0255 23.338 20.7873L21.6324 19.0814L23.4613 18.265C23.8003 18.1136 24.0116 17.7761 23.9996 17.4051ZM20.6243 18.5007C20.4828 18.5638 20.3815 18.6925 20.3533 18.8448C20.3252 18.9971 20.3738 19.1535 20.4833 19.2631L22.6723 21.4528C22.7971 21.5776 22.7971 21.7805 22.6723 21.9053L22.006 22.5715C21.9455 22.6319 21.8652 22.6651 21.7797 22.6651H21.7797C21.6942 22.6651 21.6138 22.6318 21.5534 22.5714L19.3377 20.355C19.2276 20.2449 19.0703 20.1965 18.9173 20.2254C18.7643 20.2543 18.6356 20.3571 18.5734 20.4998L17.5322 22.8902L14.6792 15.1932C14.58 14.9254 14.7388 14.738 14.7899 14.687C14.8292 14.6477 14.9494 14.5445 15.1249 14.5445C15.1773 14.5445 15.2346 14.5536 15.2961 14.5765L23.0069 17.4371L20.6243 18.5007ZM23.0799 17.4643C23.0798 17.4642 23.0797 17.4641 23.0795 17.4641L23.2432 17.0229L23.0799 17.4643Z" fill="currentColor"/>
    <path d="M13.4028 12.6319L12.073 11.3021C11.8892 11.1184 11.5913 11.1184 11.4075 11.3021C11.2237 11.4859 11.2237 11.7838 11.4075 11.9676L12.7373 13.2975C12.8292 13.3893 12.9496 13.4353 13.07 13.4353C13.1904 13.4353 13.3109 13.3893 13.4028 13.2975C13.5866 13.1137 13.5866 12.8157 13.4028 12.6319Z" fill="currentColor"/>
    <path d="M12.0983 14.1821H10.2176C9.95773 14.1821 9.74707 14.3928 9.74707 14.6527C9.74707 14.9126 9.95777 15.1233 10.2176 15.1233H12.0983C12.3581 15.1233 12.5689 14.9126 12.5689 14.6527C12.5689 14.3928 12.3581 14.1821 12.0983 14.1821Z" fill="currentColor"/>
    <path d="M14.7986 9.60107C14.5387 9.60107 14.328 9.81178 14.328 10.0717V11.9523C14.328 12.2122 14.5387 12.4229 14.7986 12.4229C15.0585 12.4229 15.2692 12.2122 15.2692 11.9523V10.0717C15.2692 9.81178 15.0585 9.60107 14.7986 9.60107Z" fill="currentColor"/>
    <path d="M18.7494 10.4753C18.5656 10.2916 18.2677 10.2916 18.0839 10.4753L16.7541 11.8051C16.5703 11.9889 16.5703 12.2868 16.754 12.4706C16.8459 12.5625 16.9664 12.6085 17.0868 12.6085C17.2073 12.6085 17.3277 12.5625 17.4196 12.4706L18.7494 11.1409C18.9332 10.9571 18.9332 10.6591 18.7494 10.4753Z" fill="currentColor"/>
    <path d="M12.857 16.3676C12.6732 16.1839 12.3753 16.1839 12.1915 16.3676L10.8617 17.6975C10.6779 17.8813 10.678 18.1792 10.8617 18.363C10.9536 18.4549 11.074 18.5008 11.1945 18.5008C11.3149 18.5008 11.4354 18.4549 11.5272 18.363L12.857 17.0332C13.0408 16.8494 13.0408 16.5514 12.857 16.3676Z" fill="currentColor"/>
    <path d="M8.34422 15.1205C8.60492 15.1205 8.81625 14.9091 8.81625 14.6484C8.81625 14.3877 8.60492 14.1764 8.34422 14.1764C8.08353 14.1764 7.87219 14.3877 7.87219 14.6484C7.87219 14.9091 8.08353 15.1205 8.34422 15.1205Z" fill="currentColor"/>
    <path d="M8.26237 7.06001C8.67477 6.881 8.92377 6.46081 8.92377 5.82275C8.92377 4.71781 8.16899 4.45325 7.35974 4.45325H5.85796C5.6323 4.45325 5.41443 4.56218 5.41443 4.77228V9.83009C5.41443 9.99354 5.58562 10.1414 5.85796 10.1414H7.50758C8.38687 10.1414 9.06383 9.70564 9.06383 8.49176V8.32836C9.06383 7.55018 8.73702 7.24676 8.26237 7.06001ZM6.41821 5.34031H7.28193C7.67877 5.34031 7.91221 5.58926 7.91221 5.99393C7.91221 6.39073 7.7099 6.66308 7.28971 6.66308H6.41821V5.34031ZM8.05232 8.40612C8.05232 8.9975 7.77219 9.25433 7.29754 9.25433H6.41826V7.45681H7.29754C7.77219 7.45681 8.05232 7.67468 8.05232 8.28162V8.40612Z" fill="currentColor"/>
    <path d="M12.9934 4.45325C12.7366 4.45325 12.4876 4.54662 12.4876 4.7645V8.40612C12.4876 9.01306 12.1686 9.30097 11.6317 9.30097C11.0948 9.30097 10.7757 9.01306 10.7757 8.40612V4.7645C10.7757 4.54658 10.5189 4.45325 10.2699 4.45325C10.0132 4.45325 9.76416 4.54662 9.76416 4.7645V8.40612C9.76416 9.70559 10.5812 10.1881 11.6317 10.1881C12.6743 10.1881 13.4992 9.70559 13.4992 8.40612V4.7645C13.4992 4.54658 13.2424 4.45325 12.9934 4.45325Z" fill="currentColor"/>
    <path d="M17.6699 4.45325C17.5065 4.45325 17.4364 4.52328 17.3664 4.65551L16.1759 6.90434L14.9931 4.65551C14.9231 4.5155 14.8453 4.45325 14.6819 4.45325C14.4095 4.45325 14.0127 4.62439 14.0127 4.87343C14.0127 4.89678 14.0205 4.93568 14.036 4.97459L15.6468 7.76028C15.6623 7.78362 15.6701 7.82253 15.6701 7.86143V9.82231C15.6701 10.0325 15.9269 10.1414 16.1759 10.1414C16.4327 10.1414 16.6817 10.0324 16.6817 9.82231V7.86143C16.6817 7.82253 16.6972 7.78362 16.7128 7.76028L18.3157 4.97459C18.3391 4.93568 18.3391 4.89678 18.3391 4.87343C18.3391 4.62439 17.9422 4.45325 17.6699 4.45325Z" fill="currentColor"/>
  </g>
  <defs>
    <clipPath id="clip0_890_61">
      <rect width="24" height="24" fill="white"/>
    </clipPath>
  </defs>
</svg>