<svg width="24" height="24" viewBox="0 0 24 24" fill="none" xmlns="http://www.w3.org/2000/svg">
<path d="M15 4.875C15 4.35583 14.846 3.84831 14.5576 3.41663C14.2692 2.98495 13.8592 2.6485 13.3795 2.44982C12.8999 2.25114 12.3721 2.19915 11.8629 2.30044C11.3537 2.40173 10.886 2.65173 10.5188 3.01885C10.1517 3.38596 9.90173 3.85369 9.80044 4.36289C9.69915 4.87209 9.75114 5.39989 9.94982 5.87955C10.1485 6.3592 10.485 6.76917 10.9166 7.05761C11.3483 7.34605 11.8558 7.5 12.375 7.5C13.071 7.49921 13.7382 7.22239 14.2303 6.73028C14.7224 6.23817 14.9992 5.57095 15 4.875ZM10.5 4.875C10.5 4.50416 10.61 4.14165 10.816 3.83331C11.022 3.52496 11.3149 3.28464 11.6575 3.14273C12.0001 3.00081 12.3771 2.96368 12.7408 3.03603C13.1045 3.10838 13.4386 3.28695 13.7008 3.54918C13.9631 3.8114 14.1416 4.14549 14.214 4.50921C14.2863 4.87292 14.2492 5.24992 14.1073 5.59253C13.9654 5.93514 13.725 6.22798 13.4167 6.43401C13.1084 6.64003 12.7458 6.75 12.375 6.75C11.8779 6.74941 11.4013 6.55167 11.0498 6.20017C10.6983 5.84867 10.5006 5.3721 10.5 4.875Z" fill="currentColor"/>
<path d="M18.375 0.75H6.375C5.97718 0.75 5.59564 0.908035 5.31434 1.18934C5.03304 1.47064 4.875 1.85218 4.875 2.25C4.875 2.64782 5.03304 3.02936 5.31434 3.31066C5.59564 3.59196 5.97718 3.75 6.375 3.75H7.125V6.97875L5.535 9.73125C4.85151 10.9072 4.5661 12.2725 4.72125 13.6238L5.25 18.3975V19.5H4.875C4.77554 19.5 4.68016 19.5395 4.60984 19.6098C4.53951 19.6802 4.5 19.7755 4.5 19.875V22.875C4.5 22.9745 4.53951 23.0698 4.60984 23.1402C4.68016 23.2105 4.77554 23.25 4.875 23.25H11.625C11.7245 23.25 11.8198 23.2105 11.8902 23.1402C11.9605 23.0698 12 22.9745 12 22.875V19.875C12 19.7755 11.9605 19.6802 11.8902 19.6098C11.8198 19.5395 11.7245 19.5 11.625 19.5H11.3138L11.7863 18.7125C12.1722 18.0705 12.3758 17.3354 12.375 16.5862V16.0988C12.3757 15.5732 12.2751 15.0525 12.0787 14.565L11.9513 14.25H17.25C17.3495 14.25 17.4448 14.2105 17.5152 14.1402C17.5855 14.0698 17.625 13.9745 17.625 13.875V3.75H18.375C18.7728 3.75 19.1544 3.59196 19.4357 3.31066C19.717 3.02936 19.875 2.64782 19.875 2.25C19.875 1.85218 19.717 1.47064 19.4357 1.18934C19.1544 0.908035 18.7728 0.75 18.375 0.75ZM7.875 10.9012C8.13283 10.9333 8.38512 11.0002 8.625 11.1V13.5H7.875V10.9012ZM6.375 3C6.17627 2.99941 5.98585 2.9202 5.84533 2.77967C5.7048 2.63915 5.62559 2.44873 5.625 2.25C5.62647 2.05154 5.70596 1.86163 5.8463 1.7213C5.98663 1.58096 6.17654 1.50147 6.375 1.5H7.125V3H6.375ZM11.25 22.5H5.25V20.25H11.25V22.5ZM11.625 16.5862C11.6259 17.1996 11.4585 17.8014 11.1412 18.3262L10.5525 19.3088C10.5182 19.3666 10.5 19.4327 10.5 19.5H6V18.375C6.00062 18.3611 5.99935 18.3473 5.99625 18.3337L5.46375 13.5413C5.32993 12.3482 5.5837 11.1438 6.1875 10.1063L7.125 8.47875V13.875C7.125 13.9745 7.16451 14.0698 7.23483 14.1402C7.30516 14.2105 7.40054 14.25 7.5 14.25H8.625V14.625H9.375V10.875C9.37559 10.6763 9.4548 10.4858 9.59533 10.3453C9.73585 10.2048 9.92627 10.1256 10.125 10.125C10.3235 10.1265 10.5134 10.206 10.6537 10.3463C10.794 10.4866 10.8735 10.6765 10.875 10.875V13.5C10.8743 13.5475 10.8832 13.5948 10.9012 13.6387L11.3813 14.8463C11.5433 15.2439 11.6261 15.6694 11.625 16.0988V16.5862ZM16.875 13.5H14.2762C14.3599 12.84 14.6607 12.2265 15.1311 11.7561C15.6015 11.2857 16.215 10.9849 16.875 10.9012V13.5ZM16.875 10.1437C16.0146 10.2311 15.2107 10.6127 14.5992 11.2242C13.9877 11.8357 13.6061 12.6396 13.5187 13.5H11.655L11.625 13.4288V10.875C11.6256 10.5251 11.5036 10.1859 11.2803 9.91657C11.0569 9.64719 10.7462 9.46455 10.4022 9.40039C10.0582 9.33622 9.70256 9.39457 9.39709 9.5653C9.09161 9.73603 8.85559 10.0084 8.73 10.335C8.45341 10.2389 8.16641 10.176 7.875 10.1475V1.5H16.875V10.1437ZM18.9037 2.77875C18.8346 2.84877 18.7523 2.90439 18.6615 2.94237C18.5708 2.98034 18.4734 2.99993 18.375 3H17.625V1.5H18.375C18.5737 1.50059 18.7642 1.5798 18.9047 1.72033C19.0452 1.86085 19.1244 2.05127 19.125 2.25C19.1249 2.34839 19.1053 2.44579 19.0674 2.53655C19.0294 2.62731 18.9738 2.70963 18.9037 2.77875Z" fill="currentColor"/>
<path d="M22.8396 12.966C22.8094 12.9014 22.7614 12.8468 22.7012 12.8085C22.641 12.7703 22.5712 12.75 22.4999 12.75H21.7499V6H20.9999V13.125C20.9999 13.2245 21.0394 13.3198 21.1097 13.3902C21.18 13.4605 21.2754 13.5 21.3749 13.5H21.6992L20.6249 14.7892L19.5505 13.5H19.8749C19.9743 13.5 20.0697 13.4605 20.14 13.3902C20.2104 13.3198 20.2499 13.2245 20.2499 13.125V6H19.4999V12.75H18.7499C18.6786 12.75 18.6088 12.7704 18.5487 12.8086C18.4886 12.8469 18.4406 12.9014 18.4104 12.966C18.3802 13.0305 18.369 13.1023 18.3781 13.173C18.3872 13.2436 18.4163 13.3102 18.4619 13.365L20.3369 15.615C20.3721 15.6572 20.4161 15.6912 20.4659 15.7145C20.5156 15.7378 20.5699 15.7498 20.6249 15.7498C20.6798 15.7498 20.7341 15.7378 20.7839 15.7145C20.8336 15.6912 20.8777 15.6572 20.9129 15.615L22.7879 13.365C22.8335 13.3103 22.8626 13.2437 22.8718 13.173C22.8809 13.1024 22.8698 13.0306 22.8396 12.966Z" fill="currentColor"/>
<path d="M5.58961 7.716C5.55938 7.65142 5.51135 7.5968 5.45118 7.55854C5.391 7.52028 5.32117 7.49998 5.24986 7.5H4.49986V0.75H3.74986V7.875C3.74986 7.97446 3.78937 8.06984 3.85969 8.14017C3.93002 8.21049 4.0254 8.25 4.12486 8.25H4.44923L3.37486 9.53925L2.30048 8.25H2.62486C2.72432 8.25 2.8197 8.21049 2.89002 8.14017C2.96035 8.06984 2.99986 7.97446 2.99986 7.875V0.75H2.24986V7.5H1.49986C1.4286 7.50003 1.35883 7.52035 1.29871 7.5586C1.23859 7.59685 1.19061 7.65143 1.16039 7.71596C1.13017 7.78049 1.11897 7.8523 1.12808 7.92297C1.1372 7.99364 1.16626 8.06025 1.21186 8.115L3.08686 10.365C3.12205 10.4072 3.16609 10.4412 3.21586 10.4645C3.26563 10.4878 3.31991 10.4998 3.37486 10.4998C3.42981 10.4998 3.48409 10.4878 3.53386 10.4645C3.58363 10.4412 3.62767 10.4072 3.66286 10.365L5.53786 8.115C5.5835 8.06028 5.61261 7.99369 5.62178 7.92303C5.63094 7.85236 5.61978 7.78055 5.58961 7.716Z" fill="currentColor"/>
</svg>
