<svg width="24" height="24" viewBox="0 0 24 24" fill="none" xmlns="http://www.w3.org/2000/svg">
<path d="M12 22.7501C9.14892 22.7501 6.41462 21.6175 4.3986 19.6015C2.38259 17.5854 1.25 14.8511 1.25 12.0001C1.25 9.14898 2.38259 6.41468 4.3986 4.39866C6.41462 2.38264 9.14892 1.25006 12 1.25006C13.6753 1.24451 15.3277 1.63876 16.82 2.40006C16.908 2.44471 16.9863 2.50625 17.0505 2.58117C17.1147 2.65609 17.1635 2.74293 17.1942 2.83671C17.2248 2.9305 17.2367 3.0294 17.2291 3.12778C17.2215 3.22615 17.1946 3.32207 17.15 3.41006C17.1054 3.49804 17.0438 3.57637 16.9689 3.64057C16.894 3.70478 16.8071 3.75359 16.7133 3.78424C16.6196 3.81488 16.5207 3.82675 16.4223 3.81917C16.3239 3.81159 16.228 3.78471 16.14 3.74006C14.8599 3.08029 13.4401 2.73736 12 2.74006C10.1709 2.74006 8.38295 3.28231 6.86202 4.29827C5.34108 5.31423 4.15548 6.7583 3.45508 8.44793C2.75467 10.1376 2.57091 11.9969 2.92701 13.791C3.28311 15.585 4.1631 17.2332 5.45574 18.5273C6.74837 19.8213 8.39563 20.7031 10.1893 21.0611C11.983 21.4191 13.8425 21.2374 15.5329 20.5388C17.2233 19.8402 18.6686 18.6562 19.6862 17.1364C20.7038 15.6165 21.248 13.8291 21.25 12.0001C21.2552 11.9168 21.2552 11.8333 21.25 11.7501C21.2314 11.5511 21.2926 11.353 21.4202 11.1992C21.5477 11.0454 21.7311 10.9486 21.93 10.9301C22.1289 10.9115 22.3271 10.9727 22.4808 11.1002C22.6346 11.2278 22.7314 11.4111 22.75 11.6101V12.0001C22.7474 14.8503 21.6139 17.5831 19.5985 19.5985C17.583 21.614 14.8503 22.7474 12 22.7501Z" fill="currentColor"/>
<path d="M11.82 15.41C11.7227 15.4115 11.6263 15.3927 11.5368 15.3548C11.4473 15.3169 11.3666 15.2608 11.3 15.19L6.46995 10.45C6.3295 10.3094 6.25061 10.1188 6.25061 9.92004C6.25061 9.72129 6.3295 9.53066 6.46995 9.39004C6.61352 9.25134 6.80533 9.17382 7.00495 9.17382C7.20457 9.17382 7.39639 9.25134 7.53995 9.39004L11.83 13.62L21.4799 4.13004C21.6235 3.99134 21.8153 3.91382 22.0149 3.91382C22.2146 3.91382 22.4064 3.99134 22.5499 4.13004C22.6904 4.27066 22.7693 4.46129 22.7693 4.66004C22.7693 4.85879 22.6904 5.04941 22.5499 5.19004L12.37 15.19C12.2984 15.2626 12.2126 15.3196 12.1179 15.3575C12.0233 15.3953 11.9218 15.4132 11.82 15.41Z" fill="currentColor"/>
</svg>
