<svg xmlns="http://www.w3.org/2000/svg" width="24" height="24" viewBox="0 0 24 24" fill="none">
  <path d="M17.2875 23.7749H3.83312C2.48432 23.7749 1.38672 22.6773 1.38672 21.3285V2.75035C1.38672 1.40155 2.48432 0.303955 3.83312 0.303955H15.4059C15.5531 0.303955 15.6726 0.423422 15.6726 0.570622C15.6726 0.717822 15.5531 0.837288 15.4059 0.837288H3.83312C2.77819 0.837288 1.92005 1.69542 1.92005 2.75035V21.329C1.92005 22.384 2.77819 23.2416 3.83312 23.2416H17.2881C18.343 23.2416 19.2006 22.3834 19.2006 21.329V21.2618C19.2006 21.1146 19.3201 20.9952 19.4673 20.9952C19.6145 20.9952 19.7339 21.1146 19.7339 21.2618V21.329C19.7339 22.6773 18.6363 23.7749 17.2875 23.7749ZM19.4673 12.2912C19.3201 12.2912 19.2006 12.1717 19.2006 12.0245V4.63195C19.2006 4.48475 19.3201 4.36529 19.4673 4.36529C19.6145 4.36529 19.7339 4.48475 19.7339 4.63195V12.0245C19.7339 12.1722 19.6145 12.2912 19.4673 12.2912Z" fill="currentColor"/>
  <path d="M19.4673 4.89862H16.4785C15.7398 4.89862 15.1393 4.29809 15.1393 3.55942V0.570622C15.1393 0.462889 15.2044 0.365289 15.3041 0.324222C15.4033 0.283155 15.5185 0.305555 15.5947 0.381822L19.6561 4.44316C19.7323 4.51942 19.7553 4.63409 19.7137 4.73382C19.6726 4.83356 19.575 4.89862 19.4673 4.89862ZM15.6726 1.21436V3.55942C15.6726 4.00369 16.0342 4.36529 16.4785 4.36529H18.8235L15.6726 1.21436Z" fill="currentColor"/>
  <path d="M13.1397 4.89863H4.02668C3.87948 4.89863 3.76001 4.77917 3.76001 4.63197V2.8277C3.76001 2.6805 3.87948 2.56104 4.02668 2.56104H13.1397C13.2869 2.56104 13.4064 2.6805 13.4064 2.8277V4.63197C13.4064 4.77917 13.2875 4.89863 13.1397 4.89863ZM4.29334 4.3653H12.8731V3.09437H4.29334V4.3653Z" fill="currentColor"/>
  <path d="M17.094 7.58558H7.77716C7.62996 7.58558 7.5105 7.46611 7.5105 7.31891C7.5105 7.17171 7.62996 7.05225 7.77716 7.05225H17.094C17.2412 7.05225 17.3606 7.17171 17.3606 7.31891C17.3606 7.46611 17.2412 7.58558 17.094 7.58558Z" fill="currentColor"/>
  <path d="M17.094 10.2858H7.77716C7.62996 10.2858 7.5105 10.1663 7.5105 10.0191C7.5105 9.87191 7.62996 9.75244 7.77716 9.75244H17.094C17.2412 9.75244 17.3606 9.87191 17.3606 10.0191C17.3606 10.1663 17.2412 10.2858 17.094 10.2858Z" fill="currentColor"/>
  <path d="M13.9649 12.9866H7.77716C7.62996 12.9866 7.5105 12.8671 7.5105 12.7199C7.5105 12.5727 7.62996 12.4532 7.77716 12.4532H13.9649C14.1121 12.4532 14.2316 12.5727 14.2316 12.7199C14.2316 12.8671 14.1121 12.9866 13.9649 12.9866Z" fill="currentColor"/>
  <path d="M12.2817 15.6874H7.77716C7.62996 15.6874 7.5105 15.5679 7.5105 15.4207C7.5105 15.2735 7.62996 15.1541 7.77716 15.1541H12.2817C12.4289 15.1541 12.5484 15.2735 12.5484 15.4207C12.5484 15.5679 12.4289 15.6874 12.2817 15.6874Z" fill="currentColor"/>
  <path d="M12.3516 18.3877H7.77716C7.62996 18.3877 7.5105 18.2682 7.5105 18.121C7.5105 17.9738 7.62996 17.8544 7.77716 17.8544H12.3516C12.4988 17.8544 12.6182 17.9738 12.6182 18.121C12.6182 18.2682 12.4988 18.3877 12.3516 18.3877Z" fill="currentColor"/>
  <path d="M17.2545 22.0298C16.1313 22.0298 15.0545 21.6874 14.1414 21.0394L14.1259 21.0282C12.7121 20.0176 11.8678 18.3781 11.8678 16.6426C11.8678 13.6725 14.2843 11.256 17.2545 11.256C20.2246 11.256 22.6411 13.6725 22.6411 16.6426C22.6411 19.6128 20.2246 22.0298 17.2545 22.0298ZM17.2545 11.7898C14.5782 11.7898 12.4011 13.9669 12.4011 16.6432C12.4011 18.2069 13.1617 19.6837 14.4358 20.5946L14.4502 20.6053C15.2721 21.1882 16.2422 21.497 17.2545 21.497C19.9307 21.497 22.1078 19.32 22.1078 16.6437C22.1078 13.9674 19.9307 11.7898 17.2545 11.7898Z" fill="currentColor"/>
  <path d="M14.2956 21.0885H7.77716C7.62996 21.0885 7.5105 20.969 7.5105 20.8218C7.5105 20.6746 7.62996 20.5552 7.77716 20.5552H14.2956C14.4428 20.5552 14.5622 20.6746 14.5622 20.8218C14.5622 20.969 14.4428 21.0885 14.2956 21.0885Z" fill="currentColor"/>
  <path d="M4.62029 8.3445C4.54935 8.3445 4.48162 8.31623 4.43149 8.26663L3.83789 7.67303C3.73389 7.56903 3.73389 7.39997 3.83789 7.29597C3.94189 7.19197 4.11095 7.19197 4.21495 7.29597L4.62029 7.7013L5.94989 6.3717C6.05389 6.2677 6.22295 6.2677 6.32695 6.3717C6.43095 6.4757 6.43095 6.64477 6.32695 6.74877L4.80855 8.26717C4.75895 8.31623 4.69122 8.3445 4.62029 8.3445Z" fill="currentColor"/>
  <path d="M4.62029 11.0452C4.55202 11.0452 4.48375 11.0191 4.43149 10.9674L3.83789 10.3732C3.73389 10.2692 3.73389 10.1002 3.83789 9.99616C3.94189 9.89216 4.11095 9.89216 4.21495 9.99616L4.62029 10.4015L5.94989 9.0719C6.05389 8.9679 6.22295 8.9679 6.32695 9.0719C6.43095 9.1759 6.43095 9.34496 6.32695 9.44896L4.80855 10.9674C4.75682 11.0191 4.68855 11.0452 4.62029 11.0452Z" fill="currentColor"/>
  <path d="M4.62029 13.7455C4.54935 13.7455 4.48162 13.7172 4.43149 13.6676L3.83789 13.074C3.73389 12.97 3.73389 12.801 3.83789 12.697C3.94189 12.593 4.11095 12.593 4.21495 12.697L4.62029 13.1023L5.94989 11.7727C6.05389 11.6687 6.22295 11.6687 6.32695 11.7727C6.43095 11.8767 6.43095 12.0458 6.32695 12.1498L4.80855 13.6682C4.75895 13.7178 4.69122 13.7455 4.62029 13.7455Z" fill="currentColor"/>
  <path d="M4.62029 19.1472C4.54935 19.1472 4.48162 19.1189 4.43149 19.0693L3.83789 18.4757C3.73389 18.3717 3.73389 18.2027 3.83789 18.0987C3.94189 17.9947 4.11095 17.9947 4.21495 18.0987L4.62029 18.504L5.94989 17.1733C6.05389 17.0693 6.22295 17.0693 6.32695 17.1733C6.43095 17.2773 6.43095 17.4464 6.32695 17.5504L4.80855 19.0688C4.75895 19.1189 4.69122 19.1472 4.62029 19.1472Z" fill="currentColor"/>
  <path d="M4.62029 21.8479C4.54935 21.8479 4.48162 21.8197 4.43149 21.7701L3.83789 21.1765C3.73389 21.0725 3.73389 20.9034 3.83789 20.7994C3.94189 20.6954 4.11095 20.6954 4.21495 20.7994L4.62029 21.2047L5.94989 19.8751C6.05389 19.7711 6.22295 19.7711 6.32695 19.8751C6.43095 19.9791 6.43095 20.1482 6.32695 20.2522L4.80855 21.7706C4.75895 21.8197 4.69122 21.8479 4.62029 21.8479Z" fill="currentColor"/>
  <path d="M4.62029 16.4464C4.55202 16.4464 4.48375 16.4202 4.43149 16.3685L3.83789 15.7749C3.73389 15.6709 3.73389 15.5018 3.83789 15.3978C3.94189 15.2938 4.11095 15.2938 4.21495 15.3978L4.62029 15.8026L5.94989 14.473C6.05389 14.369 6.22295 14.369 6.32695 14.473C6.43095 14.577 6.43095 14.7461 6.32695 14.8501L4.80909 16.368C4.75682 16.4202 4.68855 16.4464 4.62029 16.4464Z" fill="currentColor"/>
  <path d="M16.0497 19.488C15.9814 19.488 15.9132 19.4619 15.8609 19.4101L13.983 17.5323C13.9329 17.4822 13.9052 17.4144 13.9052 17.3435C13.9052 17.2725 13.9334 17.2048 13.983 17.1547L14.8513 16.2864C14.9553 16.1824 15.1244 16.1824 15.2284 16.2864L16.0492 17.1072L19.2796 13.8768C19.3297 13.8267 19.3974 13.799 19.4684 13.799C19.5393 13.799 19.607 13.8272 19.6572 13.8768L20.5254 14.7451C20.6294 14.8491 20.6294 15.0182 20.5254 15.1222L16.238 19.4096C16.1862 19.4619 16.118 19.488 16.0497 19.488ZM14.5489 17.3429L16.0497 18.8438L19.9601 14.9333L19.4689 14.4422L16.2385 17.6725C16.1345 17.7765 15.9654 17.7765 15.8614 17.6725L15.0401 16.8517L14.5489 17.3429Z" fill="currentColor"/>
</svg>