<svg xmlns="http://www.w3.org/2000/svg" width="24" height="24" viewBox="0 0 24 24" fill="none">
  <g clip-path="url(#clip0_939_38)">
    <path d="M23.3612 5.59167L19.389 1.61948L18.9718 1.53918L17.9879 1.97981L17.9476 2.26293L17.6921 2.23936L2.26302 17.724V17.9476L1.78677 18.0966L1.47327 18.9779L1.61956 19.389L5.59175 23.3612C6.44342 24.2129 7.82914 24.2129 8.68081 23.3612L23.3613 8.68078C24.2129 7.82906 24.2129 6.44334 23.3612 5.59167Z" fill="#F27182"/>
    <path d="M2.29249 17.9171L17.917 2.29265C18.3266 1.88306 18.8524 1.65919 19.3892 1.61976L18.4084 0.638998C17.5567 -0.212674 16.171 -0.212674 15.3193 0.638998L0.638835 15.3195C-0.21279 16.1711 -0.21279 17.5568 0.638882 18.4085L1.61965 19.3893C1.65907 18.8524 1.8829 18.3267 2.29249 17.9171Z" fill="#ED5469"/>
    <path d="M22.3188 6.63422L17.9477 2.26308L17.6922 2.2395L2.26306 17.7241V17.9477L6.6342 22.3189C6.91147 22.5961 7.36105 22.5961 7.63836 22.3189L22.3188 7.63842C22.5961 7.36111 22.5961 6.91153 22.3188 6.63422Z" fill="#ED5469"/>
    <path d="M17.9476 2.26303L17.3658 1.68122C17.0886 1.40395 16.6389 1.40395 16.3617 1.68122L1.68122 16.3617C1.40395 16.6389 1.40395 17.0886 1.68122 17.3658L2.26303 17.9476C2.27287 17.9374 2.28229 17.927 2.29237 17.9169L17.9169 2.29242C17.927 2.28234 17.9374 2.27287 17.9476 2.26303Z" fill="#E63850"/>
    <path d="M16.8063 8.95071L16.1744 9.58263L15.5519 8.96018L16.1345 8.37761C16.276 8.23615 16.276 8.00688 16.1345 7.86536C15.9931 7.72399 15.7638 7.72399 15.6223 7.86536L15.0397 8.44793L14.4173 7.82547L15.0492 7.1936C15.1906 7.05213 15.1906 6.82286 15.0492 6.68135C14.9077 6.53997 14.6784 6.53997 14.5369 6.68135L13.6489 7.56935C13.5075 7.71082 13.5075 7.94008 13.6489 8.0816L15.9182 10.3509C15.9889 10.4216 16.0816 10.4569 16.1743 10.4569C16.267 10.4569 16.3597 10.4216 16.4304 10.3509L17.3184 9.46286C17.4598 9.3214 17.4598 9.09213 17.3184 8.95061C17.177 8.80933 16.9477 8.80933 16.8063 8.95071Z" fill="#DBEDFF"/>
    <path d="M7.59854 18.1585L6.96667 18.7904L6.34422 18.1679L6.92673 17.5854C7.0682 17.4439 7.0682 17.2146 6.92673 17.0731C6.78531 16.9318 6.556 16.9318 6.41453 17.0731L5.83197 17.6557L5.20951 17.0332L5.84139 16.4014C5.98286 16.2599 5.98286 16.0306 5.84139 15.8891C5.69997 15.7477 5.47065 15.7477 5.32918 15.8891L4.44118 16.7771C4.29972 16.9186 4.29972 17.1478 4.44118 17.2894L6.71045 19.5586C6.77837 19.6266 6.87048 19.6647 6.96653 19.6647C7.06258 19.6647 7.15473 19.6266 7.22261 19.5586L8.11056 18.6706C8.25203 18.5292 8.25203 18.2999 8.11056 18.1584C7.96928 18.0171 7.73997 18.0171 7.59854 18.1585Z" fill="#DBEDFF"/>
    <path d="M15.3554 10.6009L14.0419 10.4315C14.3307 9.98084 14.279 9.37348 13.8853 8.97988C13.4313 8.52594 12.6926 8.52589 12.2385 8.97988L11.5619 9.65652C11.494 9.72448 11.4558 9.81655 11.4558 9.91264C11.4558 10.0087 11.494 10.1008 11.5619 10.1688L13.8312 12.438C13.9019 12.5087 13.9946 12.5441 14.0872 12.5441C14.1799 12.5441 14.2726 12.5087 14.3433 12.438C14.4848 12.2966 14.4848 12.0673 14.3433 11.9258L13.5108 11.0933L15.2627 11.3193C15.2784 11.3213 15.294 11.3223 15.3095 11.3223C15.4888 11.3223 15.6447 11.189 15.6682 11.0064C15.6939 10.808 15.5538 10.6265 15.3554 10.6009ZM12.3302 9.91259L12.7507 9.49208C12.9223 9.32047 13.2016 9.32042 13.3732 9.49208C13.5448 9.66369 13.5448 9.94288 13.3732 10.1145L12.9526 10.5351L12.3302 9.91259Z" fill="#DBEDFF"/>
    <path d="M10.3907 14.1215L10.8112 13.7009C11.0311 13.481 11.1522 13.1885 11.1522 12.8775C11.1522 12.5665 11.0311 12.274 10.8111 12.0541C10.3571 11.6001 9.61839 11.6001 9.16431 12.0541L8.48767 12.7308C8.41975 12.7987 8.38159 12.8908 8.38159 12.9869C8.38159 13.0829 8.41975 13.175 8.48767 13.243L10.7569 15.5123C10.8277 15.583 10.9203 15.6183 11.013 15.6183C11.1057 15.6183 11.1984 15.583 11.2691 15.5123C11.4106 15.3708 11.4106 15.1415 11.2691 15L10.3907 14.1215ZM9.87845 13.6093L9.256 12.9868L9.67651 12.5663C9.84812 12.3946 10.1274 12.3946 10.299 12.5663C10.4706 12.7379 10.4706 13.0171 10.299 13.1887L9.87845 13.6093Z" fill="#DBEDFF"/>
    <path d="M18.4657 5.61739L18.3825 5.53419C18.0221 5.17386 17.543 4.97534 17.0333 4.97534C16.5237 4.97534 16.0445 5.17381 15.6842 5.53419L15.3627 5.85565C15.2947 5.92358 15.2566 6.01569 15.2566 6.11178C15.2566 6.20787 15.2947 6.29994 15.3627 6.3679L17.6319 8.63717C17.7027 8.70786 17.7953 8.74325 17.888 8.74325C17.9807 8.74325 18.0734 8.70786 18.1441 8.63717L18.4656 8.31565C19.2096 7.57175 19.2096 6.36134 18.4657 5.61739ZM17.9535 7.8035L17.8881 7.86889L16.131 6.11178L16.1964 6.04644V6.04639C16.42 5.82284 16.7172 5.69975 17.0334 5.69975C17.3496 5.69975 17.6468 5.82289 17.8704 6.04644L17.9536 6.12964C18.415 6.59112 18.415 7.34201 17.9535 7.8035Z" fill="#DBEDFF"/>
    <path d="M11.1485 10.5822C11.007 10.4409 10.7777 10.4408 10.6363 10.5822C10.4948 10.7237 10.4948 10.953 10.6363 11.0945L12.9055 13.3637C12.9763 13.4344 13.0689 13.4698 13.1616 13.4698C13.2543 13.4698 13.347 13.4344 13.4177 13.3637C13.5591 13.2223 13.5591 12.993 13.4177 12.8515L11.1485 10.5822Z" fill="#DBEDFF"/>
    <path d="M10.2548 15.7442L8.63473 15.3652L8.2557 13.745C8.21014 13.5503 8.01542 13.4291 7.82056 13.4749C7.62579 13.5204 7.50486 13.7153 7.55042 13.9101L7.84779 15.181L6.57682 14.8837C6.38211 14.8382 6.18725 14.959 6.14168 15.1538C6.09612 15.3486 6.21706 15.5434 6.41182 15.589L8.03192 15.968L8.41095 17.5882C8.45 17.7551 8.59887 17.8679 8.76331 17.8679C8.79059 17.8679 8.81839 17.8648 8.84614 17.8583C9.0409 17.8127 9.16184 17.6179 9.11628 17.4231L8.8189 16.1521L10.0899 16.4495C10.1176 16.456 10.1454 16.4591 10.1727 16.4591C10.3371 16.4591 10.486 16.3464 10.5251 16.1794C10.5705 15.9846 10.4496 15.7897 10.2548 15.7442Z" fill="#DBEDFF"/>
  </g>
  <defs>
    <clipPath id="clip0_939_38">
      <rect width="24" height="24" fill="white"/>
    </clipPath>
  </defs>
</svg>