<svg xmlns="http://www.w3.org/2000/svg" width="24" height="24" viewBox="0 0 24 24" fill="none">
  <g clip-path="url(#standard)">
    <path d="M0.750185 4.23093H12.1692C12.5134 5.79745 13.9123 6.9735 15.5807 6.9735C17.2491 6.9735 18.648 5.79749 18.9921 4.23093H23.2502C23.6644 4.23093 24.0002 3.89512 24.0002 3.48093C24.0002 3.06674 23.6644 2.73093 23.2502 2.73093H18.9918C18.647 1.1652 17.2461 -0.0115967 15.5807 -0.0115967C13.9144 -0.0115967 12.5141 1.16502 12.1695 2.73093H0.750185C0.335996 2.73093 0.000183105 3.06674 0.000183105 3.48093C0.000183105 3.89512 0.335996 4.23093 0.750185 4.23093ZM13.5882 3.4829C13.5882 3.48022 13.5882 3.4775 13.5882 3.47483C13.5915 2.3795 14.4853 1.48845 15.5807 1.48845C16.6745 1.48845 17.5683 2.37828 17.5731 3.4731L17.5732 3.48411C17.5715 4.58132 16.6783 5.47354 15.5807 5.47354C14.4835 5.47354 13.5906 4.58221 13.5882 3.48566L13.5882 3.4829ZM23.2502 19.7691H18.9918C18.6469 18.2035 17.2461 17.0266 15.5807 17.0266C13.9144 17.0266 12.5141 18.2033 12.1695 19.7691H0.750185C0.335996 19.7691 0.000183105 20.1049 0.000183105 20.5191C0.000183105 20.9334 0.335996 21.2691 0.750185 21.2691H12.1692C12.5134 22.8357 13.9123 24.0117 15.5807 24.0117C17.2491 24.0117 18.648 22.8357 18.9921 21.2691H23.2502C23.6644 21.2691 24.0002 20.9334 24.0002 20.5191C24.0002 20.1049 23.6644 19.7691 23.2502 19.7691ZM15.5807 22.5117C14.4835 22.5117 13.5906 21.6204 13.5882 20.5238L13.5882 20.5211C13.5882 20.5184 13.5882 20.5157 13.5882 20.513C13.5915 19.4177 14.4853 18.5266 15.5807 18.5266C16.6745 18.5266 17.5683 19.4164 17.5731 20.5112L17.5732 20.5222C17.5716 21.6196 16.6784 22.5117 15.5807 22.5117ZM23.2502 11.2501H11.8312C11.4871 9.68354 10.0881 8.50753 8.41975 8.50753C6.75137 8.50753 5.35243 9.68354 5.00827 11.2501H0.750185C0.335996 11.2501 0.000183105 11.5859 0.000183105 12.0001C0.000183105 12.4143 0.335996 12.7501 0.750185 12.7501H5.00865C5.35351 14.3157 6.75432 15.4926 8.41975 15.4926C10.0861 15.4926 11.4863 14.3159 11.8309 12.7501H23.2502C23.6644 12.7501 24.0002 12.4143 24.0002 12.0001C24.0002 11.5859 23.6644 11.2501 23.2502 11.2501ZM10.4122 11.9981C10.4122 12.0008 10.4122 12.0035 10.4122 12.0061C10.4089 13.1015 9.51513 13.9925 8.41975 13.9925C7.32592 13.9925 6.4321 13.1027 6.42737 12.0079L6.42723 11.997C6.42887 10.8996 7.32208 10.0075 8.41975 10.0075C9.51691 10.0075 10.4098 10.8988 10.4123 11.9954L10.4122 11.9981Z" fill="currentColor"/>
  </g>
  <defs>
    <clipPath id="standard">
      <rect width="24.0001" height="24.0001" fill="white"/>
    </clipPath>
  </defs>
</svg>