<svg xmlns="http://www.w3.org/2000/svg" width="24" height="24" viewBox="0 0 24 24" fill="none">
  <path d="M19.8931 0.969844C18.8054 0.31725 17.6459 0 16.3482 0C14.7956 0 13.2715 0.457172 11.7977 0.899297C10.3579 1.3312 8.99791 1.73916 7.6518 1.73925C7.65161 1.73925 7.65147 1.73925 7.65128 1.73925C6.75133 1.73925 5.93645 1.54875 5.17188 1.15884V0.703125C5.17188 0.314812 4.85706 0 4.46875 0C4.08044 0 3.76562 0.314812 3.76562 0.703125V1.5727V11.1303V23.2969C3.76562 23.6852 4.08044 24 4.46875 24C4.85706 24 5.17188 23.6852 5.17188 23.2969V12.2556C5.94845 12.5556 6.76806 12.7031 7.65184 12.7031C9.20439 12.7031 10.7283 12.246 12.202 11.8038C13.642 11.3719 15.002 10.9639 16.3482 10.9639C17.3837 10.9639 18.3066 11.2155 19.1695 11.7333C19.3867 11.8636 19.6572 11.8671 19.8777 11.7423C20.0981 11.6175 20.2344 11.3837 20.2344 11.1304V1.57275C20.2344 1.32577 20.1048 1.09688 19.8931 0.969844ZM11.798 10.4569C10.3581 10.8889 8.998 11.2969 7.65189 11.2969C6.75161 11.2969 5.93655 11.1067 5.17192 10.7167V2.69841C5.94836 2.99836 6.76783 3.14555 7.65133 3.1455C7.65147 3.1455 7.6518 3.1455 7.65198 3.1455C9.20439 3.14541 10.7282 2.68828 12.2018 2.2462C13.6418 1.81425 15.002 1.40625 16.3482 1.40625C17.2485 1.40625 18.0635 1.59647 18.8281 1.98633V10.0048C18.0516 9.70477 17.2319 9.55762 16.3482 9.55762C14.7957 9.55762 13.2717 10.0148 11.798 10.4569Z" fill="currentColor"/>
</svg>