<svg id="Layer_1" enable-background="new 0 0 512 512" height="512" viewBox="0 0 512 512" width="512" xmlns="http://www.w3.org/2000/svg"><g><g><path d="m267.139 374.398h-22.279c-7.895 0-14.317-6.423-14.317-14.317 0-8.697-5.63-14.128-10.898-16.311-5.267-2.182-13.089-2.323-19.238 3.827-2.704 2.704-6.3 4.193-10.125 4.193s-7.421-1.49-10.124-4.194l-15.754-15.753c-5.582-5.583-5.582-14.666 0-20.249 6.14-6.139 5.993-13.96 3.81-19.232-2.185-5.271-7.611-10.905-16.293-10.905-7.895 0-14.317-6.423-14.317-14.317v-22.278c0-7.895 6.423-14.317 14.317-14.317 8.682 0 14.108-5.634 16.293-10.905 2.184-5.272 2.33-13.093-3.81-19.231-2.704-2.704-4.193-6.3-4.193-10.125s1.49-7.421 4.194-10.124l15.753-15.754c2.703-2.703 6.299-4.193 10.124-4.193s7.421 1.489 10.125 4.193c6.138 6.14 13.959 5.991 19.231 3.81 5.271-2.184 10.905-7.61 10.905-16.292 0-7.896 6.423-14.318 14.317-14.318h22.278c7.895 0 14.317 6.423 14.317 14.318 0 8.682 5.634 14.107 10.905 16.292 5.273 2.183 13.095 2.329 19.232-3.81 5.584-5.581 14.665-5.582 20.249 0l15.754 15.754c2.703 2.703 4.193 6.299 4.193 10.124s-1.489 7.421-4.193 10.125c-6.14 6.139-5.993 13.959-3.81 19.231 2.184 5.271 7.61 10.905 16.292 10.905 7.895 0 14.317 6.423 14.317 14.317v22.278c0 7.895-6.423 14.317-14.317 14.317-8.682 0-14.107 5.634-16.292 10.905-2.184 5.272-2.33 13.094 3.81 19.232 5.582 5.583 5.582 14.666 0 20.249l-15.754 15.754c-5.585 5.583-14.666 5.581-20.249 0-6.139-6.14-13.958-5.992-19.232-3.81-5.271 2.185-10.905 7.611-10.905 16.293.001 7.895-6.422 14.318-14.316 14.318zm-54.451-46.052c4.107 0 8.275.816 12.314 2.49 12.054 4.992 19.541 16.198 19.541 29.244 0 .175.143.317.317.317h22.278c.175 0 .317-.143.317-.317 0-13.033 7.49-24.232 19.548-29.227 12.059-4.997 25.273-2.372 34.49 6.843.122.124.324.126.448 0l15.754-15.754c.124-.123.124-.325 0-.448-9.216-9.217-11.838-22.432-6.843-34.49 4.994-12.058 16.192-19.548 29.226-19.548.175 0 .317-.143.317-.317v-22.278c0-.175-.143-.317-.317-.317-13.033 0-24.231-7.49-29.226-19.548s-2.373-25.273 6.843-34.489c.028-.027.094-.093.094-.225 0-.131-.064-.195-.093-.224l-15.755-15.754c-.124-.126-.326-.124-.448 0-9.218 9.216-22.434 11.838-34.49 6.843-12.058-4.994-19.548-16.192-19.548-29.226 0-.176-.143-.318-.317-.318h-22.278c-.175 0-.317.143-.317.318 0 13.033-7.49 24.231-19.548 29.226-12.059 4.996-25.273 2.371-34.489-6.843-.027-.028-.093-.094-.225-.094-.131 0-.195.064-.224.093l-15.754 15.755c-.029.028-.094.093-.094.224 0 .132.065.197.094.225 9.215 9.216 11.838 22.432 6.843 34.489-4.994 12.058-16.193 19.548-29.227 19.548-.175 0-.317.143-.317.317v22.278c0 .175.143.317.317.317 13.033 0 24.232 7.49 29.227 19.548 4.995 12.059 2.373 25.274-6.843 34.49-.124.123-.124.325 0 .448l15.754 15.754c.028.029.093.094.224.094.132 0 .197-.065.225-.094 6.134-6.132 14.034-9.35 22.182-9.35zm43.312-10.907c-33.877 0-61.438-27.562-61.438-61.438s27.561-61.438 61.438-61.438 61.438 27.561 61.438 61.438-27.561 61.438-61.438 61.438zm0-108.876c-26.157 0-47.438 21.28-47.438 47.438s21.28 47.438 47.438 47.438 47.438-21.281 47.438-47.438-21.281-47.438-47.438-47.438z"/></g><g><path d="m451.741 488.627c-.838 0-1.685-.15-2.499-.462-2.71-1.037-4.499-3.637-4.499-6.538v-21.496h-188.743c-112.559 0-204.132-91.573-204.132-204.131 0-48.265 17.169-95.105 48.345-131.893 1.33-1.569 3.282-2.475 5.34-2.475h61.467c3.056 0 5.758 1.981 6.676 4.896.919 2.914-.159 6.087-2.662 7.839-39.699 27.787-63.4 73.258-63.4 121.633 0 81.81 66.558 148.367 148.367 148.367h188.743v-21.496c0-2.901 1.789-5.501 4.499-6.538 2.712-1.037 5.777-.293 7.714 1.866l44.257 49.378c2.383 2.659 2.383 6.685 0 9.344l-44.257 49.378c-1.355 1.511-3.264 2.328-5.216 2.328zm-342.909-352.994c-27.729 33.875-42.964 76.488-42.964 120.367 0 104.839 85.293 190.131 190.132 190.131h195.743c3.866 0 7 3.134 7 7v10.198l27.856-31.08-27.856-31.08v10.198c0 3.866-3.134 7-7 7h-195.743c-89.529 0-162.367-72.838-162.367-162.367 0-46.093 19.658-89.772 53.414-120.367zm-48.574 352.994c-1.952 0-3.86-.817-5.215-2.328l-44.256-49.378c-2.383-2.659-2.383-6.685 0-9.344l44.256-49.378c1.936-2.159 5.002-2.903 7.714-1.866 2.71 1.037 4.499 3.637 4.499 6.538v21.496h25.825c1.913 0 3.743.783 5.064 2.168 15.359 16.098 33.009 29.714 52.459 40.47 2.793 1.545 4.188 4.784 3.39 7.875-.797 3.091-3.585 5.251-6.777 5.251h-79.961v21.496c0 2.901-1.789 5.501-4.499 6.538-.815.312-1.661.462-2.499.462zm-34.859-56.378 27.856 31.08v-10.198c0-3.866 3.134-7 7-7h62.56c-11.714-8.214-22.655-17.5-32.704-27.764h-29.855c-3.866 0-7-3.134-7-7v-10.198zm381.048-41.882h-61.467c-3.056 0-5.758-1.981-6.676-4.896-.919-2.914.159-6.087 2.662-7.839 39.698-27.787 63.399-73.257 63.399-121.633 0-81.81-66.557-148.366-148.366-148.366h-188.743v21.495c0 2.901-1.789 5.501-4.499 6.538-2.712 1.037-5.778.293-7.714-1.866l-44.256-49.377c-2.383-2.659-2.383-6.685 0-9.344l44.256-49.378c1.936-2.159 5.002-2.903 7.714-1.866 2.71 1.037 4.499 3.637 4.499 6.538v21.496h188.744c112.558 0 204.131 91.573 204.131 204.131 0 48.265-17.169 95.104-48.344 131.893-1.33 1.569-3.282 2.474-5.34 2.474zm-41.494-14h38.215c27.729-33.875 42.963-76.489 42.963-120.367 0-104.839-85.292-190.131-190.131-190.131h-195.744c-3.866 0-7-3.134-7-7v-10.198l-27.856 31.08 27.856 31.08v-10.197c0-3.866 3.134-7 7-7h195.744c89.529 0 162.366 72.837 162.366 162.366 0 46.093-19.657 89.773-53.413 120.367zm86.788-240.238c-.838 0-1.685-.15-2.499-.462-2.71-1.037-4.499-3.637-4.499-6.538v-21.495h-25.824c-1.914 0-3.744-.783-5.065-2.169-15.351-16.093-33-29.709-52.458-40.471-2.793-1.545-4.188-4.783-3.39-7.874.797-3.091 3.585-5.251 6.777-5.251h79.96v-21.496c0-2.901 1.789-5.501 4.499-6.538 2.712-1.037 5.777-.293 7.714 1.866l44.257 49.378c2.383 2.659 2.383 6.685 0 9.344l-44.257 49.378c-1.354 1.511-3.263 2.328-5.215 2.328zm-29.852-42.495h29.854c3.866 0 7 3.134 7 7v10.197l27.856-31.08-27.856-31.08v10.198c0 3.866-3.134 7-7 7h-62.559c11.719 8.217 22.659 17.501 32.705 27.765z"/></g></g></svg>