<svg width="24" height="24" viewBox="0 0 24 24" fill="none" xmlns="http://www.w3.org/2000/svg">
<path d="M14.0002 6.00025H4.00019C3.73497 6.00025 3.48061 5.89489 3.29308 5.70735C3.10554 5.51982 3.00018 5.26546 3.00018 5.00025C3.00018 4.73503 3.10554 4.48068 3.29308 4.29314C3.48061 4.1056 3.73497 4.00024 4.00019 4.00024H14.0002C14.2654 4.00024 14.5198 4.1056 14.7073 4.29314C14.8949 4.48068 15.0002 4.73503 15.0002 5.00025C15.0002 5.26546 14.8949 5.51982 14.7073 5.70735C14.5198 5.89489 14.2654 6.00025 14.0002 6.00025Z" fill="currentColor"/>
<path d="M9.00025 5.99976C8.73503 5.99976 8.48068 5.89441 8.29314 5.70687C8.1056 5.51933 8.00024 5.26498 8.00024 4.99976V2.99976C8.00024 2.73454 8.1056 2.48019 8.29314 2.29265C8.48068 2.10511 8.73503 1.99976 9.00025 1.99976C9.26546 1.99976 9.51982 2.10511 9.70735 2.29265C9.89489 2.48019 10.0002 2.73454 10.0002 2.99976V4.99976C10.0002 5.26498 9.89489 5.51933 9.70735 5.70687C9.51982 5.89441 9.26546 5.99976 9.00025 5.99976Z" fill="currentColor"/>
<path d="M5.00023 18.0006C4.79403 18.0007 4.59283 17.9371 4.42419 17.8184C4.25556 17.6998 4.12772 17.5319 4.05819 17.3377C3.98867 17.1436 3.98085 16.9327 4.03581 16.734C4.09078 16.5353 4.20584 16.3584 4.36523 16.2276C5.96907 14.9149 7.29119 13.2918 8.25224 11.4555C9.30163 9.44251 9.89823 7.22438 10.0002 4.95653C10.0172 4.69323 10.1353 4.4467 10.3299 4.26851C10.5245 4.09033 10.7805 3.9943 11.0442 4.00053C11.1756 4.00618 11.3046 4.03768 11.4237 4.09324C11.5429 4.14879 11.65 4.22729 11.7388 4.32426C11.8276 4.42124 11.8964 4.53477 11.9412 4.65836C11.9861 4.78195 12.0062 4.91318 12.0002 5.04453C11.885 7.60607 11.2106 10.1114 10.0242 12.3846C8.93989 14.4584 7.4473 16.2915 5.63623 17.7736C5.45697 17.9207 5.23214 18.0009 5.00023 18.0006Z" fill="currentColor"/>
<path d="M19.0002 22.0002C18.7729 22 18.5525 21.9223 18.3752 21.7799C18.198 21.6376 18.0746 21.4391 18.0252 21.2172L16.3502 13.6812C16.3079 13.4873 16.2005 13.3136 16.0459 13.1891C15.8913 13.0646 15.6987 12.9967 15.5002 12.9967C15.3017 12.9967 15.1092 13.0646 14.9545 13.1891C14.7999 13.3136 14.6925 13.4873 14.6502 13.6812L12.9752 21.2172C12.9488 21.3474 12.8966 21.4711 12.8218 21.5809C12.7471 21.6907 12.6512 21.7845 12.5397 21.8569C12.4283 21.9292 12.3035 21.9786 12.1728 22.0022C12.042 22.0258 11.9079 22.0231 11.7782 21.9943C11.6485 21.9654 11.5259 21.911 11.4174 21.8343C11.309 21.7575 11.2169 21.6599 11.1466 21.5471C11.0764 21.4344 11.0292 21.3088 11.008 21.1776C10.9869 21.0464 10.992 20.9124 11.0232 20.7832L12.7002 13.2482C12.8424 12.6117 13.1972 12.0426 13.7062 11.6347C14.2152 11.2269 14.848 11.0046 15.5002 11.0046C16.1525 11.0046 16.7852 11.2269 17.2942 11.6347C17.8032 12.0426 18.158 12.6117 18.3002 13.2482L19.9752 20.7832C20.0327 21.0421 19.9851 21.3132 19.8428 21.5369C19.7004 21.7606 19.4751 21.9186 19.2162 21.9762C19.1453 21.9919 19.0729 22 19.0002 22.0002Z" fill="currentColor"/>
<path d="M10.0002 16.0001C9.83963 16.0003 9.68145 15.9615 9.53917 15.8871C8.17811 15.1825 7.02107 14.1398 6.17917 12.8591C5.65715 12.0578 5.2697 11.1765 5.03216 10.2501C4.97233 9.99562 5.01453 9.72781 5.14975 9.50405C5.28496 9.2803 5.50243 9.11839 5.75556 9.05301C6.00869 8.98764 6.27736 9.02399 6.50402 9.15429C6.73067 9.28459 6.89728 9.49847 6.96817 9.75012C7.15127 10.4664 7.45058 11.1477 7.85417 11.7671C8.50864 12.7592 9.40657 13.567 10.4622 14.1131C10.6608 14.2165 10.8189 14.3836 10.9113 14.5875C11.0037 14.7914 11.025 15.0205 10.9717 15.2379C10.9185 15.4554 10.7938 15.6487 10.6176 15.7869C10.4415 15.9251 10.2241 16.0002 10.0002 16.0001Z" fill="currentColor"/>
<path d="M18.0003 18.0002H13.0002C12.735 18.0002 12.4807 17.8949 12.2931 17.7074C12.1056 17.5198 12.0002 17.2655 12.0002 17.0002C12.0002 16.735 12.1056 16.4807 12.2931 16.2931C12.4807 16.1056 12.735 16.0002 13.0002 16.0002H18.0003C18.2655 16.0002 18.5198 16.1056 18.7074 16.2931C18.8949 16.4807 19.0003 16.735 19.0003 17.0002C19.0003 17.2655 18.8949 17.5198 18.7074 17.7074C18.5198 17.8949 18.2655 18.0002 18.0003 18.0002Z" fill="currentColor"/>
</svg>
