<svg width="24" height="24" viewBox="0 0 24 24" fill="none" xmlns="http://www.w3.org/2000/svg">
<path d="M16.4021 7.50271C16.4021 5.07521 14.4271 3.10059 12 3.10059C9.57252 3.10059 7.5979 5.07521 7.5979 7.50271C7.5979 9.93021 9.57252 11.9048 12 11.9048C14.4271 11.9048 16.4021 9.93021 16.4021 7.50271ZM9.19981 7.50271C9.19981 5.95869 10.456 4.7025 12 4.7025C13.5441 4.7025 14.8002 5.95868 14.8002 7.50271C14.8002 9.04674 13.5441 10.3029 12 10.3029C10.456 10.3029 9.19981 9.04674 9.19981 7.50271Z" fill="currentColor"/>
<path d="M20.0283 19.8862C20.0283 18.3824 18.6079 17.0792 16.2532 16.3472C17.8594 13.8962 19.5019 10.6265 19.5019 7.50192C19.5019 3.36534 16.1362 0 12 0C7.86343 0 4.49809 3.36534 4.49809 7.50191C4.49809 10.6267 6.14156 13.8973 7.74737 16.3472C5.39252 17.0792 3.97168 18.3824 3.97168 19.8862C4.0589 25.3704 19.9412 25.3722 20.0283 19.8862ZM12 1.60191C15.2531 1.60191 17.9 4.24882 17.9 7.50191C17.9 10.6291 15.9406 14.0519 14.2965 16.3746C13.4017 17.6445 12.5421 18.675 12 19.2937C11.4389 18.6656 10.3699 17.3363 9.7043 16.3746C8.05988 14.0534 6.10023 10.6296 6.1 7.50191C6.1 4.24882 8.7469 1.60191 12 1.60191ZM12 22.4267C6.38012 22.3715 2.62562 19.4754 8.70894 17.7368C9.5082 18.8242 10.3557 19.885 11.2643 20.8718C11.6584 21.4182 12.3408 21.4195 12.7352 20.8723C13.6442 19.8853 14.4919 18.8244 15.2914 17.7368C21.3743 19.4757 17.6194 22.3714 12 22.4267Z" fill="currentColor"/>
</svg>
