<svg xmlns="http://www.w3.org/2000/svg" width="24" height="24" viewBox="0 0 24 24" fill="none">
  <path d="M12.0001 0C8.29489 0 5.28046 3.01444 5.28046 6.71967V10.01C5.28046 10.234 5.46228 10.4157 5.68635 10.4157H7.93902C8.16308 10.4157 8.34477 10.234 8.34477 10.01V6.71967C8.34477 4.70414 9.9845 3.06436 12 3.06436C14.0156 3.06436 15.6553 4.70414 15.6553 6.71967V10.01C15.6553 10.234 15.8372 10.4157 16.0613 10.4157H18.314C18.538 10.4157 18.7197 10.234 18.7197 10.01V6.71967C18.7198 3.01444 15.7053 0 12.0001 0ZM17.9083 9.60422H16.4669V6.71967C16.4669 4.25667 14.4631 2.25286 12.0002 2.25286C9.53722 2.25286 7.53341 4.25667 7.53341 6.71967V9.60422H6.0921V6.71967C6.0921 3.46191 8.74241 0.811547 12.0001 0.811547C15.2579 0.811547 17.9083 3.46191 17.9083 6.71967V9.60422Z" fill="currentColor"/>
  <path d="M19.2484 9.60425H4.75189C3.79071 9.60425 3.0087 10.3863 3.0087 11.3474V22.2568C3.0087 23.218 3.79071 24 4.75189 24H19.2484C20.2096 24 20.9915 23.218 20.9915 22.2568V11.3474C20.9915 10.3863 20.2096 9.60425 19.2484 9.60425ZM20.18 22.2568C20.18 22.7705 19.7621 23.1885 19.2484 23.1885H4.75189C4.23814 23.1885 3.8202 22.7705 3.8202 22.2568V11.3474C3.8202 10.8337 4.23814 10.4157 4.75189 10.4157H19.2484C19.7621 10.4157 20.18 10.8337 20.18 11.3474V22.2568Z" fill="currentColor"/>
  <path d="M13.3647 17.3335C13.8387 16.9341 14.1146 16.3502 14.1146 15.7226C14.1146 14.5567 13.166 13.6082 12.0001 13.6082C10.8341 13.6082 9.88556 14.5567 9.88556 15.7226C9.88556 16.3502 10.1614 16.9341 10.6356 17.3336L10.1794 19.5068C10.1543 19.6265 10.1845 19.7511 10.2615 19.846C10.3387 19.9408 10.4543 19.996 10.5765 19.996H13.4236C13.5459 19.996 13.6616 19.9409 13.7386 19.846C13.8156 19.751 13.8457 19.6265 13.8207 19.5069L13.3647 17.3335ZM12.6963 16.8197C12.5538 16.9105 12.4823 17.08 12.517 17.2454L12.9239 19.1844H11.0763L11.4833 17.2455C11.518 17.0801 11.4466 16.9105 11.304 16.8198C10.924 16.578 10.6971 16.1678 10.6971 15.7227C10.6971 15.0042 11.2816 14.4197 12.0001 14.4197C12.7185 14.4197 13.303 15.0042 13.303 15.7227C13.3031 16.1679 13.0762 16.578 12.6963 16.8197Z" fill="currentColor"/>
</svg>