<svg xmlns="http://www.w3.org/2000/svg" width="24" height="24" viewBox="0 0 24 24" fill="none">
  <g clip-path="url(#standard)">
    <path d="M23.9413 11.7589C23.7609 10.7145 23.1888 9.80828 22.3302 9.20751C21.4917 8.61989 20.4775 8.39538 19.4765 8.57654C18.5645 8.74067 17.7609 9.22764 17.1833 9.93989C17.1257 9.87641 17.0622 9.81757 16.9902 9.76725C16.7378 9.59035 16.432 9.52299 16.1301 9.57718C15.5033 9.69022 15.0826 10.2987 15.1925 10.934L15.1941 10.9421L13.1227 11.3145C12.9907 10.8182 12.5374 10.4516 12.0001 10.4516C11.7017 10.4516 11.4319 10.5682 11.2259 10.7536C11.02 10.5678 10.7502 10.4516 10.4517 10.4516C10.0395 10.4516 9.6787 10.6692 9.47277 10.994C9.30361 10.898 9.11122 10.8387 8.90335 10.8387C8.36799 10.8387 7.9209 11.2045 7.78696 11.6981C7.65302 11.6443 7.50786 11.6129 7.35496 11.6129C6.78903 11.6129 6.31793 12.0202 6.21573 12.5567L4.89109 12.7947L2.45238 14.1414L2.50735 14.46C1.92786 14.6814 1.55044 15.1371 1.55548 15.6283L0.956251 15.9275C0.366316 16.2229 0.00012207 16.8155 0.00012207 17.4751C0.00012207 18.055 0.288122 18.5931 0.770445 18.9143L1.80903 19.6069C2.1307 19.8209 2.3227 20.1802 2.3227 20.5669C2.3227 21.0643 2.00567 21.504 1.5338 21.6616C0.61638 21.967 0.00012207 22.8221 0.00012207 23.7891V24H0.774316V23.7891C0.774316 23.1558 1.17767 22.596 1.77844 22.3955C2.56696 22.1331 3.0969 21.3976 3.0969 20.5669C3.0969 19.9204 2.77599 19.3208 2.23832 18.9623L1.19973 18.2698C0.933412 18.0925 0.774316 17.7952 0.774316 17.4751C0.774316 17.1109 0.976767 16.7834 1.3027 16.6204L1.8787 16.3324C1.91509 16.3657 1.9507 16.3994 1.99251 16.4284C2.23754 16.5995 2.55341 16.6905 2.89367 16.6943L2.94825 17.0091L5.69664 17.4248L6.19367 17.3354V17.9594C6.19367 18.8919 6.62412 19.7621 7.35496 20.3272V24H13.1614V19.9022L13.8222 19.2414C14.3947 18.6693 14.7098 17.9087 14.7098 17.0989V15.7223L15.9911 15.5547L15.9946 15.576C16.0484 15.8876 16.2195 16.1582 16.4765 16.3378C16.672 16.4749 16.8992 16.5461 17.1326 16.5461C17.2004 16.5461 17.2689 16.5399 17.337 16.5279C17.7384 16.4559 18.0535 16.1791 18.2006 15.8234C18.7898 16.1756 19.4575 16.3614 20.1412 16.3614C20.3657 16.3614 20.5917 16.3413 20.8174 16.3011C22.9077 15.9248 24.309 13.8871 23.9413 11.7589ZM2.43651 15.794C2.39199 15.763 2.33625 15.7119 2.32503 15.6461C2.30606 15.5362 2.4218 15.3685 2.64361 15.2462L2.7578 15.907C2.61922 15.8861 2.50735 15.8435 2.43651 15.794ZM3.61599 16.327L3.30903 14.5529L4.73354 13.7663L5.21819 16.5693L3.61599 16.327ZM6.19367 16.5484L6.00593 16.5825L5.46941 13.4776L6.19367 13.3471V16.5484ZM13.9356 17.0989C13.9356 17.7016 13.701 18.2683 13.2748 18.6941L12.3872 19.5817V23.2258H8.12915V19.922L7.9569 19.807C7.33754 19.3943 6.96786 18.7034 6.96786 17.9594V12.7742C6.96786 12.5605 7.14167 12.3871 7.35496 12.3871C7.56825 12.3871 7.74206 12.5605 7.74206 12.7742V15.0968H8.51625V12C8.51625 11.7867 8.69006 11.6129 8.90335 11.6129C9.11664 11.6129 9.29044 11.7867 9.29044 12V15.0968H10.0646V11.6129C10.0646 11.3996 10.2384 11.2258 10.4517 11.2258C10.665 11.2258 10.8388 11.3996 10.8388 11.6129V15.0968H11.613V11.6129C11.613 11.3996 11.7868 11.2258 12.0001 11.2258C12.2134 11.2258 12.3872 11.3996 12.3872 11.6129V13.615C12.3872 14.4248 12.7023 15.1858 13.2748 15.7576L13.4099 15.8927L13.9356 15.8238V17.0989ZM13.6968 15.074C13.3503 14.6671 13.1614 14.1554 13.1614 13.615V12.0941L15.3257 11.7051L15.5281 12.876L15.1484 12.9442L15.2854 13.7063L15.6601 13.639L15.8591 14.7914L13.6968 15.074ZM17.2004 15.7657C17.1021 15.7847 17.003 15.7607 16.9209 15.7038C16.8342 15.643 16.7765 15.5509 16.7579 15.4448L15.9559 10.8054L15.9555 10.8027C15.9179 10.5852 16.0577 10.3773 16.2675 10.3398C16.2895 10.3359 16.3112 10.3336 16.3333 10.3336C16.4088 10.3336 16.4827 10.3572 16.5466 10.4017C16.6333 10.4625 16.6913 10.555 16.7095 10.6618L17.512 15.3035C17.5495 15.5203 17.4098 15.7282 17.2004 15.7657ZM20.68 15.5389C20.5534 15.5613 20.4268 15.5741 20.3006 15.5807L20.1388 14.6439L19.3759 14.7755L19.5032 15.5129C19.041 15.4123 18.6052 15.2029 18.2266 14.8932L17.5197 10.8054C17.7717 10.382 18.1112 10.0324 18.5115 9.77576L19.2419 14.0013L20.0049 13.8697L19.2377 9.4328C19.36 9.39409 19.485 9.36157 19.6132 9.33835C19.7397 9.31551 19.8663 9.30389 19.9925 9.29731L21.0551 15.4432C20.9335 15.482 20.8089 15.5156 20.68 15.5389ZM21.7824 15.1034L20.7892 9.35925C21.1774 9.44402 21.5494 9.60583 21.8862 9.84118C22.5741 10.3231 23.0332 11.0509 23.1783 11.8905C23.4028 13.1884 22.811 14.4418 21.7824 15.1034Z" fill="currentColor"/>
    <path d="M13.6299 13.217L13.7671 13.979L14.5256 13.8424L14.3884 13.0805L13.6299 13.217Z" fill="currentColor"/>
    <path d="M1.16141 10.0645C1.80167 10.0645 2.3227 9.54348 2.3227 8.90322V5.03225H4.25819V4.25806H1.54851V7.81315C1.42696 7.7698 1.29767 7.74193 1.16141 7.74193C0.521154 7.74193 0.00012207 8.26296 0.00012207 8.90322C0.00012207 9.54348 0.521154 10.0645 1.16141 10.0645ZM1.16141 8.51612C1.3747 8.51612 1.54851 8.68993 1.54851 8.90322C1.54851 9.11651 1.3747 9.29031 1.16141 9.29031C0.948122 9.29031 0.774316 9.11651 0.774316 8.90322C0.774316 8.68993 0.948122 8.51612 1.16141 8.51612Z" fill="currentColor"/>
    <path d="M11.226 5.80645C11.8662 5.80645 12.3873 5.28542 12.3873 4.64516V2.33071C13.8559 2.36942 15.3164 2.71664 16.6453 3.34374V4.32929C16.5238 4.28594 16.3945 4.25806 16.2582 4.25806C15.618 4.25806 15.097 4.7791 15.097 5.41935C15.097 6.05961 15.618 6.58064 16.2582 6.58064C16.8985 6.58064 17.4195 6.05961 17.4195 5.41935V1.30916L17.2055 1.20232C15.6323 0.415742 13.8714 0 12.1132 0H11.6131V3.5551C11.4915 3.51174 11.3622 3.48387 11.226 3.48387C10.5857 3.48387 10.0647 4.0049 10.0647 4.64516C10.0647 5.28542 10.5857 5.80645 11.226 5.80645ZM16.2582 5.80645C16.045 5.80645 15.8711 5.63264 15.8711 5.41935C15.8711 5.20606 16.045 5.03226 16.2582 5.03226C16.4715 5.03226 16.6453 5.20606 16.6453 5.41935C16.6453 5.63264 16.4715 5.80645 16.2582 5.80645ZM12.3873 0.777677C13.8551 0.816387 15.3168 1.164 16.6453 1.79071V2.49058C15.3037 1.90955 13.8482 1.59213 12.3873 1.55613V0.777677ZM11.226 4.25806C11.4393 4.25806 11.6131 4.43187 11.6131 4.64516C11.6131 4.85845 11.4393 5.03226 11.226 5.03226C11.0127 5.03226 10.8389 4.85845 10.8389 4.64516C10.8389 4.43187 11.0127 4.25806 11.226 4.25806Z" fill="currentColor"/>
    <path d="M19.3549 21.7487C19.2334 21.7053 19.1041 21.6775 18.9678 21.6775C18.3276 21.6775 17.8065 22.1985 17.8065 22.8388C17.8065 23.479 18.3276 24.0001 18.9678 24.0001C19.6081 24.0001 20.1291 23.479 20.1291 22.8388V18.9678H22.0646V18.1936H19.3549V21.7487ZM18.9678 23.2259C18.7545 23.2259 18.5807 23.0524 18.5807 22.8388C18.5807 22.6251 18.7545 22.4517 18.9678 22.4517C19.1811 22.4517 19.3549 22.6251 19.3549 22.8388C19.3549 23.0524 19.1811 23.2259 18.9678 23.2259Z" fill="currentColor"/>
  </g>
  <defs>
    <clipPath id="standard">
      <rect width="24" height="24" fill="white"/>
    </clipPath>
  </defs>
</svg>