<svg xmlns="http://www.w3.org/2000/svg" width="24" height="24" viewBox="0 0 24 24" fill="none">
  <path d="M23.625 15.375H4.875C4.77554 15.375 4.68016 15.3355 4.60984 15.2652C4.53951 15.1948 4.5 15.0995 4.5 15V4.5C4.5 4.40054 4.53951 4.30516 4.60984 4.23484C4.68016 4.16451 4.77554 4.125 4.875 4.125H23.625C23.7245 4.125 23.8198 4.16451 23.8902 4.23484C23.9605 4.30516 24 4.40054 24 4.5V15C24 15.0995 23.9605 15.1948 23.8902 15.2652C23.8198 15.3355 23.7245 15.375 23.625 15.375ZM5.25 14.625H23.25V4.875H5.25V14.625Z" fill="currentColor"/>
  <path d="M14.625 11.625H13.875C13.5766 11.625 13.2905 11.5065 13.0795 11.2955C12.8685 11.0845 12.75 10.7984 12.75 10.5H13.5C13.5 10.5995 13.5395 10.6948 13.6098 10.7652C13.6802 10.8355 13.7755 10.875 13.875 10.875H14.625C14.7245 10.875 14.8198 10.8355 14.8902 10.7652C14.9605 10.6948 15 10.5995 15 10.5C15 10.4005 14.9605 10.3052 14.8902 10.2348C14.8198 10.1645 14.7245 10.125 14.625 10.125H13.875C13.5766 10.125 13.2905 10.0065 13.0795 9.7955C12.8685 9.58452 12.75 9.29837 12.75 9C12.75 8.70163 12.8685 8.41548 13.0795 8.2045C13.2905 7.99353 13.5766 7.875 13.875 7.875H14.625C14.9234 7.875 15.2095 7.99353 15.4205 8.2045C15.6315 8.41548 15.75 8.70163 15.75 9H15C15 8.90054 14.9605 8.80516 14.8902 8.73483C14.8198 8.66451 14.7245 8.625 14.625 8.625H13.875C13.7755 8.625 13.6802 8.66451 13.6098 8.73483C13.5395 8.80516 13.5 8.90054 13.5 9C13.5 9.09946 13.5395 9.19484 13.6098 9.26517C13.6802 9.33549 13.7755 9.375 13.875 9.375H14.625C14.9234 9.375 15.2095 9.49353 15.4205 9.7045C15.6315 9.91548 15.75 10.2016 15.75 10.5C15.75 10.7984 15.6315 11.0845 15.4205 11.2955C15.2095 11.5065 14.9234 11.625 14.625 11.625Z" fill="currentColor"/>
  <path d="M13.875 7.5H14.625V8.25H13.875V7.5Z" fill="currentColor"/>
  <path d="M13.875 11.25H14.625V12H13.875V11.25Z" fill="currentColor"/>
  <path d="M20.625 13.875H7.875C7.77554 13.875 7.68016 13.8355 7.60983 13.7652C7.53951 13.6948 7.5 13.5995 7.5 13.5C7.5 13.2016 7.38147 12.9155 7.1705 12.7045C6.95952 12.4935 6.67337 12.375 6.375 12.375C6.27554 12.375 6.18016 12.3355 6.10983 12.2652C6.03951 12.1948 6 12.0995 6 12V7.5C6 7.40054 6.03951 7.30516 6.10983 7.23483C6.18016 7.16451 6.27554 7.125 6.375 7.125C6.67337 7.125 6.95952 7.00647 7.1705 6.7955C7.38147 6.58452 7.5 6.29837 7.5 6C7.5 5.90054 7.53951 5.80516 7.60983 5.73484C7.68016 5.66451 7.77554 5.625 7.875 5.625H20.625C20.7245 5.625 20.8198 5.66451 20.8902 5.73484C20.9605 5.80516 21 5.90054 21 6C21 6.29837 21.1185 6.58452 21.3295 6.7955C21.5405 7.00647 21.8266 7.125 22.125 7.125C22.2245 7.125 22.3198 7.16451 22.3902 7.23483C22.4605 7.30516 22.5 7.40054 22.5 7.5V12C22.5 12.0995 22.4605 12.1948 22.3902 12.2652C22.3198 12.3355 22.2245 12.375 22.125 12.375C21.8266 12.375 21.5405 12.4935 21.3295 12.7045C21.1185 12.9155 21 13.2016 21 13.5C21 13.5995 20.9605 13.6948 20.8902 13.7652C20.8198 13.8355 20.7245 13.875 20.625 13.875ZM8.2125 13.125H20.2875C20.3616 12.7649 20.5396 12.4345 20.7995 12.1745C21.0595 11.9146 21.3899 11.7366 21.75 11.6625V7.8375C21.3899 7.76342 21.0595 7.5854 20.7995 7.32546C20.5396 7.06552 20.3616 6.73507 20.2875 6.375H8.2125C8.13842 6.73507 7.9604 7.06552 7.70046 7.32546C7.44052 7.5854 7.11007 7.76342 6.75 7.8375V11.6625C7.11007 11.7366 7.44052 11.9146 7.70046 12.1745C7.9604 12.4345 8.13842 12.7649 8.2125 13.125Z" fill="currentColor"/>
  <path d="M14.25 13.875C13.4342 13.875 12.6366 13.6331 11.9583 13.1798C11.2799 12.7266 10.7512 12.0823 10.439 11.3286C10.1268 10.5748 10.0451 9.74543 10.2043 8.94525C10.3634 8.14508 10.7563 7.41008 11.3332 6.83319C11.9101 6.25629 12.6451 5.86343 13.4453 5.70426C14.2454 5.5451 15.0748 5.62679 15.8286 5.939C16.5823 6.25121 17.2266 6.77992 17.6798 7.45827C18.1331 8.13663 18.375 8.93415 18.375 9.75C18.3737 10.8436 17.9387 11.8921 17.1654 12.6654C16.3921 13.4387 15.3436 13.8737 14.25 13.875ZM14.25 6.375C13.5825 6.375 12.93 6.57294 12.375 6.94379C11.8199 7.31464 11.3874 7.84174 11.1319 8.45845C10.8765 9.07515 10.8096 9.75375 10.9399 10.4084C11.0701 11.0631 11.3915 11.6645 11.8635 12.1365C12.3355 12.6085 12.9369 12.9299 13.5916 13.0602C14.2463 13.1904 14.9249 13.1235 15.5416 12.8681C16.1583 12.6126 16.6854 12.1801 17.0562 11.6251C17.4271 11.07 17.625 10.4175 17.625 9.75C17.6239 8.85523 17.268 7.99742 16.6353 7.36472C16.0026 6.73202 15.1448 6.37609 14.25 6.375Z" fill="currentColor"/>
  <path d="M6 17.625H2.625C2.52554 17.625 2.43016 17.5855 2.35984 17.5152C2.28951 17.4448 2.25 17.3495 2.25 17.25V6.75C2.25 6.65054 2.28951 6.55516 2.35984 6.48483C2.43016 6.41451 2.52554 6.375 2.625 6.375H4.875V7.125H3V16.875H6V17.625Z" fill="currentColor"/>
  <path d="M21.375 17.625H8.25V16.875H21V15H21.75V17.25C21.75 17.3495 21.7105 17.4448 21.6402 17.5152C21.5698 17.5855 21.4745 17.625 21.375 17.625Z" fill="currentColor"/>
  <path d="M19.125 19.875H0.375C0.275544 19.875 0.180161 19.8355 0.109835 19.7652C0.0395088 19.6948 0 19.5995 0 19.5V9C0 8.90054 0.0395088 8.80516 0.109835 8.73483C0.180161 8.66451 0.275544 8.625 0.375 8.625H2.625V9.375H0.75V19.125H18.75V17.25H19.5V19.5C19.5 19.5995 19.4605 19.6948 19.3902 19.7652C19.3198 19.8355 19.2245 19.875 19.125 19.875Z" fill="currentColor"/>
  <path d="M6.75 16.875H7.5V17.625H6.75V16.875Z" fill="currentColor"/>
</svg>