<svg xmlns="http://www.w3.org/2000/svg" width="40" height="40" viewBox="0 0 40 40" fill="none">
  <g clip-path="url(#clip0_986_7012)">
    <path d="M35.625 4.37842C35.9702 4.37842 36.25 4.0986 36.25 3.75342C36.25 3.40824 35.9702 3.12842 35.625 3.12842C35.2798 3.12842 35 3.40824 35 3.75342C35 4.0986 35.2798 4.37842 35.625 4.37842Z" fill="currentColor"/>
    <path d="M33.125 4.37842C33.4702 4.37842 33.75 4.0986 33.75 3.75342C33.75 3.40824 33.4702 3.12842 33.125 3.12842C32.7798 3.12842 32.5 3.40824 32.5 3.75342C32.5 4.0986 32.7798 4.37842 33.125 4.37842Z" fill="currentColor"/>
    <path d="M30.625 4.37842C30.9702 4.37842 31.25 4.0986 31.25 3.75342C31.25 3.40824 30.9702 3.12842 30.625 3.12842C30.2798 3.12842 30 3.40824 30 3.75342C30 4.0986 30.2798 4.37842 30.625 4.37842Z" fill="currentColor"/>
    <path d="M37.8125 0.00341797H2.1875C1.60734 0.00341797 1.05094 0.233886 0.640704 0.644122C0.230468 1.05436 0 1.61076 0 2.19092L0 37.8159C0 38.3961 0.230468 38.9525 0.640704 39.3627C1.05094 39.7729 1.60734 40.0034 2.1875 40.0034H37.8125C38.3927 40.0034 38.9491 39.7729 39.3593 39.3627C39.7695 38.9525 40 38.3961 40 37.8159V2.19092C40 1.61076 39.7695 1.05436 39.3593 0.644122C38.9491 0.233886 38.3927 0.00341797 37.8125 0.00341797ZM2.1875 1.25342H37.8125C38.0611 1.25342 38.2996 1.35219 38.4754 1.52801C38.6512 1.70382 38.75 1.94228 38.75 2.19092V6.25342H1.25V2.19092C1.25 1.94228 1.34877 1.70382 1.52459 1.52801C1.7004 1.35219 1.93886 1.25342 2.1875 1.25342ZM37.8125 38.7534H2.1875C1.93886 38.7534 1.7004 38.6546 1.52459 38.4788C1.34877 38.303 1.25 38.0646 1.25 37.8159V7.50342H38.75V37.8159C38.75 38.0646 38.6512 38.303 38.4754 38.4788C38.2996 38.6546 38.0611 38.7534 37.8125 38.7534Z" fill="currentColor"/>
    <path d="M20.0313 26.3472C17.5875 26.3472 15.3688 27.4097 14.375 29.0659C14.3215 29.1364 14.2836 29.2174 14.2637 29.3036C14.2439 29.3898 14.2426 29.4793 14.2599 29.566C14.2772 29.6528 14.3127 29.7349 14.3641 29.8069C14.4155 29.8789 14.4816 29.9392 14.558 29.9838C14.6344 30.0283 14.7194 30.0562 14.8074 30.0654C14.8954 30.0747 14.9843 30.0652 15.0684 30.0375C15.1524 30.0098 15.2296 29.9646 15.2949 29.9048C15.3601 29.8451 15.4119 29.7722 15.4469 29.6909C16.2188 28.4128 18.0188 27.5878 20.0313 27.5878C21.9282 27.5878 23.6844 28.3503 24.5063 29.5284C24.551 29.6005 24.6099 29.6627 24.6795 29.7112C24.749 29.7598 24.8277 29.7937 24.9107 29.8109C24.9938 29.8281 25.0795 29.8282 25.1626 29.8112C25.2456 29.7942 25.3244 29.7604 25.394 29.712C25.4637 29.6636 25.5227 29.6015 25.5676 29.5296C25.6125 29.4576 25.6423 29.3773 25.6551 29.2934C25.6679 29.2096 25.6636 29.124 25.6423 29.0419C25.621 28.9599 25.5832 28.8829 25.5313 28.8159C24.4688 27.2972 22.3594 26.3472 20.0313 26.3472Z" fill="currentColor"/>
    <path d="M15.1843 22.319C15.3038 22.4214 15.4576 22.4749 15.6149 22.4688C15.7722 22.4628 15.9215 22.3975 16.0328 22.2862C16.1441 22.1749 16.2093 22.0257 16.2154 21.8684C16.2214 21.7111 16.1679 21.5573 16.0655 21.4378L14.0093 19.3784L16.0655 17.319C16.1679 17.1994 16.2214 17.0457 16.2154 16.8884C16.2093 16.7311 16.1441 16.5818 16.0328 16.4705C15.9215 16.3592 15.7722 16.294 15.6149 16.2879C15.4576 16.2819 15.3038 16.3354 15.1843 16.4378L13.1249 18.494L11.0655 16.4378C10.946 16.3354 10.7922 16.2819 10.6349 16.2879C10.4776 16.294 10.3284 16.3592 10.2171 16.4705C10.1057 16.5818 10.0405 16.7311 10.0345 16.8884C10.0284 17.0457 10.0819 17.1994 10.1843 17.319L12.2405 19.3784L10.1843 21.4378C10.1189 21.4938 10.0657 21.5627 10.0282 21.6403C9.99069 21.7178 9.96961 21.8023 9.96629 21.8884C9.96296 21.9744 9.97747 22.0603 10.0089 22.1405C10.0403 22.2207 10.088 22.2935 10.1489 22.3544C10.2098 22.4153 10.2826 22.463 10.3628 22.4944C10.443 22.5258 10.5289 22.5403 10.6149 22.537C10.701 22.5337 10.7855 22.5126 10.863 22.4751C10.9406 22.4376 11.0095 22.3844 11.0655 22.319L13.1249 20.2628L15.1843 22.319Z" fill="currentColor"/>
    <path d="M29.8155 16.4378C29.6984 16.3214 29.54 16.2561 29.3749 16.2561C29.2098 16.2561 29.0514 16.3214 28.9343 16.4378L26.8749 18.4941L24.8155 16.4378C24.696 16.3355 24.5422 16.282 24.3849 16.288C24.2276 16.2941 24.0784 16.3593 23.9671 16.4706C23.8557 16.5819 23.7905 16.7311 23.7845 16.8884C23.7784 17.0457 23.8319 17.1995 23.9343 17.3191L25.9905 19.3785L23.9343 21.4378C23.8689 21.4939 23.8157 21.5628 23.7782 21.6404C23.7407 21.7179 23.7196 21.8024 23.7163 21.8884C23.713 21.9745 23.7275 22.0603 23.7589 22.1406C23.7903 22.2208 23.838 22.2936 23.8989 22.3545C23.9598 22.4154 24.0326 22.4631 24.1128 22.4945C24.193 22.5259 24.2789 22.5404 24.3649 22.5371C24.451 22.5338 24.5355 22.5127 24.613 22.4752C24.6906 22.4377 24.7595 22.3845 24.8155 22.3191L26.8749 20.2628L28.9343 22.3191C29.0538 22.4215 29.2076 22.475 29.3649 22.4689C29.5222 22.4628 29.6715 22.3976 29.7828 22.2863C29.8941 22.175 29.9593 22.0258 29.9654 21.8685C29.9714 21.7112 29.9179 21.5574 29.8155 21.4378L27.7593 19.3785L29.8155 17.3191C29.9319 17.202 29.9973 17.0436 29.9973 16.8785C29.9973 16.7134 29.9319 16.555 29.8155 16.4378Z" fill="currentColor"/>
  </g>
  <defs>
    <clipPath id="clip0_986_7012">
      <rect width="40" height="40" fill="white" transform="translate(0 0.00341797)"/>
    </clipPath>
  </defs>
</svg>