<svg xmlns="http://www.w3.org/2000/svg" width="24" height="24" viewBox="0 0 24 24" fill="none">
  <g clip-path="url(#stanndard)">
    <path d="M19.5276 4.1708L16.7275 0.170813C16.6528 0.0636094 16.5304 0 16.4 0H7.59994C7.46953 0 7.34714 0.0636094 7.27233 0.170813L4.47234 4.1708C4.36073 4.32961 4.37995 4.54561 4.51715 4.68281L11.7172 11.8828C11.7952 11.9608 11.8976 12 12 12C12.1024 12 12.2047 11.9608 12.2827 11.8828L19.4827 4.68281C19.6196 4.54561 19.6387 4.32961 19.5276 4.1708ZM12 11.0344L5.31994 4.35441L7.80834 0.800016H16.1916L18.6795 4.35441L12 11.0344Z" fill="currentColor"/>
    <path d="M18.8001 4H4.80005V4.80002H18.8001V4Z" fill="currentColor"/>
    <path d="M14.4271 4.25488L11.9999 10.4965L9.57274 4.25488L8.82715 4.5449L11.6271 11.7449C11.6867 11.8989 11.8347 12.0001 11.9999 12.0001C12.1647 12.0001 12.3127 11.8989 12.3724 11.7449L15.1723 4.5449L14.4271 4.25488Z" fill="currentColor"/>
    <path d="M16.0285 0.251621L14.7033 3.56484L12.3277 0.17123C12.1777 -0.0427539 11.8217 -0.0427539 11.6721 0.17123L9.29655 3.56484L7.9713 0.251621L7.22852 0.548809L8.8285 4.54879C8.8833 4.6852 9.00808 4.78078 9.15409 4.79761C9.30091 4.81603 9.44369 4.74998 9.52769 4.62961L12.0001 1.09762L14.4725 4.62923C14.5477 4.73723 14.6705 4.80004 14.8001 4.80004C14.8153 4.80004 14.8306 4.79925 14.8461 4.79765C14.9917 4.78087 15.1165 4.68525 15.1713 4.54884L16.7713 0.548856L16.0285 0.251621Z" fill="currentColor"/>
    <path d="M2.79998 4H0V4.80002H2.79998V4Z" fill="currentColor"/>
    <path d="M2.2216 0.066729L1.77783 0.732422L4.17802 2.33245L4.62179 1.66676L2.2216 0.066729Z" fill="currentColor"/>
    <path d="M4.17827 6.46808L1.77808 8.06812L2.22184 8.73381L4.62204 7.13378L4.17827 6.46808Z" fill="currentColor"/>
    <path d="M23.9999 4H21.2V4.80002H23.9999V4Z" fill="currentColor"/>
    <path d="M21.7789 0.0676921L19.3787 1.66772L19.8224 2.33342L22.2226 0.733385L21.7789 0.0676921Z" fill="currentColor"/>
    <path d="M19.8229 6.46541L19.3792 7.1311L21.7793 8.73114L22.2231 8.06544L19.8229 6.46541Z" fill="currentColor"/>
    <path d="M23.2945 13.3156C22.7533 12.9536 22.0545 12.9536 21.5089 13.3188L15.8753 17.2H9.4001C9.06931 17.2 8.8001 16.9308 8.8001 16.6C8.8001 16.2692 9.06931 16 9.4001 16H12.3997C12.4005 16 12.4013 16 12.4017 16C13.7734 16 14.9341 15.0192 15.1633 13.6636L15.2273 13.2636C15.2457 13.148 15.2125 13.0301 15.1365 12.9409C15.0605 12.8513 14.9493 12.8 14.8321 12.8H7.74771C7.3061 12.8005 6.87129 12.9496 6.52249 13.2205L3.35449 15.6845L3.8457 16.3157L7.01327 13.8521C7.22248 13.6901 7.48329 13.6005 7.74809 13.6001H14.3613C14.1721 14.5313 13.3589 15.2 12.4013 15.2C12.4009 15.2 12.4005 15.2 12.4001 15.2H9.4001C8.62812 15.2 8.00009 15.828 8.00009 16.6001C8.00009 17.372 8.62807 18.0001 9.4001 18.0001H16.0001C16.0813 18.0001 16.1601 17.9753 16.2269 17.9293L21.9585 13.9805C22.2297 13.7997 22.5793 13.7993 22.8481 13.9797C23.0673 14.1277 23.1989 14.3741 23.2001 14.6361V14.9825C23.1988 15.2393 23.0733 15.4817 22.8653 15.6293L16.6401 20.0236L6.32454 22.0068L6.47576 22.7928L16.8754 20.7928C16.9314 20.782 16.9846 20.7592 17.0309 20.7268L23.3281 16.2816C23.7461 15.984 23.9973 15.4996 24.0001 14.984V14.634C23.9973 14.1052 23.7341 13.6124 23.2945 13.3156Z" fill="currentColor"/>
    <path d="M7.15795 22.6213L3.15797 14.6212C3.10636 14.5185 3.01355 14.4428 2.90278 14.4133C2.79197 14.3841 2.67356 14.4037 2.57798 14.4673L0.177984 16.0672C0.0667969 16.1416 9.19389e-09 16.2665 9.19389e-09 16.4001V23.6001C-4.68658e-05 23.8213 0.179156 24 0.399938 24H5.19994C5.26195 24 5.32355 23.9857 5.37914 23.958L6.97913 23.158C7.17675 23.0593 7.25677 22.8188 7.15795 22.6213ZM5.10553 23.2H0.799969V16.614L2.64478 15.384L6.2632 22.6213L5.10553 23.2Z" fill="currentColor"/>
    <path d="M2.8001 20C2.1385 20 1.6001 20.5384 1.6001 21.2C1.6001 21.8616 2.1385 22.4 2.8001 22.4C3.46169 22.4 4.0001 21.8616 4.0001 21.2C4.0001 20.5384 3.46169 20 2.8001 20ZM2.8001 21.6C2.57969 21.6 2.40011 21.4208 2.40011 21.2C2.40011 20.9792 2.57969 20.8 2.8001 20.8C3.0205 20.8 3.20008 20.9792 3.20008 21.2C3.20013 21.4208 3.0205 21.6 2.8001 21.6Z" fill="currentColor"/>
  </g>
  <defs>
    <clipPath id="stanndard">
      <rect width="24" height="24" fill="white"/>
    </clipPath>
  </defs>
</svg>