<svg xmlns="http://www.w3.org/2000/svg" width="24" height="24" viewBox="0 0 24 24" fill="none">
  <g clip-path="url(#standard)">
    <path d="M9.06722 20.2596L8.95483 20.6205L9.40015 23.3164L9.67196 23.2714L9.17143 20.2412H9.0922C9.08014 20.2412 9.07081 20.2481 9.06722 20.2596Z" fill="currentColor"/>
    <path d="M5.27577 20.198C5.30622 20.1002 5.39553 20.0345 5.49802 20.0345H5.83983C5.95428 20.0345 6.05087 20.1164 6.06952 20.2293L6.57943 23.3163L6.85124 23.2713L6.34135 20.1844C6.33249 20.1308 6.31515 20.0806 6.29151 20.0345H6.51564H8.41686C8.44778 19.9446 8.49486 19.8641 8.55458 19.7957C8.36623 19.6984 8.20698 19.5511 8.09391 19.3677L5.5054 19.3566C5.23196 19.3554 4.99591 19.1785 4.91804 18.9163L3.87219 15.395C3.80646 15.1736 3.59928 15.019 3.36841 15.019H1.21298C1.04546 15.019 0.891935 15.0961 0.79176 15.2303C0.691571 15.3646 0.661472 15.5337 0.709176 15.6942L1.70107 19.034C1.82274 19.4437 2.17556 19.7287 2.5945 19.7656C2.40651 19.7961 2.25006 19.9293 2.19187 20.1161L1.21514 23.2528L1.47821 23.3348L2.45493 20.1981C2.48538 20.1002 2.57473 20.0345 2.67721 20.0345H5.04646C5.03317 20.0604 5.02161 20.0875 5.01269 20.1161L4.97378 20.2411L4.03596 23.2529L4.29903 23.3348L5.26234 20.2411L5.27577 20.198Z" fill="currentColor"/>
    <path d="M15.2328 19.784L15.6681 19.7859L15.6698 19.3726L11.9204 19.3566C11.647 19.3554 11.411 19.1785 11.3331 18.9163L10.2872 15.395C10.2215 15.1736 10.0143 15.019 9.78345 15.019H7.62802C7.4605 15.019 7.30697 15.0961 7.2068 15.2303C7.10661 15.3646 7.07651 15.5337 7.12422 15.6942L8.11611 19.034C8.23778 19.4437 8.5906 19.7287 9.00954 19.7656C8.82155 19.7961 8.6651 19.9293 8.60691 20.1161L7.63018 23.2528L7.89324 23.3348L8.86997 20.1981C8.90042 20.1002 8.98977 20.0345 9.09225 20.0345H11.4615C11.4482 20.0604 11.4366 20.0875 11.4277 20.1161L11.3888 20.2411L10.451 23.2529L10.7141 23.3348L11.6774 20.2411L11.6908 20.198C11.7212 20.1002 11.8106 20.0345 11.913 20.0345H12.2549C12.3693 20.0345 12.4659 20.1164 12.4845 20.2294L12.9944 23.3163L13.2663 23.2714L12.7564 20.1845C12.7475 20.1308 12.7302 20.0806 12.7065 20.0345H12.9307H15.0757C15.1901 20.0345 15.2867 20.1164 15.3054 20.2294L15.8153 23.3163L16.0871 23.2714L15.5772 20.1845C15.5621 20.0929 15.5234 20.0107 15.468 19.9435C15.407 19.8694 15.3255 19.814 15.2328 19.784Z" fill="currentColor"/>
    <path d="M2.10379 10.1353L2.79029 8.02785C3.11848 7.9657 3.46815 7.89471 3.8354 7.81369L5.24036 9.45649L5.70909 7.34531C5.94323 7.27964 6.18073 7.21033 6.42105 7.1369C6.60639 7.08028 6.79596 7.02018 6.98842 6.95722L8.57284 8.44473L8.80843 6.29316C9.15119 6.15453 9.49805 6.00587 9.8468 5.84668L11.6256 7.1574L11.6041 4.95318C11.9291 4.76933 12.2517 4.57522 12.57 4.37054L14.5327 5.39633L14.1725 3.20893C14.3466 3.06627 14.5184 2.92025 14.6865 2.76955L16.7593 3.358L16.0086 1.41193C16.201 1.18388 16.3867 0.949109 16.5631 0.705917L16.4516 0.625C16.292 0.845001 16.1253 1.05863 15.9523 1.26613L15.9515 1.26402L15.825 1.41406C13.2383 4.42061 9.32418 6.10557 6.38366 7.00429C2.92359 8.06184 0.0287907 8.29073 0 8.29295L0.0103591 8.4303C0.0196231 8.42959 0.323296 8.40556 0.845138 8.33866L2.10379 10.1353Z" fill="currentColor"/>
    <path d="M13.0503 14.5633C13.0761 14.8496 13.3165 15.065 13.5985 15.065C13.615 15.065 13.6318 15.0642 13.6485 15.0627L13.8528 15.0444L13.1504 14.1948C13.0768 14.2982 13.0381 14.4271 13.0503 14.5633Z" fill="currentColor"/>
    <path d="M18.1516 12.7841L18.5607 14.73L21.9841 13.2912L22.0078 13.2728C21.8027 12.7423 21.5629 12.2731 21.3363 11.942L21.4742 11.864C21.7525 12.2748 22.0154 12.8365 22.1974 13.3263L19.4835 15.4281C19.2429 15.6145 19.1989 15.9606 19.3852 16.2012C19.4938 16.3414 19.6567 16.4148 19.8212 16.4148C19.9391 16.4148 20.0578 16.3772 20.1582 16.2995L23.1838 13.9563C23.3655 13.8156 23.4407 13.5769 23.3727 13.3575C23.2871 13.0813 22.9651 12.1141 22.436 11.3199C22.1121 10.8337 21.7106 10.4123 21.2378 10.2544C21.1545 10.2265 21.0693 10.2203 20.9878 10.2317C20.9524 10.2319 20.9166 10.2356 20.8806 10.2432L18.2765 10.7907C18.194 10.808 18.1204 10.844 18.0583 10.8927C17.79 11.0728 17.493 11.4893 17.013 12.6466C16.9479 12.8036 16.8864 12.958 16.8296 13.1041L17.6386 14.0826C17.7981 13.6374 17.9799 13.1764 18.1516 12.7841Z" fill="currentColor"/>
    <path d="M19.944 9.77047C20.5491 9.16535 20.5491 8.18426 19.944 7.57914C19.3389 6.97402 18.3578 6.97402 17.7526 7.57914C17.1475 8.18426 17.1475 9.16535 17.7526 9.77047C18.3578 10.3756 19.3389 10.3756 19.944 9.77047Z" fill="currentColor"/>
    <path d="M19.8212 16.5733C19.5999 16.5733 19.3953 16.473 19.2599 16.2982C19.1165 16.1131 19.0801 15.8791 19.1396 15.6694L18.9728 15.7404C18.9618 15.7451 18.9559 15.755 18.9571 15.7669L19.3067 19.2414L18.6214 19.3103L18.4525 17.6318L17.9659 22.4075C17.9182 22.8755 18.259 23.2933 18.7269 23.341C19.1946 23.3887 19.6126 23.0482 19.6603 22.5802L20.2247 17.0414L19.9226 16.5656C19.8892 16.5704 19.8555 16.5733 19.8212 16.5733Z" fill="currentColor"/>
    <path d="M22.4887 15.4298C22.4891 15.4254 22.4894 15.4209 22.4898 15.4165L22.1824 14.9324L20.5193 16.2203L20.8629 16.7613L21.0198 16.7216L21.1099 17.1502L21.6895 18.0628L21.3474 18.2802L22.2763 22.6988C22.3731 23.1591 22.8248 23.4536 23.285 23.3569C23.7451 23.2601 24.0399 22.8087 23.9431 22.3483L22.4887 15.4298Z" fill="currentColor"/>
    <path d="M23.7674 17.043L23.9999 16.8952L22.5649 14.636L22.3462 14.8054L23.7674 17.043Z" fill="currentColor"/>
    <path d="M19.3865 15.3029L21.3513 13.7813L18.6336 14.9235C18.3815 15.0294 18.0951 14.959 17.9208 14.7483L15.5801 11.9172C15.433 11.7392 15.1819 11.6781 14.9694 11.7685L12.986 12.6121C12.8318 12.6776 12.7207 12.8086 12.681 12.9714C12.6414 13.1341 12.6799 13.3015 12.7866 13.4306L15.0065 16.1157C15.2789 16.4451 15.7151 16.5693 16.1151 16.4393C15.954 16.5409 15.8622 16.7247 15.8818 16.9194L16.2106 20.1881L16.4848 20.1606L16.1559 16.8918C16.1456 16.7899 16.2021 16.6944 16.2964 16.6543L18.4766 15.727C18.4745 15.7561 18.4746 15.7855 18.4775 15.8153L18.8064 19.0841L19.0806 19.0565L18.7516 15.7877C18.7414 15.6858 18.7979 15.5904 18.8921 15.5503L19.2067 15.4165C19.2326 15.4055 19.2593 15.3996 19.286 15.3982C19.3158 15.3638 19.3493 15.3318 19.3865 15.3029Z" fill="currentColor"/>
    <path d="M20.3551 16.3474L20.2552 16.4248C20.2151 16.4558 20.1723 16.4816 20.1277 16.5032L21.1717 18.147L21.4043 17.9992L20.3551 16.3474Z" fill="currentColor"/>
  </g>
  <defs>
    <clipPath id="standard">
      <rect width="24" height="24" fill="white"/>
    </clipPath>
  </defs>
</svg>