<svg xmlns="http://www.w3.org/2000/svg" width="24" height="24" viewBox="0 0 24 24" fill="none">
  <g clip-path="url(#standard)">
    <path d="M8.08828 18.3704C8.08219 18.3404 8.07328 18.3109 8.06156 18.2823C8.04984 18.2541 8.03531 18.227 8.01844 18.2016C8.00156 18.1759 7.98188 18.152 7.96031 18.1304C7.93875 18.1088 7.91484 18.0891 7.88906 18.0723C7.86375 18.0554 7.83656 18.0409 7.80797 18.0291C7.77984 18.0174 7.75031 18.0081 7.72031 18.0024C7.65984 17.9902 7.5975 17.9902 7.5375 18.0024C7.5075 18.0081 7.47797 18.0174 7.44937 18.0291C7.42125 18.0409 7.39406 18.0554 7.36875 18.0723C7.34297 18.0891 7.31906 18.1088 7.2975 18.1304C7.27594 18.152 7.25625 18.1759 7.23938 18.2016C7.22203 18.227 7.20797 18.2541 7.19625 18.2823C7.18453 18.3109 7.17516 18.3404 7.16953 18.3704C7.16344 18.4004 7.16016 18.4313 7.16016 18.4618C7.16016 18.4923 7.16344 18.5232 7.16953 18.5532C7.17516 18.5832 7.18453 18.6127 7.19625 18.6409C7.20797 18.6695 7.22203 18.6966 7.23938 18.722C7.25625 18.7477 7.27594 18.7716 7.2975 18.7932C7.31906 18.8148 7.34297 18.8345 7.36875 18.8513C7.39406 18.8683 7.42125 18.8828 7.44937 18.8945C7.47797 18.9062 7.5075 18.9156 7.5375 18.9212C7.5675 18.9273 7.59844 18.9306 7.62891 18.9306C7.65938 18.9306 7.69031 18.9273 7.72031 18.9212C7.75031 18.9156 7.77984 18.9062 7.80797 18.8945C7.83656 18.8828 7.86375 18.8682 7.88906 18.8513C7.91484 18.8345 7.93875 18.8148 7.96031 18.7932C7.98188 18.7716 8.00156 18.7477 8.01844 18.722C8.03531 18.6966 8.04984 18.6695 8.06156 18.6409C8.07328 18.6127 8.08219 18.5832 8.08828 18.5532C8.09438 18.5232 8.09766 18.4923 8.09766 18.4618C8.09766 18.4313 8.09438 18.4004 8.08828 18.3704Z" fill="currentColor"/>
    <path d="M21.5622 18.5148C21.5603 18.5101 21.5585 18.5054 21.5565 18.5009C21.1251 17.4913 20.1132 17.1182 18.9158 17.5272L15.6501 18.4303C15.4613 17.8585 14.9903 17.3719 14.3244 17.1248C14.3203 17.1233 14.3161 17.1218 14.312 17.1204L10.7222 15.902C10.4235 15.5158 9.48755 14.5276 7.73522 14.5276C6.51061 14.5276 5.42728 15.3677 4.8075 16.2834H0.46875C0.209859 16.2834 0 16.4932 0 16.7521V22.662C0 22.9209 0.209859 23.1307 0.46875 23.1307H3.2558C3.51469 23.1307 3.72455 22.9209 3.72455 22.662V22.2573H5.03156C5.29045 22.2573 5.50031 22.0474 5.50031 21.7885V21.6536C6.26222 21.7201 6.51281 21.8646 7.21256 22.2681C7.75069 22.5784 8.56402 23.0474 10.0287 23.7059C10.0355 23.709 10.0424 23.7119 10.0492 23.7146C10.3304 23.8252 10.8799 23.9989 11.5574 23.9989C12.0289 23.9989 12.5626 23.9147 13.1104 23.6664L20.3287 21.0819C20.3415 21.0773 20.3542 21.0721 20.3666 21.0664C21.0564 20.749 22.0845 19.8545 21.5622 18.5148ZM2.78705 22.1932H0.9375V17.2208H2.78705V22.1932ZM4.56281 21.3197H3.72455V17.2208H4.56281V21.3197ZM19.992 20.2066L12.7769 22.7899C12.7706 22.7922 12.762 22.7955 12.7558 22.7981C12.7494 22.8007 12.7431 22.8034 12.7369 22.8062C11.732 23.268 10.7768 22.9916 10.4025 22.846C8.98772 22.2094 8.23261 21.774 7.68089 21.4559C6.91383 21.0135 6.54422 20.8004 5.50031 20.7142V16.9387C5.94464 16.2105 6.8063 15.465 7.73527 15.465C9.32836 15.465 10.0034 16.5012 10.0299 16.543C10.0872 16.6361 10.1752 16.7063 10.2786 16.7414L14.004 18.0058C14.599 18.2291 14.9134 18.7387 14.7689 19.2468C14.7022 19.4814 14.5481 19.6761 14.335 19.7948C14.1237 19.9125 13.8795 19.9416 13.6467 19.8772L9.44705 18.5463C9.20011 18.4681 8.93677 18.6048 8.85858 18.8516C8.78034 19.0984 8.91703 19.3618 9.16383 19.44L13.3708 20.7732C13.3753 20.7746 13.3797 20.776 13.3842 20.7772C13.5522 20.825 13.7232 20.8486 13.8931 20.8486C14.2043 20.8486 14.512 20.7694 14.7913 20.6137C15.2232 20.3731 15.5355 19.9787 15.6706 19.5032C15.6814 19.4652 15.691 19.4272 15.6993 19.3893L19.2188 18.4143C19.7271 18.2407 20.3944 18.1781 20.6915 18.8623C20.999 19.6656 20.1998 20.1075 19.992 20.2066Z" fill="currentColor"/>
    <path d="M16.8309 6.16605C16.8248 6.13605 16.8159 6.10652 16.8038 6.07792C16.792 6.0498 16.778 6.02261 16.7606 5.9973C16.7437 5.97152 16.7241 5.94761 16.7025 5.92605C16.6809 5.90449 16.657 5.8848 16.6312 5.86792C16.6059 5.85105 16.5787 5.83652 16.5506 5.8248C16.522 5.81308 16.4925 5.80371 16.463 5.79808C16.4025 5.78589 16.3402 5.78589 16.2797 5.79808C16.2497 5.80371 16.2202 5.81308 16.192 5.8248C16.1634 5.83652 16.1363 5.85105 16.1109 5.86792C16.0852 5.8848 16.0612 5.90449 16.0397 5.92605C16.0181 5.94761 15.9984 5.97152 15.9816 5.9973C15.9647 6.02261 15.9502 6.0498 15.9384 6.07792C15.9267 6.10652 15.9173 6.13605 15.9117 6.16605C15.9056 6.19605 15.9023 6.22699 15.9023 6.25746C15.9023 6.28792 15.9056 6.31886 15.9117 6.34886C15.9173 6.37886 15.9267 6.40839 15.9384 6.43652C15.9502 6.46511 15.9647 6.4923 15.9816 6.51761C15.9984 6.54339 16.0181 6.5673 16.0397 6.58886C16.0612 6.61042 16.0852 6.63011 16.1109 6.64699C16.1363 6.66386 16.1634 6.67839 16.192 6.69011C16.2202 6.70183 16.2497 6.71074 16.2797 6.71683C16.3097 6.72292 16.3406 6.72621 16.3711 6.72621C16.4016 6.72621 16.4325 6.72292 16.463 6.71683C16.4925 6.71074 16.522 6.70183 16.5506 6.69011C16.5787 6.67839 16.6059 6.66386 16.6312 6.64699C16.657 6.63011 16.6809 6.61042 16.7025 6.58886C16.7241 6.5673 16.7437 6.54339 16.7606 6.51761C16.778 6.4923 16.792 6.46511 16.8038 6.43652C16.8159 6.40839 16.8248 6.37886 16.8309 6.34886C16.837 6.31886 16.8398 6.28792 16.8398 6.25746C16.8398 6.22699 16.837 6.19605 16.8309 6.16605Z" fill="currentColor"/>
    <path d="M23.5312 1.58865H20.7442C20.4853 1.58865 20.2754 1.79851 20.2754 2.0574V2.46212H18.9684C18.7095 2.46212 18.4997 2.67198 18.4997 2.93087V3.06577C17.7378 2.99926 17.4872 2.85479 16.7875 2.45129C16.2493 2.14098 15.436 1.67199 13.9713 1.01345C13.9645 1.01035 13.9577 1.00749 13.9507 1.00477C13.4739 0.817181 12.2244 0.448087 10.8898 1.05291L9.00353 1.72829L7.41358 0.138384C7.23053 -0.0446631 6.93372 -0.0446631 6.75067 0.138384L1.53077 5.35824C1.36192 5.52713 1.32953 5.81996 1.53077 6.0212L10.4505 14.9409C10.5932 15.0837 10.9274 15.1269 11.1134 14.9409L15.879 10.1754C16.0029 10.1861 16.1314 10.1919 16.2647 10.1919C17.4894 10.1919 18.5726 9.35176 19.1924 8.4361H23.5312C23.7901 8.4361 24 8.22624 24 7.96735V2.0574C24 1.79851 23.7901 1.58865 23.5312 1.58865ZM7.08208 1.13274L8.15045 2.20112C7.83288 2.39752 7.4657 2.50262 7.08208 2.50262C6.69841 2.50262 6.33128 2.39757 6.0137 2.20112L7.08208 1.13274ZM3.59355 6.75812L2.52517 5.6897L3.59355 4.62132C3.78996 4.9389 3.89505 5.30607 3.89505 5.6897C3.89505 6.07332 3.79 6.44049 3.59355 6.75812ZM10.782 13.9465L9.71378 12.8783C10.366 12.4758 11.1979 12.4758 11.8501 12.8783L10.782 13.9465ZM12.5255 12.203C11.4896 11.4516 10.0743 11.4516 9.03845 12.203L4.26888 7.4334C4.63492 6.92996 4.83255 6.32523 4.83255 5.6897C4.83255 5.05412 4.63497 4.44943 4.26888 3.94599L5.33842 2.87649C5.84186 3.24254 6.44655 3.44017 7.08213 3.44017C7.7177 3.44017 8.32239 3.24254 8.82583 2.87649L9.83969 3.89035C9.62092 3.92265 9.40759 3.99474 9.20866 4.1056C8.87266 4.29282 8.60903 4.57318 8.44488 4.91237C7.91613 5.01029 7.42661 5.26627 7.04261 5.65023C6.00081 6.69207 6.00081 8.38721 7.04266 9.42906C7.56353 9.94993 8.24777 10.2104 8.93205 10.2104C9.61628 10.2104 10.3006 9.94998 10.8215 9.42906C11.1604 9.09015 11.3978 8.67362 11.5167 8.21968L13.0994 8.75682C12.9213 9.5822 13.1037 10.4505 13.596 11.1325L12.5255 12.203ZM9.67558 7.5946C9.6797 7.5961 9.68383 7.5976 9.688 7.59901L10.6253 7.91715C10.5545 8.2366 10.3944 8.53032 10.1586 8.76615C9.48227 9.44237 8.38183 9.44246 7.70561 8.76615C7.0293 8.08988 7.0293 6.98949 7.70561 6.31318C7.86874 6.14996 8.06125 6.02242 8.27102 5.93593C8.35755 6.65602 8.87603 7.29788 9.67558 7.5946ZM14.2714 10.4571C14.0905 10.1622 13.9881 9.82571 13.9719 9.48226C14.1964 9.64459 14.4708 9.80363 14.7986 9.92987L14.2714 10.4571ZM18.4996 7.78046C18.0553 8.50881 17.1937 9.25426 16.2647 9.25426C16.0909 9.25426 15.928 9.24188 15.7757 9.21985C15.7751 9.21976 15.7745 9.21967 15.7739 9.21957C14.7616 9.07252 14.217 8.49718 14.0375 8.26937C14.028 8.25531 13.9872 8.20201 13.9812 8.19315C13.9266 8.09556 13.837 8.01709 13.7229 7.97832L9.99592 6.7134C9.40117 6.49018 9.08678 5.98088 9.23088 5.47295C9.23097 5.47262 9.23106 5.47229 9.23116 5.47196C9.2313 5.47159 9.23139 5.47117 9.23149 5.47079C9.29847 5.23688 9.45231 5.04287 9.66494 4.92442C9.87616 4.80671 10.1203 4.77751 10.3532 4.84206L14.5529 6.17288C14.7997 6.25121 15.0632 6.11443 15.1413 5.86763C15.2195 5.62084 15.0829 5.3574 14.8361 5.27917L11.496 4.22073L11.4669 4.19157C11.4666 4.19129 11.4663 4.19096 11.466 4.19068L9.73675 2.46146L11.2231 1.92924C11.2281 1.92742 11.2343 1.92512 11.2392 1.9231C11.2405 1.92259 11.2429 1.92165 11.2442 1.92113C11.2505 1.91856 11.2568 1.91584 11.263 1.91298C12.2679 1.45117 13.223 1.72759 13.5974 1.87318C15.0122 2.50979 15.7674 2.94521 16.3191 3.26335C17.0861 3.70571 17.4557 3.91885 18.4996 4.00506V7.78046ZM20.2754 7.49851H19.4372V3.39962H20.2754V7.49851ZM23.0625 7.49851H21.2129V2.52615H23.0625V7.49851Z" fill="currentColor"/>
  </g>
  <defs>
    <clipPath id="standard">
      <rect width="24" height="24" fill="white"/>
    </clipPath>
  </defs>
</svg>