<svg xmlns="http://www.w3.org/2000/svg" width="24" height="24" viewBox="0 0 24 24" fill="none">
  <path d="M2.99922 14.0895C3.22422 14.0895 3.44697 13.989 3.59397 13.797L3.92022 13.3732C4.40847 16.2697 6.43722 18.7477 9.31722 19.7475C10.2037 20.055 11.1135 20.2027 12.0112 20.2027C14.6992 20.2027 17.286 18.8767 18.8347 16.542C19.0635 16.197 18.969 15.7312 18.624 15.5025C18.2775 15.2722 17.814 15.3682 17.5837 15.7132C15.897 18.2587 12.6997 19.3357 9.80997 18.3307C7.41222 17.4982 5.73972 15.411 5.38272 12.987L6.02472 13.4812C6.35397 13.7325 6.82422 13.6725 7.07622 13.344C7.32897 13.0155 7.26822 12.5452 6.93972 12.2925C6.93972 12.2925 5.16597 10.9267 5.16147 10.9237C4.78872 10.6365 4.25847 10.4752 3.92097 10.9155L2.40597 12.8827C2.15322 13.2112 2.21397 13.6815 2.54247 13.9342C2.67822 14.0385 2.83947 14.0895 2.99922 14.0895Z" fill="currentColor"/>
  <path d="M5.37661 8.49826C5.72086 8.72701 6.1866 8.63251 6.41685 8.28751C8.10361 5.74276 11.3039 4.66576 14.1906 5.67001C16.5884 6.50251 18.2609 8.58976 18.6179 11.0138L17.9759 10.5195C17.6466 10.2675 17.1764 10.3275 16.9244 10.6568C16.6716 10.9853 16.7324 11.4555 17.0609 11.7083C17.0609 11.7083 18.8346 13.0733 18.8391 13.077C19.2186 13.3688 19.7369 13.5323 20.0796 13.0853L21.5946 11.118C21.8474 10.7895 21.7866 10.3193 21.4581 10.0665C21.1296 9.81376 20.6586 9.87526 20.4066 10.2038L20.0804 10.6275C19.5921 7.73101 17.5634 5.25301 14.6834 4.25326C11.1434 3.02476 7.23136 4.34251 5.16585 7.45801C4.9371 7.80376 5.03161 8.26876 5.37661 8.49826Z" fill="currentColor"/>
</svg>