<svg xmlns="http://www.w3.org/2000/svg" width="24" height="24" viewBox="0 0 24 24" fill="none">
  <path d="M21.4243 10.8109C21.1382 8.54258 20.0436 6.45352 18.3415 4.92712C16.6393 3.40073 14.4438 2.53942 12.1578 2.50125L12.8093 1.85499C12.8565 1.80887 12.8941 1.75389 12.9199 1.6932C12.9457 1.6325 12.9592 1.56731 12.9597 1.50136C12.9602 1.4354 12.9477 1.37001 12.9228 1.30893C12.8979 1.24785 12.8612 1.19229 12.8148 1.14546C12.7683 1.09864 12.7131 1.06146 12.6522 1.03607C12.5913 1.01069 12.526 0.9976 12.4601 0.997559C12.3941 0.997517 12.3288 1.01052 12.2679 1.03583C12.207 1.06114 12.1517 1.09825 12.1052 1.14502L10.5215 2.71594C10.4748 2.76216 10.4378 2.81712 10.4124 2.87767C10.387 2.93823 10.3738 3.00319 10.3735 3.06884C10.3733 3.1345 10.3859 3.19957 10.4108 3.26033C10.4357 3.32109 10.4723 3.37635 10.5186 3.42295L12.1023 5.01975C12.1484 5.0669 12.2034 5.10447 12.2641 5.13028C12.3248 5.15609 12.39 5.16964 12.4559 5.17014C12.5219 5.17065 12.5873 5.1581 12.6483 5.13322C12.7094 5.10834 12.765 5.07163 12.8118 5.02518C12.8586 4.97874 12.8958 4.92349 12.9212 4.86262C12.9466 4.80175 12.9597 4.73646 12.9597 4.67051C12.9597 4.60455 12.9467 4.53924 12.9214 4.47834C12.8961 4.41744 12.859 4.36214 12.8122 4.31564L12.0047 3.50124C13.7653 3.50247 15.4822 4.05039 16.918 5.06932C18.3539 6.08825 19.4379 7.5279 20.0204 9.18942C20.6029 10.8509 20.6551 12.6523 20.1697 14.3448C19.6843 16.0372 18.6854 17.5372 17.3109 18.6375C17.2075 18.7204 17.1412 18.8411 17.1267 18.9729C17.1195 19.0382 17.1252 19.1042 17.1436 19.1673C17.1619 19.2303 17.1925 19.2892 17.2335 19.3404C17.2746 19.3916 17.3254 19.4343 17.3829 19.4659C17.4405 19.4975 17.5037 19.5175 17.569 19.5247C17.7008 19.5392 17.833 19.5007 17.9364 19.4178C20.5371 17.3323 21.8411 14.1148 21.4243 10.8109Z" fill="currentColor"/>
  <path d="M11.8977 18.9802C11.8516 18.933 11.7966 18.8954 11.7359 18.8696C11.6752 18.8438 11.61 18.8303 11.5441 18.8298C11.4781 18.8293 11.4127 18.8418 11.3516 18.8667C11.2905 18.8916 11.235 18.9283 11.1882 18.9747C11.1413 19.0212 11.1042 19.0764 11.0788 19.1373C11.0534 19.1982 11.0403 19.2634 11.0403 19.3294C11.0402 19.3954 11.0532 19.4607 11.0785 19.5216C11.1038 19.5825 11.1409 19.6378 11.1877 19.6843L11.9953 20.4984C10.2348 20.4973 8.51812 19.9495 7.08231 18.9308C5.64651 17.9121 4.56243 16.4727 3.97981 14.8115C3.39719 13.1502 3.34477 11.349 3.82979 9.65666C4.31482 7.96432 5.31335 6.46433 6.68748 5.36386C6.79092 5.28085 6.85715 5.16015 6.8716 5.02831C6.88605 4.89647 6.84753 4.76429 6.76452 4.66085C6.68151 4.55741 6.56081 4.49118 6.42897 4.47673C6.29713 4.46228 6.16496 4.5008 6.06152 4.58381C3.46211 6.66951 2.15889 9.8864 2.57566 13.1889C2.86167 15.4573 3.95626 17.5465 5.65851 19.0728C7.36075 20.5992 9.55642 21.4604 11.8425 21.4983L11.1906 22.145C11.1435 22.1911 11.1059 22.2461 11.0801 22.3068C11.0543 22.3674 11.0407 22.4326 11.0402 22.4986C11.0397 22.5645 11.0523 22.6299 11.0772 22.691C11.102 22.7521 11.1388 22.8077 11.1852 22.8545C11.2316 22.9013 11.2869 22.9385 11.3478 22.9639C11.4086 22.9893 11.4739 23.0024 11.5399 23.0024C11.6058 23.0024 11.6711 22.9894 11.732 22.9641C11.7929 22.9388 11.8482 22.9017 11.8947 22.8549L13.4785 21.2839C13.5251 21.2377 13.5621 21.1827 13.5875 21.1221C13.6129 21.0616 13.6261 20.9966 13.6264 20.931C13.6267 20.8653 13.614 20.8003 13.5891 20.7395C13.5643 20.6787 13.5276 20.6235 13.4814 20.5769L11.8977 18.9802Z" fill="currentColor"/>
  <path d="M12.397 11.6047C12.326 11.5774 12.2594 11.5523 12.202 11.527C12.139 11.4992 12.0636 11.4703 11.9803 11.4387C11.5069 11.2589 11.2501 11.1168 11.2501 10.8816C11.2501 10.7777 11.361 10.6164 11.5726 10.5092C11.7226 10.4334 12.264 10.2258 12.954 10.7329C13.0068 10.7723 13.067 10.8008 13.1309 10.8169C13.1948 10.8329 13.2613 10.8362 13.3265 10.8264C13.3917 10.8167 13.4543 10.7941 13.5108 10.7601C13.5673 10.726 13.6164 10.6812 13.6555 10.6281C13.6945 10.575 13.7227 10.5146 13.7383 10.4506C13.754 10.3866 13.7568 10.3201 13.7466 10.2549C13.7365 10.1898 13.7136 10.1273 13.6792 10.0711C13.6448 10.0148 13.5996 9.96596 13.5462 9.92724C13.2357 9.69569 12.8789 9.53384 12.5001 9.45273V9.00006C12.4988 8.86829 12.4456 8.74235 12.3519 8.64963C12.2583 8.5569 12.1319 8.50488 12.0001 8.50488C11.8683 8.50488 11.7419 8.5569 11.6482 8.64963C11.5546 8.74235 11.5014 8.86829 11.5001 9.00006V9.47626C11.3694 9.51022 11.2424 9.55734 11.1212 9.61689C10.5838 9.88876 10.2501 10.3734 10.2501 10.8815C10.2501 11.8513 11.1789 12.2041 11.6254 12.3736C11.6901 12.398 11.7492 12.4202 11.7983 12.4419C11.8698 12.4734 11.9521 12.5052 12.0402 12.5389C12.5312 12.7264 12.7502 12.8502 12.7502 13.0873C12.7502 13.1911 12.6393 13.3524 12.4277 13.4594C12.2777 13.5351 11.7365 13.7431 11.0463 13.2358C10.9395 13.1572 10.8058 13.1244 10.6747 13.1444C10.5436 13.1644 10.4259 13.2356 10.3473 13.3425C10.2688 13.4493 10.2359 13.583 10.2559 13.7141C10.2759 13.8452 10.3472 13.9629 10.454 14.0415C10.7644 14.274 11.1212 14.437 11.5002 14.5193V15.0001C11.5015 15.1318 11.5547 15.2578 11.6483 15.3505C11.742 15.4432 11.8684 15.4952 12.0002 15.4952C12.132 15.4952 12.2584 15.4432 12.352 15.3505C12.4457 15.2578 12.4989 15.1318 12.5002 15.0001V14.4945C12.631 14.4599 12.7579 14.4121 12.8791 14.3518C13.4164 14.0799 13.7501 13.5955 13.7501 13.0874C13.75 12.1217 12.8699 11.7853 12.397 11.6047Z" fill="currentColor"/>
  <path d="M12 6.5C10.9122 6.5 9.84883 6.82257 8.94436 7.42691C8.03989 8.03126 7.33494 8.89024 6.91866 9.89523C6.50238 10.9002 6.39346 12.0061 6.60568 13.073C6.8179 14.1399 7.34172 15.1199 8.11091 15.8891C8.8801 16.6582 9.8601 17.1821 10.927 17.3943C11.9939 17.6065 13.0997 17.4976 14.1047 17.0813C15.1097 16.665 15.9687 15.9601 16.5731 15.0556C17.1774 14.1511 17.5 13.0878 17.5 12C17.4983 10.5418 16.9183 9.14382 15.8872 8.11273C14.8562 7.08164 13.4582 6.50165 12 6.5ZM12 16.5C11.11 16.5 10.2399 16.2361 9.49992 15.7416C8.7599 15.2471 8.18312 14.5443 7.84253 13.7221C7.50193 12.8998 7.41282 11.995 7.58645 11.1221C7.76009 10.2492 8.18867 9.44734 8.81801 8.818C9.44734 8.18867 10.2492 7.76008 11.1221 7.58645C11.995 7.41282 12.8998 7.50193 13.7221 7.84253C14.5443 8.18312 15.2471 8.7599 15.7416 9.49992C16.2361 10.2399 16.5 11.11 16.5 12C16.4986 13.193 16.024 14.3368 15.1804 15.1804C14.3368 16.024 13.193 16.4986 12 16.5Z" fill="currentColor"/>
</svg>