<svg enable-background="new 0 0 48 48" height="512" viewBox="0 0 48 48" width="512" xmlns="http://www.w3.org/2000/svg" fill='currentColor'><g id="Line"><path d="m37.94 25.13c-.55 6.82-6 12.27-12.81 12.81l-7.19 7.19c13.73 4.19 28.28-6.77 28.06-21.13 0-2.06-.3-4.1-.87-6.06z"/><path d="m10.06 22.87c.55-6.82 6-12.27 12.81-12.81l7.19-7.19c-13.73-4.19-28.28 6.77-28.06 21.13 0 2.06.3 4.1.87 6.06z"/><path d="m37.32 8.24h1v4h-1z" transform="matrix(.707 -.707 .707 .707 3.838 29.743)"/><path d="m9.15 36.23c-.21-.06-.56.35-.71.5 0 0 .71.71.71.71l.35-.35c.34-.33.05-.88-.35-.86z"/><path d="m39.12.88c-1.12-1.16-3.12-1.17-4.24 0 0 0-28.08 28.08-34 34-1.17 1.17-1.17 3.07 0 4.24l8 8c1.12 1.16 3.13 1.16 4.24 0 0 0 9.23-9.23 9.23-9.23 6.06-6.06 18.85-18.85 24.77-24.77 1.17-1.17 1.17-3.07 0-4.24zm-25.92 38.95-2.06-.41.85.85c.64.59.15 1.74-.71 1.71-.26 0-.51-.1-.71-.29l-4.24-4.24c-.91-.98.48-1.82 1.06-2.47 1.78-1.79 4.95.06 4.16 2.5 0 0 2.05.41 2.05.41 1.27.24.88 2.19-.4 1.94zm4.44-3.81-1.41 1.41c-.37.39-1.04.39-1.41 0 0 0-4.24-4.24-4.24-4.24-.19-.19-.29-.44-.29-.71-.09-.61 1.23-1.55 1.71-2.12.93-.92 2.33.49 1.41 1.41 0 0-.71.71-.71.71l.71.71.71-.71c.93-.92 2.34.49 1.41 1.41 0 0-.71.71-.71.71l.71.71.71-.71c.91-.91 2.32.49 1.4 1.42zm3.18-3.18c-1.13 1.15-2.93.87-3.89-.35-.92-.93.49-2.33 1.41-1.41 0 0 .35.35.35.35.45.46 1.17-.25.71-.71 0 0-3.18-3.18-3.18-3.18-.39-.39-.39-1.02 0-1.41s1.02-.39 1.41 0l3.18 3.18c.98.92.98 2.6.01 3.53zm4.59-4.6-1.41 1.42c-.39.39-1.02.39-1.41 0-1.06-1.06-3.19-3.18-4.24-4.24-.39-.39-.39-1.02 0-1.41l1.41-1.41c.93-.92 2.33.48 1.41 1.41 0 0-.71.71-.71.71l.71.71.71-.71c.93-.92 2.34.49 1.41 1.41 0 0-.71.71-.71.71l.71.71.71-.72c.93-.92 2.34.48 1.41 1.41zm3.54-3.53-.71.71c-.78.78-2.05.78-2.83 0l-2.83-2.83c-.78-.78-.78-2.05 0-2.83l.71-.71c.39-.39 1.02-.39 1.41 0s.39 1.02 0 1.41l-.7.71 2.83 2.83.71-.71c.92-.92 2.33.49 1.41 1.42zm3.54-3.54c-.39.39-1.02.39-1.41 0l-3.54-3.54-.71.71c-.39.39-1.02.39-1.41 0s-.39-1.02 0-1.41l2.83-2.83c.39-.39 1.02-.39 1.41 0s.39 1.02 0 1.41l-.71.71 3.54 3.54c.39.39.39 1.02 0 1.41zm4.95-4.95-1.41 1.41c-.39.39-1.02.39-1.41 0l-4.24-4.24c-.39-.39-.39-1.02 0-1.41l1.41-1.41c.93-.92 2.33.48 1.41 1.41 0 0-.71.71-.71.71l.71.71.71-.71c.93-.92 2.34.49 1.41 1.41 0 0-.71.71-.71.71l.71.71.71-.71c.92-.92 2.33.48 1.41 1.41zm3.56-3.51-1.41 1.41c-.37.39-1.04.39-1.41 0 0 0-4.24-4.24-4.24-4.24-.39-.39-.39-1.02 0-1.41l1.41-1.41c.78-.78 2.05-.78 2.83 0l2.82 2.83c.77.74.77 2.08 0 2.82z"/></g></svg>