<svg xmlns="http://www.w3.org/2000/svg" width="24" height="24" viewBox="0 0 24 24" fill="none">
  <path d="M22.3691 12.5383C21.2662 11.4404 19.9913 12.468 19.9913 12.468V6.6882C19.9913 6.4941 19.834 6.33663 19.6399 6.33663C19.4456 6.33663 19.2883 6.4941 19.2883 6.6882V12.9625C19.2883 12.9625 17.612 14.284 16.8914 14.607V4.20033C16.8914 3.71656 17.2849 3.32306 17.7687 3.32306H18.411C18.8948 3.32306 19.2883 3.71656 19.2883 4.20033V5.24898C19.2883 5.44325 19.4456 5.60054 19.6399 5.60054C19.834 5.60054 19.9913 5.44325 19.9913 5.24898V4.20033C19.9913 3.32892 19.2825 2.62012 18.411 2.62012H17.7687C16.8973 2.62012 16.1883 3.32892 16.1883 4.20033V14.8857C15.9787 14.9445 15.7635 14.9844 15.5449 15.0054V7.59384C15.5449 6.71804 14.8324 6.00557 13.9568 6.00557H13.33C12.4544 6.00557 11.7419 6.71804 11.7419 7.59384V11.1758L11.0983 11.5174V10.3254C11.0983 9.53697 10.4569 8.89554 9.66863 8.89554H8.72526C7.9368 8.89554 7.29557 9.53697 7.29557 10.3254V13.536L6.14767 14.1452L2.92426 15.0664C2.36341 15.2266 1.89502 15.5939 1.60571 16.1004C1.31622 16.6071 1.23767 17.197 1.38452 17.7616L1.74506 19.1488C1.79376 19.3366 1.98566 19.4493 2.17371 19.4006C2.36158 19.3517 2.47437 19.1598 2.42548 18.9717L2.06494 17.5847C1.85584 16.7801 2.31818 15.9708 3.11762 15.7424L6.06472 14.9002L8.27976 20.8119C8.42808 21.2078 8.40464 22.3372 7.23294 22.7534L5.00582 23.2593C4.22963 23.4355 3.46479 22.9702 3.26447 22.1997L2.81238 20.46C2.76349 20.2721 2.5716 20.1593 2.38373 20.2081C2.19568 20.2569 2.08307 20.4488 2.13178 20.6369L2.58405 22.3768C2.8382 23.3542 3.70649 24 4.67311 24C5.38338 24 7.38877 23.439 7.38877 23.439C7.99906 23.3005 8.51945 22.905 8.81626 22.3542C9.06126 21.8998 9.13395 21.3768 9.02885 20.8786L16.734 18.9922C17.3712 18.836 17.9762 18.5334 18.483 18.1168L22.2327 15.0358C23.3758 14.022 22.7053 12.8728 22.3691 12.5383ZM13.33 6.7087H13.9568C14.4448 6.7087 14.8418 7.10586 14.8418 7.59384V15.023L12.6234 15.0221C12.4196 15.0203 12.5606 14.8857 12.5718 14.8765L13.2106 14.3591C13.8067 13.8762 14.1959 13.205 14.3675 12.3636C14.4765 11.8298 14.2728 11.2955 13.8365 10.9692C13.4289 10.6645 12.9047 10.6059 12.4451 10.8074V7.59384C12.4451 7.10586 12.842 6.7087 13.33 6.7087ZM7.99869 10.3254C7.99869 9.92479 8.32462 9.59867 8.72526 9.59867H9.66863C10.0693 9.59867 10.3954 9.92479 10.3954 10.3254V11.8906L7.99851 13.1628V10.3254H7.99869ZM21.7864 14.4927L18.0366 17.5737C17.6107 17.9238 17.1024 18.1781 16.5668 18.3092L8.80491 20.2097L6.7175 14.639L12.6776 11.4753C12.9199 11.3466 13.1958 11.368 13.4154 11.5323C13.6349 11.6965 13.7334 11.9547 13.6787 12.2231C13.5404 12.9005 13.2341 13.4353 12.7681 13.8127L12.1292 14.3303C11.8674 14.5424 11.7709 14.8846 11.8833 15.2023C11.9957 15.5198 12.2861 15.7252 12.623 15.7252L15.1845 15.7263H15.1864C16.0982 15.7263 16.9746 15.4491 17.7206 14.9245L20.5832 12.9114C20.9841 12.6295 21.5237 12.6793 21.8661 13.0297C22.0633 13.2311 22.4493 13.8297 21.7864 14.4927Z" fill="currentColor"/>
  <path d="M6.93349 21.0371C6.93349 20.2733 6.31221 19.6519 5.54847 19.6519C4.78473 19.6519 4.16345 20.2733 4.16345 21.0371C4.16345 21.8006 4.78473 22.4221 5.54847 22.4221C6.31221 22.4221 6.93349 21.8006 6.93349 21.0371ZM4.86658 21.0371C4.86658 20.661 5.17237 20.355 5.54847 20.355C5.92439 20.355 6.23036 20.661 6.23036 21.0371C6.23036 21.413 5.92457 21.7189 5.54847 21.7189C5.17237 21.7189 4.86658 21.413 4.86658 21.0371Z" fill="currentColor"/>
  <path d="M3.02027 11.0382L8.13077 5.88834L9.28031 6.48289C9.69212 6.69584 10.1933 6.62296 10.5273 6.30143L13.309 3.62368C13.309 3.62368 13.2325 4.99899 14.3906 4.99899C14.9868 4.99899 15.4721 4.51376 15.4721 3.91738V1.08143C15.4721 1.07813 15.4719 1.07465 15.4719 1.07117C15.468 0.33124 14.927 0 14.3906 0H11.5794C10.983 0 10.498 0.485232 10.498 1.08143C10.498 2.27016 11.7078 2.16285 11.7078 2.16285L9.58555 4.20559L8.41935 3.60244C7.99765 3.38418 7.48953 3.46419 7.15481 3.80111L1.4851 9.51458C1.06506 9.93792 1.06762 10.624 1.49096 11.0441C1.69494 11.2464 2.39148 11.667 3.02027 11.0382ZM1.98407 10.0099L7.65378 4.29641C7.72702 4.2228 7.84458 4.0939 8.09635 4.22701L9.48631 4.94589C9.62016 5.01511 9.78312 4.99148 9.89171 4.88693L12.8236 2.06471C12.9269 1.96528 12.9595 1.81294 12.9058 1.68C12.8522 1.54688 12.7233 1.45991 12.5797 1.45991H11.5794C11.3708 1.45991 11.2011 1.29017 11.2011 1.08143C11.2011 0.872869 11.3708 0.703129 11.5794 0.703129H14.3906C14.4941 0.703129 14.7688 0.703129 14.7688 1.07923C14.7688 1.08234 14.7689 1.08546 14.7689 1.08875V3.91738C14.7689 4.12594 14.5992 4.29568 14.3906 4.29568C14.1819 4.29568 14.0122 4.12594 14.0122 3.91738V2.79732C14.0122 2.65633 13.9279 2.52888 13.7983 2.47377C13.6686 2.41847 13.5185 2.4463 13.4169 2.54408L10.0397 5.79496C9.92283 5.90738 9.74742 5.93302 9.6035 5.85849L8.2247 5.14529C8.08829 5.0748 7.92185 5.10098 7.81363 5.20993L2.5213 10.5429C2.29059 10.7736 2.05749 10.6158 1.98608 10.5449C1.83813 10.3979 1.83722 10.1578 1.98407 10.0099Z" fill="currentColor"/>
</svg>