<svg xmlns="http://www.w3.org/2000/svg" width="24" height="24" viewBox="0 0 24 24" fill="none">
  <g clip-path="url(#standard)">
    <path d="M19.7008 0H2.8125C1.26169 0 0 1.26169 0 2.8125V21.1875C0 22.7383 1.26169 24 2.8125 24H21.1875C22.7383 24 24 22.7383 24 21.1875V4.29919L19.7008 0ZM7.35938 1.875H12.9375V5.4375H14.8125V1.875H16.6875V6.375C16.6875 6.89194 16.2669 7.3125 15.75 7.3125H8.29688C7.77994 7.3125 7.35938 6.89194 7.35938 6.375V1.875ZM18.5625 22.125H5.48438V13.875C5.48438 13.3581 5.90494 12.9375 6.42188 12.9375H17.625C18.1419 12.9375 18.5625 13.3581 18.5625 13.875V22.125ZM22.125 21.1875C22.125 21.7044 21.7044 22.125 21.1875 22.125H20.4375V13.875C20.4375 12.3242 19.1758 11.0625 17.625 11.0625H6.42188C4.87106 11.0625 3.60938 12.3242 3.60938 13.875V22.125H2.8125C2.29556 22.125 1.875 21.7044 1.875 21.1875V2.8125C1.875 2.29556 2.29556 1.875 2.8125 1.875H5.48438V6.375C5.48438 7.92581 6.74606 9.1875 8.29688 9.1875H15.75C17.3008 9.1875 18.5625 7.92581 18.5625 6.375V1.875H18.9242L22.125 5.07581V21.1875Z" fill="currentColor"/>
  </g>
  <defs>
    <clipPath id="standard">
      <rect width="24" height="24" fill="white"/>
    </clipPath>
  </defs>
</svg>