<svg width="24" height="24" viewBox="0 0 24 24" fill="none" xmlns="http://www.w3.org/2000/svg">
<path fill-rule="evenodd" clip-rule="evenodd" d="M10 3.5C6.413 3.5 3.5 6.413 3.5 10C3.5 13.587 6.413 16.5 10 16.5C13.587 16.5 16.5 13.587 16.5 10C16.5 6.413 13.587 3.5 10 3.5ZM10 4.5C13.036 4.5 15.5 6.964 15.5 10C15.5 13.036 13.036 15.5 10 15.5C6.964 15.5 4.5 13.036 4.5 10C4.5 6.964 6.964 4.5 10 4.5Z" fill="currentColor"/>
<path fill-rule="evenodd" clip-rule="evenodd" d="M20.3539 19.6459L14.5949 13.8879C14.3999 13.6929 14.0829 13.6929 13.8879 13.8879C13.6929 14.0829 13.6929 14.3999 13.8879 14.5949L19.6459 20.3539C19.8419 20.5489 20.1579 20.5489 20.3539 20.3539C20.5489 20.1579 20.5489 19.8419 20.3539 19.6459Z" fill="currentColor"/>
</svg>
