<svg xmlns="http://www.w3.org/2000/svg" width="24" height="24" viewBox="0 0 24 24" fill="none">
  <path d="M17.637 7.91896H15.59C15.176 7.91896 14.84 8.25445 14.84 8.66895C14.84 9.08345 15.176 9.41895 15.59 9.41895H17.6375C18.051 9.41895 18.3875 9.75545 18.3875 10.169V19.977C18.3875 20.3905 18.051 20.727 17.6375 20.727H6.36304C5.94954 20.727 5.61304 20.3905 5.61304 19.977V10.169C5.61304 9.75545 5.94954 9.41895 6.36304 9.41895H8.41054C8.82504 9.41895 9.16054 9.08345 9.16054 8.66895C9.16054 8.25445 8.82504 7.91896 8.41054 7.91896H6.36304C5.12254 7.91896 4.11304 8.92845 4.11304 10.169V19.977C4.11304 21.2175 5.12254 22.227 6.36304 22.227H17.6375C18.878 22.227 19.8875 21.2175 19.8875 19.977V10.169C19.887 8.92795 18.878 7.91896 17.637 7.91896ZM9.20354 6.40496L11.275 4.33346V14.2075C11.275 14.6215 11.6105 14.9575 12.025 14.9575C12.4395 14.9575 12.775 14.6215 12.775 14.2075V4.33346L14.8465 6.40496C14.993 6.55146 15.185 6.62445 15.377 6.62445C15.569 6.62445 15.761 6.55146 15.9075 6.40496C16.2005 6.11246 16.2005 5.63696 15.9075 5.34446L12.556 1.99246C12.2625 1.69946 11.788 1.69946 11.495 1.99246L8.14304 5.34446C7.85004 5.63696 7.85004 6.11246 8.14304 6.40496C8.43604 6.69796 8.91054 6.69796 9.20354 6.40496Z" fill="currentColor"/>
</svg>