<svg xmlns="http://www.w3.org/2000/svg" width="24" height="24" viewBox="0 0 24 24" fill="none">
  <g clip-path="url(#clip0_841_33)">
    <path fill-rule="evenodd" clip-rule="evenodd" d="M16.8915 23.6302H0.987246C0.443496 23.6302 0.00146484 23.1882 0.00146484 22.6444V1.35519C0.00146484 0.811904 0.443496 0.369873 0.987246 0.369873H16.8915C17.4347 0.369873 17.8772 0.811904 17.8772 1.35519V10.92C17.8772 11.2285 17.4085 11.2285 17.4085 10.92V1.35565C17.4085 1.07019 17.1765 0.838623 16.8915 0.838623H0.987246C0.702246 0.838623 0.470215 1.07065 0.470215 1.35519V22.6444C0.470215 22.9294 0.702246 23.1614 0.987246 23.1614H16.8915C16.9862 23.1614 17.079 23.1352 17.1601 23.0855C17.423 22.9242 17.6682 23.3236 17.4052 23.4849C17.2505 23.58 17.0729 23.6302 16.8915 23.6302Z" fill="currentColor"/>
    <path fill-rule="evenodd" clip-rule="evenodd" d="M4.77527 4.70483H2.67761C2.54824 4.70483 2.44324 4.59983 2.44324 4.47046V2.3728C2.44324 2.24343 2.54824 2.13843 2.67761 2.13843H4.77527C4.90511 2.13843 5.00964 2.24343 5.00964 2.3728V4.47046C5.00964 4.59983 4.90464 4.70483 4.77527 4.70483ZM2.91199 4.23608H4.54089V2.60718H2.91199V4.23608Z" fill="currentColor"/>
    <path fill-rule="evenodd" clip-rule="evenodd" d="M15.2006 3.65625H7.74939C7.44096 3.65625 7.44096 3.1875 7.74939 3.1875H15.2006C15.5091 3.1875 15.5091 3.65625 15.2006 3.65625Z" fill="currentColor"/>
    <path fill-rule="evenodd" clip-rule="evenodd" d="M4.77527 8.9939H2.67761C2.54824 8.9939 2.44324 8.8889 2.44324 8.75952V6.66187C2.44324 6.53249 2.54824 6.42749 2.67761 6.42749H4.77527C4.90511 6.42749 5.00964 6.53249 5.00964 6.66187V8.75952C5.00964 8.8889 4.90464 8.9939 4.77527 8.9939ZM2.91199 8.52515H4.54089V6.89624H2.91199V8.52515Z" fill="currentColor"/>
    <path fill-rule="evenodd" clip-rule="evenodd" d="M15.2006 7.94531H7.74939C7.44096 7.94531 7.44096 7.47656 7.74939 7.47656H15.2006C15.5091 7.47656 15.5091 7.94531 15.2006 7.94531Z" fill="currentColor"/>
    <path fill-rule="evenodd" clip-rule="evenodd" d="M4.77527 13.283H2.67761C2.54824 13.283 2.44324 13.178 2.44324 13.0486V10.9509C2.44324 10.8216 2.54824 10.7166 2.67761 10.7166H4.77527C4.90511 10.7166 5.00964 10.8216 5.00964 10.9509V13.0486C5.00964 13.178 4.90464 13.283 4.77527 13.283ZM2.91199 12.8142H4.54089V11.1853H2.91199V12.8142Z" fill="currentColor"/>
    <path fill-rule="evenodd" clip-rule="evenodd" d="M12.173 12.2344H7.74939C7.44096 12.2344 7.44096 11.7656 7.74939 11.7656H12.173C12.4814 11.7656 12.4814 12.2344 12.173 12.2344Z" fill="currentColor"/>
    <path fill-rule="evenodd" clip-rule="evenodd" d="M4.77527 17.572H2.67761C2.54824 17.572 2.44324 17.4675 2.44324 17.3376V15.24C2.44324 15.1106 2.54824 15.0056 2.67761 15.0056H4.77527C4.90511 15.0056 5.00964 15.1106 5.00964 15.24V17.3376C5.00964 17.467 4.90464 17.572 4.77527 17.572ZM2.91199 17.1033H4.54089V15.4744H2.91199V17.1033Z" fill="currentColor"/>
    <path fill-rule="evenodd" clip-rule="evenodd" d="M12.173 16.5234H7.74939C7.44096 16.5234 7.44096 16.0547 7.74939 16.0547H12.173C12.4814 16.0547 12.4814 16.5234 12.173 16.5234Z" fill="currentColor"/>
    <path fill-rule="evenodd" clip-rule="evenodd" d="M4.77527 21.8611H2.67761C2.54824 21.8611 2.44324 21.7561 2.44324 21.6267V19.5291C2.44324 19.3997 2.54824 19.2947 2.67761 19.2947H4.77527C4.90511 19.2947 5.00964 19.3997 5.00964 19.5291V21.6267C5.00964 21.7561 4.90464 21.8611 4.77527 21.8611ZM2.91199 21.3923H4.54089V19.7634H2.91199V21.3923Z" fill="currentColor"/>
    <path fill-rule="evenodd" clip-rule="evenodd" d="M12.173 20.8125H7.74939C7.44096 20.8125 7.44096 20.3438 7.74939 20.3438H12.173C12.4814 20.3438 12.4814 20.8125 12.173 20.8125Z" fill="currentColor"/>
    <path fill-rule="evenodd" clip-rule="evenodd" d="M20.6588 18.2409H18.375C18.2452 18.2409 18.1406 18.1359 18.1406 18.0065V15.7228C18.1406 15.4143 18.6094 15.4143 18.6094 15.7228V17.7722H20.6588C20.9672 17.7722 20.9672 18.2409 20.6588 18.2409Z" fill="currentColor"/>
    <path fill-rule="evenodd" clip-rule="evenodd" d="M18.3751 23.6302C15.2738 23.6302 12.7515 21.1074 12.7515 18.0067C12.7515 14.9059 15.2738 12.3831 18.3751 12.3831C21.4758 12.3831 23.9987 14.9059 23.9987 18.0067C23.9987 21.1074 21.4758 23.6302 18.3751 23.6302ZM18.3751 12.8518C15.5326 12.8518 13.2202 15.1642 13.2202 18.0067C13.2202 20.8492 15.5326 23.1615 18.3751 23.1615C21.2176 23.1615 23.5299 20.8492 23.5299 18.0067C23.5299 15.1642 21.2176 12.8518 18.3751 12.8518Z" fill="currentColor"/>
    <path fill-rule="evenodd" clip-rule="evenodd" d="M18.375 14.8154C18.2456 14.8154 18.1406 14.7104 18.1406 14.581V12.6174C18.1406 12.3085 18.6094 12.3085 18.6094 12.6174V14.581C18.6094 14.7104 18.5044 14.8154 18.375 14.8154Z" fill="currentColor"/>
    <path fill-rule="evenodd" clip-rule="evenodd" d="M23.7642 18.241H21.8002C21.4917 18.241 21.4917 17.7722 21.8002 17.7722H23.7642C24.0727 17.7722 24.0727 18.241 23.7642 18.241Z" fill="currentColor"/>
    <path fill-rule="evenodd" clip-rule="evenodd" d="M18.375 23.6302C18.2456 23.6302 18.1406 23.5252 18.1406 23.3958V21.4322C18.1406 21.1233 18.6094 21.1233 18.6094 21.4322V23.3958C18.6094 23.5252 18.5044 23.6302 18.375 23.6302Z" fill="currentColor"/>
    <path fill-rule="evenodd" clip-rule="evenodd" d="M14.9494 18.241H12.9854C12.6769 18.241 12.6769 17.7722 12.9854 17.7722H14.9494C15.2583 17.7722 15.2579 18.241 14.9494 18.241Z" fill="currentColor"/>
    <path fill-rule="evenodd" clip-rule="evenodd" d="M18.802 12.8681C18.6727 12.8681 18.5677 12.7636 18.5677 12.6338V11.7806H18.1819V12.6338C18.1819 12.9427 17.7131 12.9427 17.7131 12.6338V11.5463C17.7131 11.4169 17.8181 11.3119 17.9475 11.3119H18.802C18.9319 11.3119 19.0364 11.4169 19.0364 11.5463V12.6338C19.0364 12.7636 18.9319 12.8681 18.802 12.8681Z" fill="currentColor"/>
    <path fill-rule="evenodd" clip-rule="evenodd" d="M19.3814 11.7807H17.3682C17.2388 11.7807 17.1338 11.6757 17.1338 11.5463V10.92C17.1338 10.7907 17.2388 10.6857 17.3682 10.6857H19.3814C19.5108 10.6857 19.6158 10.7907 19.6158 10.92V11.5463C19.6158 11.6757 19.5108 11.7807 19.3814 11.7807ZM17.6025 11.3119H19.1471V11.1544H17.6025V11.3119Z" fill="currentColor"/>
    <path fill-rule="evenodd" clip-rule="evenodd" d="M15.3188 13.8019C15.2377 13.8019 15.1589 13.7598 15.1153 13.6848L14.5716 12.7426C14.5069 12.6305 14.5453 12.4871 14.6574 12.4224L15.3975 11.9949C15.5095 11.9302 15.653 11.9687 15.7177 12.0807L16.2619 13.0229C16.4161 13.2901 16.0102 13.5244 15.8559 13.2573L15.4289 12.518L15.0947 12.7112L15.5217 13.4504C15.6122 13.6079 15.4969 13.8019 15.3188 13.8019Z" fill="currentColor"/>
    <path fill-rule="evenodd" clip-rule="evenodd" d="M21.4313 13.8019C21.2532 13.8019 21.1374 13.6079 21.2284 13.4504L21.6549 12.7112L21.3207 12.518L20.8942 13.2573C20.7399 13.5249 20.334 13.2905 20.4882 13.0229L21.032 12.0807C21.0967 11.9687 21.2401 11.9302 21.3521 11.9949L22.0923 12.4224C22.2062 12.488 22.2437 12.6319 22.1757 12.7468L21.6343 13.6848C21.5907 13.7598 21.512 13.8019 21.4313 13.8019Z" fill="currentColor"/>
  </g>
  <defs>
    <clipPath id="clip0_841_33">
      <rect width="24" height="24" fill="white"/>
    </clipPath>
  </defs>
</svg>