<svg width="24" height="24" viewBox="0 0 24 24" fill="none" xmlns="http://www.w3.org/2000/svg">
<g clip-path="url(#standard)">
<path d="M20.4855 3.51474C18.219 1.24819 15.2056 0 12.0003 0C8.79495 0 5.78144 1.24819 3.51499 3.51469C1.24843 5.7812 0.000244141 8.7947 0.000244141 12C0.000244141 15.2053 1.24843 18.2188 3.51499 20.4853C5.78144 22.7518 8.79495 24 12.0003 24C15.2056 24 18.219 22.7518 20.4856 20.4853C22.7521 18.2188 24.0003 15.2053 24.0003 12C24.0003 8.79466 22.7521 5.7812 20.4855 3.51474ZM4.51038 4.51013C5.56558 3.45493 6.80435 2.65008 8.15454 2.12475C7.79491 2.57372 7.4584 3.08977 7.15001 3.67018C6.79184 4.34424 6.48279 5.08454 6.2254 5.87528C5.33374 5.72729 4.50757 5.54532 3.76947 5.33176C4.0008 5.04742 4.2476 4.77292 4.51038 4.51013ZM2.91723 6.54306C3.78053 6.81948 4.76782 7.05259 5.8451 7.23723C5.5451 8.51064 5.36852 9.88094 5.32638 11.2962H1.43162C1.54225 9.59777 2.05234 7.97683 2.91723 6.54306ZM2.84059 17.3268C2.02239 15.9253 1.53892 14.3511 1.43157 12.7039H5.32905C5.37508 14.0787 5.54815 15.41 5.83802 16.6501C4.73861 16.8283 3.72653 17.0555 2.84059 17.3268ZM4.51038 19.4899C4.21131 19.1908 3.93278 18.8767 3.67455 18.5498C4.43969 18.3377 5.29507 18.158 6.21583 18.0139C6.47505 18.8156 6.78743 19.5657 7.14996 20.2481C7.48605 20.8806 7.85557 21.4363 8.25199 21.9124C6.86402 21.3882 5.59094 20.5704 4.51038 19.4899ZM11.2964 22.4117C10.2273 22.1122 9.21589 21.1359 8.39314 19.5875C8.10537 19.046 7.85262 18.4552 7.6361 17.8256C8.79532 17.698 10.0288 17.6226 11.2964 17.6049V22.4117ZM11.2964 16.1971C9.8907 16.2162 8.52059 16.3045 7.23748 16.4552C6.95444 15.2852 6.78415 14.0187 6.73741 12.7039H11.2964V16.1971H11.2964ZM11.2964 11.2961H6.73474C6.77744 9.94455 6.95046 8.64278 7.2423 7.44297C8.51721 7.60234 9.88447 7.69928 11.2964 7.72703V11.2961ZM11.2964 6.31914C10.0239 6.2935 8.79312 6.21053 7.6421 6.07515C7.85731 5.45209 8.10809 4.86727 8.39314 4.3307C9.21584 2.78232 10.2273 1.806 11.2964 1.50652V6.31914ZM21.1276 6.61782C21.9655 8.03312 22.4602 9.62716 22.569 11.2961H18.6742C18.6326 9.89721 18.4594 8.54228 18.1657 7.28144C19.25 7.10631 20.2495 6.88351 21.1276 6.61782ZM19.4901 4.51013C19.7727 4.79274 20.0367 5.08899 20.283 5.39654C19.5295 5.60228 18.6905 5.77689 17.789 5.91742C17.5289 5.11079 17.2151 4.35624 16.8506 3.67018C16.5422 3.08977 16.2057 2.57372 15.846 2.12475C17.1961 2.65008 18.435 3.45493 19.4901 4.51013ZM12.7041 12.7039H17.2632C17.2161 14.029 17.0435 15.305 16.7564 16.4826C15.4817 16.3241 14.1151 16.2281 12.7041 16.2011V12.7039ZM12.7041 11.2961V7.73172C14.1106 7.71325 15.4818 7.62573 16.7662 7.47559C17.0533 8.66636 17.2235 9.95678 17.2658 11.2961H12.7041ZM12.704 1.50652H12.7041C13.7732 1.806 14.7846 2.78232 15.6074 4.3307C15.8969 4.87571 16.1512 5.4706 16.3686 6.10482C15.2078 6.23195 13.9729 6.30681 12.704 6.32392V1.50652ZM12.7041 22.4117V17.609C13.9754 17.6339 15.2053 17.7161 16.3559 17.8506C16.1412 18.4709 15.8913 19.0532 15.6074 19.5875C14.7846 21.1359 13.7733 22.1122 12.7041 22.4117ZM19.4901 19.4899C18.4096 20.5704 17.1365 21.3882 15.7485 21.9123C16.1449 21.4363 16.5144 20.8806 16.8505 20.2481C17.2077 19.5758 17.5161 18.8377 17.773 18.0493C18.6855 18.2 19.5296 18.3862 20.2815 18.6052C20.0358 18.9121 19.7722 19.2078 19.4901 19.4899ZM21.1224 17.3911C20.2489 17.1103 19.2474 16.874 18.154 16.6875C18.4492 15.4369 18.625 14.0925 18.6716 12.7039H22.5691C22.4599 14.3763 21.9635 15.9736 21.1224 17.3911Z" fill="currentColor"/>
</g>
<defs>
<clipPath id="standard">
<rect width="24" height="24" fill="white" transform="translate(0.000244141)"/>
</clipPath>
</defs>
</svg>
